<?xml version="1.0" encoding="utf-8" standalone="no"?>
<!DOCTYPE svg PUBLIC "-//W3C//DTD SVG 1.1//EN"
  "http://www.w3.org/Graphics/SVG/1.1/DTD/svg11.dtd">
<!-- Created with matplotlib (https://matplotlib.org/) -->
<svg height="288pt" version="1.1" viewBox="0 0 432 288" width="432pt" xmlns="http://www.w3.org/2000/svg" xmlns:xlink="http://www.w3.org/1999/xlink">
 <defs>
  <style type="text/css">
*{stroke-linecap:butt;stroke-linejoin:round;}
  </style>
 </defs>
 <g id="figure_1">
  <g id="patch_1">
   <path d="M 0 288 
L 432 288 
L 432 0 
L 0 0 
z
" style="fill:#ffffff;"/>
  </g>
  <g id="axes_1">
   <g id="patch_2">
    <path d="M 54 252 
L 388.8 252 
L 388.8 34.56 
L 54 34.56 
z
" style="fill:#ffffff;"/>
   </g>
   <g id="matplotlib.axis_1">
    <g id="xtick_1">
     <g id="line2d_1">
      <defs>
       <path d="M 0 0 
L 0 3.5 
" id="m9915fd265e" style="stroke:#000000;stroke-width:0.8;"/>
      </defs>
      <g>
       <use style="stroke:#000000;stroke-width:0.8;" x="82.697143" xlink:href="#m9915fd265e" y="252"/>
      </g>
     </g>
     <g id="text_1">
      <!-- $\mathdefault{0.2}$ -->
      <defs>
       <path d="M 42 31.640625 
C 42 37.75 41.90625 48.125 37.703125 56.109375 
C 34 63.109375 28.09375 65.59375 22.90625 65.59375 
C 18.09375 65.59375 12 63.40625 8.203125 56.203125 
C 4.203125 48.71875 3.796875 39.4375 3.796875 31.640625 
C 3.796875 25.953125 3.90625 17.28125 7 9.671875 
C 11.296875 -0.609375 19 -2 22.90625 -2 
C 27.5 -2 34.5 -0.109375 38.59375 9.375 
C 41.59375 16.28125 42 24.359375 42 31.640625 
z
M 22.90625 -0.40625 
C 16.5 -0.40625 12.703125 5.078125 11.296875 12.6875 
C 10.203125 18.5625 10.203125 27.15625 10.203125 32.75 
C 10.203125 40.4375 10.203125 46.828125 11.5 52.921875 
C 13.40625 61.390625 19 64 22.90625 64 
C 27 64 32.296875 61.296875 34.203125 53.125 
C 35.5 47.4375 35.59375 40.734375 35.59375 32.75 
C 35.59375 26.25 35.59375 18.265625 34.40625 12.375 
C 32.296875 1.484375 26.40625 -0.40625 22.90625 -0.40625 
z
" id="CMR17-48"/>
       <path d="M 18.40625 4.796875 
C 18.40625 7.6875 16 9.671875 13.59375 9.671875 
C 10.703125 9.671875 8.703125 7.28125 8.703125 4.890625 
C 8.703125 2 11.09375 0 13.5 0 
C 16.40625 0 18.40625 2.390625 18.40625 4.796875 
z
" id="CMMI12-58"/>
       <path d="M 41.703125 15.453125 
L 39.90625 15.453125 
C 38.90625 8.375 38.09375 7.171875 37.703125 6.5625 
C 37.203125 5.765625 30 5.765625 28.59375 5.765625 
L 9.40625 5.765625 
C 13 9.671875 20 16.75 28.5 24.953125 
C 34.59375 30.734375 41.703125 37.53125 41.703125 47.421875 
C 41.703125 59.21875 32.296875 66 21.796875 66 
C 10.796875 66 4.09375 56.3125 4.09375 47.34375 
C 4.09375 43.4375 7 42.9375 8.203125 42.9375 
C 9.203125 42.9375 12.203125 43.546875 12.203125 47.03125 
C 12.203125 50.109375 9.59375 51 8.203125 51 
C 7.59375 51 7 50.90625 6.59375 50.703125 
C 8.5 59.21875 14.296875 63.40625 20.40625 63.40625 
C 29.09375 63.40625 34.796875 56.515625 34.796875 47.421875 
C 34.796875 38.734375 29.703125 31.25 24 24.75 
L 4.09375 2.28125 
L 4.09375 0 
L 39.296875 0 
z
" id="CMR17-50"/>
      </defs>
      <g transform="translate(73.939133 268.7222)scale(0.14 -0.14)">
       <use transform="scale(0.996264)" xlink:href="#CMR17-48"/>
       <use transform="translate(45.690477 0)scale(0.996264)" xlink:href="#CMMI12-58"/>
       <use transform="translate(72.787654 0)scale(0.996264)" xlink:href="#CMR17-50"/>
      </g>
     </g>
    </g>
    <g id="xtick_2">
     <g id="line2d_2">
      <g>
       <use style="stroke:#000000;stroke-width:0.8;" x="159.222857" xlink:href="#m9915fd265e" y="252"/>
      </g>
     </g>
     <g id="text_2">
      <!-- $\mathdefault{0.4}$ -->
      <defs>
       <path d="M 33.59375 64.40625 
C 33.59375 66.5 33.5 66.5 31.703125 66.5 
L 2 19.59375 
L 2 17 
L 27.796875 17 
L 27.796875 7.140625 
C 27.796875 3.5 27.59375 2.5 20.59375 2.5 
L 18.703125 2.5 
L 18.703125 0 
C 21.90625 0 27.296875 0 30.703125 0 
C 34.09375 0 39.5 0 42.703125 0 
L 42.703125 2.5 
L 40.796875 2.5 
C 33.796875 2.5 33.59375 3.5 33.59375 7.140625 
L 33.59375 17 
L 43.796875 17 
L 43.796875 19.59375 
L 33.59375 19.59375 
z
M 28.09375 57.859375 
L 28.09375 19.59375 
L 4 19.59375 
z
" id="CMR17-52"/>
      </defs>
      <g transform="translate(150.464847 268.7222)scale(0.14 -0.14)">
       <use transform="scale(0.996264)" xlink:href="#CMR17-48"/>
       <use transform="translate(45.690477 0)scale(0.996264)" xlink:href="#CMMI12-58"/>
       <use transform="translate(72.787654 0)scale(0.996264)" xlink:href="#CMR17-52"/>
      </g>
     </g>
    </g>
    <g id="xtick_3">
     <g id="line2d_3">
      <g>
       <use style="stroke:#000000;stroke-width:0.8;" x="235.748571" xlink:href="#m9915fd265e" y="252"/>
      </g>
     </g>
     <g id="text_3">
      <!-- $\mathdefault{0.6}$ -->
      <defs>
       <path d="M 10.59375 34 
C 10.59375 57.65625 21.796875 63 28.296875 63 
C 30.40625 63 35.5 62.640625 37.5 59 
C 35.90625 59 32.90625 59 32.90625 55.515625 
C 32.90625 52.828125 35.09375 51.921875 36.5 51.921875 
C 37.40625 51.921875 40.09375 52.3125 40.09375 55.625 
C 40.09375 61.78125 35.09375 65.296875 28.203125 65.296875 
C 16.296875 65.296875 3.796875 52.96875 3.796875 31 
C 3.796875 3.953125 15.09375 -2 23.09375 -2 
C 32.796875 -2 42 6.671875 42 20.046875 
C 42 32.515625 33.90625 41.59375 23.703125 41.59375 
C 17.59375 41.59375 13.09375 37.609375 10.59375 30.625 
z
M 23.09375 0.390625 
C 10.796875 0.390625 10.796875 18.75 10.796875 22.4375 
C 10.796875 29.625 14.203125 40 23.5 40 
C 25.203125 40 30.09375 40 33.40625 33.125 
C 35.203125 29.21875 35.203125 25.140625 35.203125 20.140625 
C 35.203125 14.75 35.203125 10.78125 33.09375 6.78125 
C 30.90625 2.671875 27.703125 0.390625 23.09375 0.390625 
z
" id="CMR17-54"/>
      </defs>
      <g transform="translate(226.990561 268.7222)scale(0.14 -0.14)">
       <use transform="scale(0.996264)" xlink:href="#CMR17-48"/>
       <use transform="translate(45.690477 0)scale(0.996264)" xlink:href="#CMMI12-58"/>
       <use transform="translate(72.787654 0)scale(0.996264)" xlink:href="#CMR17-54"/>
      </g>
     </g>
    </g>
    <g id="xtick_4">
     <g id="line2d_4">
      <g>
       <use style="stroke:#000000;stroke-width:0.8;" x="312.274286" xlink:href="#m9915fd265e" y="252"/>
      </g>
     </g>
     <g id="text_4">
      <!-- $\mathdefault{0.8}$ -->
      <defs>
       <path d="M 27.203125 35.375 
C 33.5 38.546875 39.90625 43.328125 39.90625 50.984375 
C 39.90625 60.015625 31.09375 65.296875 23 65.296875 
C 13.90625 65.296875 5.90625 58.734375 5.90625 49.6875 
C 5.90625 47.203125 6.5 42.921875 10.40625 39.140625 
C 11.40625 38.15625 15.59375 35.171875 18.296875 33.28125 
C 13.796875 30.984375 3.296875 25.53125 3.296875 14.59375 
C 3.296875 4.359375 13.09375 -2 22.796875 -2 
C 33.5 -2 42.5 5.65625 42.5 15.78125 
C 42.5 24.84375 36.40625 29.015625 32.40625 31.703125 
z
M 14.09375 44.09375 
C 13.296875 44.59375 9.296875 47.671875 9.296875 52.359375 
C 9.296875 58.421875 15.59375 63 22.796875 63 
C 30.703125 63 36.5 57.4375 36.5 50.96875 
C 36.5 41.703125 26.09375 36.421875 25.59375 36.421875 
C 25.5 36.421875 25.40625 36.421875 24.59375 37.03125 
z
M 32.5 23.734375 
C 34 22.640625 38.796875 19.375 38.796875 13.296875 
C 38.796875 5.953125 31.40625 0.390625 23 0.390625 
C 13.90625 0.390625 7 6.84375 7 14.6875 
C 7 22.546875 13.09375 29.09375 20 32.1875 
z
" id="CMR17-56"/>
      </defs>
      <g transform="translate(303.516276 268.7222)scale(0.14 -0.14)">
       <use transform="scale(0.996264)" xlink:href="#CMR17-48"/>
       <use transform="translate(45.690477 0)scale(0.996264)" xlink:href="#CMMI12-58"/>
       <use transform="translate(72.787654 0)scale(0.996264)" xlink:href="#CMR17-56"/>
      </g>
     </g>
    </g>
    <g id="xtick_5">
     <g id="line2d_5">
      <g>
       <use style="stroke:#000000;stroke-width:0.8;" x="388.8" xlink:href="#m9915fd265e" y="252"/>
      </g>
     </g>
     <g id="text_5">
      <!-- $\mathdefault{1.0}$ -->
      <defs>
       <path d="M 26.59375 63.40625 
C 26.59375 65.5 26.5 65.5 25.09375 65.5 
C 21.203125 61.1875 15.296875 59.796875 9.703125 59.796875 
C 9.40625 59.796875 8.90625 59.796875 8.796875 59.5 
C 8.703125 59.296875 8.703125 59.09375 8.703125 57 
C 11.796875 57 17 57.59375 21 59.984375 
L 21 7.203125 
C 21 3.6875 20.796875 2.5 12.203125 2.5 
L 9.203125 2.5 
L 9.203125 0 
C 14 0 19 0 23.796875 0 
C 28.59375 0 33.59375 0 38.40625 0 
L 38.40625 2.5 
L 35.40625 2.5 
C 26.796875 2.5 26.59375 3.59375 26.59375 7.15625 
z
" id="CMR17-49"/>
      </defs>
      <g transform="translate(380.04199 268.7222)scale(0.14 -0.14)">
       <use transform="scale(0.996264)" xlink:href="#CMR17-49"/>
       <use transform="translate(45.690477 0)scale(0.996264)" xlink:href="#CMMI12-58"/>
       <use transform="translate(72.787654 0)scale(0.996264)" xlink:href="#CMR17-48"/>
      </g>
     </g>
    </g>
    <g id="text_6">
     <!-- $\Pr\{c_i|\tilde{\bm{x}}_i\}$ -->
     <defs>
      <path d="M 19.796875 31.90625 
L 35.796875 31.90625 
C 48.703125 31.90625 58.09375 40.28125 58.09375 49.75 
C 58.09375 59.234375 48.90625 68 35.796875 68 
L 5.203125 68 
L 5.203125 65.40625 
C 12.09375 65.40625 13.203125 65.40625 13.203125 60.921875 
L 13.203125 6.96875 
C 13.203125 2.5 12.09375 2.5 5.203125 2.5 
L 5.203125 0 
C 8.09375 0 13.40625 0 16.5 0 
C 19.59375 0 24.90625 0 27.796875 0 
L 27.796875 2.5 
C 20.90625 2.5 19.796875 2.5 19.796875 6.96875 
z
M 19.59375 34 
L 19.59375 61.53125 
C 19.59375 64.921875 19.796875 65.40625 23.796875 65.40625 
L 33.90625 65.40625 
C 46.796875 65.40625 50.5 58.03125 50.5 49.75 
C 50.5 40.6875 46.09375 34 33.90625 34 
z
" id="CMR17-80"/>
      <path d="M 15 23.390625 
C 15 33 19.09375 42 26.59375 42 
C 27.296875 42 28 41.90625 28.703125 41.59375 
C 28.703125 41.59375 26.5 40.890625 26.5 38.3125 
C 26.5 35.90625 28.40625 34.90625 29.90625 34.90625 
C 31.09375 34.90625 33.296875 35.609375 33.296875 38.40625 
C 33.296875 41.609375 30.09375 43.59375 26.703125 43.59375 
C 19.09375 43.59375 15.796875 36.203125 14.796875 32.703125 
L 14.703125 32.703125 
L 14.703125 43.59375 
L 3.09375 42.5 
L 3.09375 39.90625 
C 9 39.90625 9.90625 39.296875 9.90625 34.5 
L 9.90625 6.6875 
C 9.90625 2.875 9.5 2.390625 3.09375 2.390625 
L 3.09375 -0.203125 
C 5.5 0 10.09375 0 12.703125 0 
C 15.59375 0 20.703125 0 23.40625 -0.203125 
L 23.40625 2.390625 
C 16.203125 2.390625 15 2.390625 15 6.875 
z
" id="CMR17-114"/>
      <path d="M 28.296875 61.90625 
C 28.296875 65.953125 30.90625 72.40625 41.796875 72.40625 
C 42.296875 72.53125 42.703125 73 42.703125 73.71875 
C 42.703125 75 41.90625 75 40.796875 75 
C 30.796875 75 21.703125 69.859375 21.59375 62.390625 
L 21.59375 39.40625 
C 21.59375 35.46875 21.59375 32.234375 17.59375 28.921875 
C 14.09375 26 10.296875 26 8.09375 26 
C 7.59375 25.890625 7.203125 25.40625 7.203125 24.6875 
C 7.203125 23.5 7.796875 23.5 8.796875 23.5 
C 15.40625 23.5 20.203125 19.90625 21.296875 15 
C 21.59375 13.90625 21.59375 13.703125 21.59375 10.09375 
L 21.59375 -9.703125 
C 21.59375 -13.90625 21.59375 -17.09375 26.40625 -20.90625 
C 30.296875 -23.90625 36.90625 -25 40.796875 -25 
C 41.90625 -25 42.703125 -25 42.703125 -23.90625 
C 42.703125 -22.703125 42.09375 -22.703125 41.09375 -22.703125 
C 34.796875 -22.703125 29.90625 -19.5 28.59375 -14.375 
C 28.296875 -13.484375 28.296875 -13.28125 28.296875 -9.671875 
L 28.296875 11.359375 
C 28.296875 15.984375 27.5 17.6875 24.296875 20.890625 
C 22.203125 23 19.296875 24 16.5 24.796875 
C 24.703125 27.125 28.296875 31.78125 28.296875 37.640625 
z
" id="CMSY10-102"/>
      <path d="M 39.09375 37.984375 
C 37.203125 37.984375 36.296875 37.984375 34.90625 36.796875 
C 34.296875 36.296875 33.203125 34.796875 33.203125 33.203125 
C 33.203125 31.203125 34.703125 30 36.59375 30 
C 39 30 41.703125 31.9375 41.703125 35.8125 
C 41.703125 40.4375 37.09375 44 30.203125 44 
C 17.09375 44 4 29.734375 4 15.5625 
C 4 6.890625 9.40625 -1 19.59375 -1 
C 33.203125 -1 41.796875 9.71875 41.796875 11.03125 
C 41.796875 11.625 41.203125 12.125 40.796875 12.125 
C 40.5 12.125 40.40625 12.03125 39.5 11.140625 
C 33.09375 2.53125 23.59375 1 19.796875 1 
C 12.90625 1 10.703125 6.96875 10.703125 11.9375 
C 10.703125 15.4375 12.40625 25.078125 16 31.859375 
C 18.59375 36.53125 24 41.90625 30.296875 41.90625 
C 31.59375 41.90625 37.09375 41.90625 39.09375 37.984375 
z
" id="CMMI12-99"/>
      <path d="M 28.296875 14.265625 
C 28.296875 14.765625 27.90625 15.171875 27.296875 15.171875 
C 26.40625 15.171875 26.296875 14.875 25.796875 13.171875 
C 23.203125 4.09375 19.09375 1 15.796875 1 
C 14.59375 1 13.203125 1.296875 13.203125 4.296875 
C 13.203125 6.984375 14.40625 9.984375 15.5 12.96875 
L 22.5 31.53125 
C 22.796875 32.328125 23.5 34.125 23.5 36.015625 
C 23.5 40.21875 20.5 44 15.59375 44 
C 6.40625 44 2.703125 29.53125 2.703125 28.734375 
C 2.703125 28.34375 3.09375 27.84375 3.796875 27.84375 
C 4.703125 27.84375 4.796875 28.234375 5.203125 29.625 
C 7.59375 37.9375 11.40625 41.90625 15.296875 41.90625 
C 16.203125 41.90625 17.90625 41.90625 17.90625 38.71875 
C 17.90625 36.125 16.59375 32.828125 15.796875 30.640625 
L 8.796875 12.078125 
C 8.203125 10.484375 7.59375 8.875 7.59375 7.078125 
C 7.59375 2.59375 10.703125 -1 15.5 -1 
C 24.703125 -1 28.296875 13.578125 28.296875 14.265625 
z
M 27.5 62.703125 
C 27.5 64.203125 26.296875 66 24.09375 66 
C 21.796875 66 19.203125 63.796875 19.203125 61.203125 
C 19.203125 58.71875 21.296875 57.921875 22.5 57.921875 
C 25.203125 57.921875 27.5 60.515625 27.5 62.703125 
z
" id="CMMI12-105"/>
      <path d="M 15.90625 71.40625 
C 15.90625 73.203125 15.90625 75 13.90625 75 
C 11.90625 75 11.90625 73.203125 11.90625 71.40625 
L 11.90625 -21.40625 
C 11.90625 -23.203125 11.90625 -25 13.90625 -25 
C 15.90625 -25 15.90625 -23.203125 15.90625 -21.40625 
z
" id="CMSY10-106"/>
      <path d="M 37.5 65.375 
C 34.09375 62.1875 32.203125 60.390625 29.09375 60.390625 
C 26.90625 60.390625 25.40625 61.4375 23.296875 62.875 
C 21.296875 64.234375 19.703125 65.375 17.5 65.375 
C 13.90625 65.375 11.40625 62.5625 7.203125 58.09375 
L 8.296875 57 
C 11.703125 60.15625 13.59375 62 16.703125 62 
C 18.90625 62 20.40625 60.9375 22.5 59.5 
C 24.5 58.15625 26.09375 57 28.296875 57 
C 31.90625 57 34.40625 59.8125 38.59375 64.28125 
z
" id="CMR17-126"/>
      <path d="M 53.59375 39.90625 
C 50 38.90625 48.203125 35.515625 48.203125 33 
C 48.203125 30.796875 49.90625 28.390625 53.203125 28.390625 
C 56.703125 28.390625 60.40625 31.296875 60.40625 36.1875 
C 60.40625 41.5 55.09375 45 49 45 
C 43.296875 45 39.59375 40.703125 38.296875 38.90625 
C 35.796875 43.109375 30.203125 45 24.5 45 
C 11.90625 45 5.09375 32.6875 5.09375 29.390625 
C 5.09375 28 6.59375 28 7.5 28 
C 8.703125 28 9.40625 28 9.796875 29.296875 
C 12.703125 38.40625 19.90625 41.40625 24 41.40625 
C 27.796875 41.40625 29.59375 39.609375 29.59375 36.40625 
C 29.59375 34.515625 28.203125 29 27.296875 25.40625 
L 23.90625 11.6875 
C 22.40625 5.59375 18.796875 2.578125 15.40625 2.578125 
C 14.90625 2.578125 12.59375 2.578125 10.59375 4.078125 
C 14.203125 5.078125 16 8.484375 16 10.984375 
C 16 13.1875 14.296875 15.59375 11 15.59375 
C 7.5 15.59375 3.796875 12.6875 3.796875 7.796875 
C 3.796875 2.5 9.09375 -1 15.203125 -1 
C 20.90625 -1 24.59375 3.28125 25.90625 5.078125 
C 28.40625 0.890625 34 -1 39.703125 -1 
C 52.296875 -1 59.09375 11.296875 59.09375 14.59375 
C 59.09375 15.984375 57.59375 15.984375 56.703125 15.984375 
C 55.5 15.984375 54.796875 15.984375 54.40625 14.6875 
C 51.5 5.59375 44.296875 2.578125 40.203125 2.578125 
C 36.40625 2.578125 34.59375 4.390625 34.59375 7.59375 
C 34.59375 9.6875 35.90625 14.984375 36.796875 18.6875 
C 37.5 21.296875 39.796875 30.703125 40.296875 32.3125 
C 41.796875 38.3125 45.296875 41.40625 48.796875 41.40625 
C 49.296875 41.40625 51.59375 41.40625 53.59375 39.90625 
z
" id="CMMIB10-120"/>
      <path d="M 21.59375 -12.0625 
C 21.59375 -16.078125 19 -22.5 8.09375 -22.5 
C 7.59375 -22.625 7.203125 -23.0625 7.203125 -23.765625 
C 7.203125 -25 8.296875 -25 9.203125 -25 
C 18.90625 -25 28.203125 -20.109375 28.296875 -12.53125 
L 28.296875 10.234375 
C 28.296875 14.125 28.296875 17.328125 32.296875 20.609375 
C 35.796875 23.5 39.59375 23.5 41.796875 23.5 
C 42.296875 23.609375 42.703125 24.09375 42.703125 24.8125 
C 42.703125 26 42.09375 26 41.09375 26 
C 34.5 26 29.703125 29.625 28.59375 34.59375 
C 28.296875 35.6875 28.296875 35.890625 28.296875 39.546875 
L 28.296875 59.546875 
C 28.296875 63.796875 28.296875 67.015625 23.5 70.859375 
C 19.5 73.984375 12.59375 75 9.203125 75 
C 8.296875 75 7.203125 75 7.203125 73.75 
C 7.203125 72.59375 7.796875 72.59375 8.796875 72.59375 
C 15.09375 72.59375 20 69.359375 21.296875 64.21875 
C 21.59375 63.3125 21.59375 63.109375 21.59375 59.484375 
L 21.59375 38.3125 
C 21.59375 33.671875 22.40625 31.953125 25.59375 28.734375 
C 27.703125 26.609375 30.59375 25.59375 33.40625 24.796875 
C 25.203125 22.484375 21.59375 17.859375 21.59375 12.046875 
z
" id="CMSY10-103"/>
     </defs>
     <g transform="translate(193.617115 285.9444)scale(0.14 -0.14)">
      <use transform="translate(0 -0.0934)scale(0.996264)" xlink:href="#CMR17-80"/>
      <use transform="translate(62.586301 -0.0934)scale(0.996264)" xlink:href="#CMR17-114"/>
      <use transform="translate(97.867068 -0.0934)scale(0.996264)" xlink:href="#CMSY10-102"/>
      <use transform="translate(147.680451 -0.0934)scale(0.996264)" xlink:href="#CMMI12-99"/>
      <use transform="translate(189.663685 -15.037314)scale(0.697382)" xlink:href="#CMMI12-105"/>
      <use transform="translate(213.456724 -0.0934)scale(0.996264)" xlink:href="#CMSY10-106"/>
      <use transform="translate(254.296313 1.296712)scale(0.996264)" xlink:href="#CMR17-126"/>
      <use transform="translate(241.130809 -0.0934)scale(0.996264)" xlink:href="#CMMIB10-120"/>
      <use transform="translate(306.787307 -15.037314)scale(0.697382)" xlink:href="#CMMI12-105"/>
      <use transform="translate(330.580346 -0.0934)scale(0.996264)" xlink:href="#CMSY10-103"/>
     </g>
    </g>
   </g>
   <g id="matplotlib.axis_2">
    <g id="ytick_1">
     <g id="line2d_6">
      <defs>
       <path d="M 0 0 
L -3.5 0 
" id="m52ea222a1a" style="stroke:#000000;stroke-width:0.8;"/>
      </defs>
      <g>
       <use style="stroke:#000000;stroke-width:0.8;" x="54" xlink:href="#m52ea222a1a" y="252"/>
      </g>
     </g>
     <g id="text_7">
      <!-- $\mathdefault{0.0}$ -->
      <g transform="translate(29.48398 256.8611)scale(0.14 -0.14)">
       <use transform="scale(0.996264)" xlink:href="#CMR17-48"/>
       <use transform="translate(45.690477 0)scale(0.996264)" xlink:href="#CMMI12-58"/>
       <use transform="translate(72.787654 0)scale(0.996264)" xlink:href="#CMR17-48"/>
      </g>
     </g>
    </g>
    <g id="ytick_2">
     <g id="line2d_7">
      <g>
       <use style="stroke:#000000;stroke-width:0.8;" x="54" xlink:href="#m52ea222a1a" y="208.512"/>
      </g>
     </g>
     <g id="text_8">
      <!-- $\mathdefault{0.1}$ -->
      <g transform="translate(29.48398 213.3731)scale(0.14 -0.14)">
       <use transform="scale(0.996264)" xlink:href="#CMR17-48"/>
       <use transform="translate(45.690477 0)scale(0.996264)" xlink:href="#CMMI12-58"/>
       <use transform="translate(72.787654 0)scale(0.996264)" xlink:href="#CMR17-49"/>
      </g>
     </g>
    </g>
    <g id="ytick_3">
     <g id="line2d_8">
      <g>
       <use style="stroke:#000000;stroke-width:0.8;" x="54" xlink:href="#m52ea222a1a" y="165.024"/>
      </g>
     </g>
     <g id="text_9">
      <!-- $\mathdefault{0.2}$ -->
      <g transform="translate(29.48398 169.8851)scale(0.14 -0.14)">
       <use transform="scale(0.996264)" xlink:href="#CMR17-48"/>
       <use transform="translate(45.690477 0)scale(0.996264)" xlink:href="#CMMI12-58"/>
       <use transform="translate(72.787654 0)scale(0.996264)" xlink:href="#CMR17-50"/>
      </g>
     </g>
    </g>
    <g id="ytick_4">
     <g id="line2d_9">
      <g>
       <use style="stroke:#000000;stroke-width:0.8;" x="54" xlink:href="#m52ea222a1a" y="121.536"/>
      </g>
     </g>
     <g id="text_10">
      <!-- $\mathdefault{0.3}$ -->
      <defs>
       <path d="M 22.09375 33.703125 
C 31 33.703125 34.90625 25.96875 34.90625 17.03125 
C 34.90625 5 28.5 0.390625 22.703125 0.390625 
C 17.40625 0.390625 8.796875 3.03125 6.09375 10.828125 
C 6.59375 10.625 7.09375 10.625 7.59375 10.625 
C 10 10.625 11.796875 12.21875 11.796875 14.8125 
C 11.796875 17.703125 9.59375 19 7.59375 19 
C 5.90625 19 3.296875 18.203125 3.296875 14.46875 
C 3.296875 5.234375 12.296875 -2 22.90625 -2 
C 34 -2 42.5 6.71875 42.5 16.953125 
C 42.5 26.671875 34.5 33.703125 25 34.796875 
C 32.59375 36.375 39.90625 43.0625 39.90625 52.015625 
C 39.90625 59.6875 32 65.296875 23 65.296875 
C 13.90625 65.296875 5.90625 59.828125 5.90625 52.015625 
C 5.90625 48.59375 8.5 48 9.796875 48 
C 11.90625 48 13.703125 49.296875 13.703125 51.890625 
C 13.703125 54.46875 11.90625 55.765625 9.796875 55.765625 
C 9.40625 55.765625 8.90625 55.765625 8.5 55.578125 
C 11.40625 61.859375 19.296875 63 22.796875 63 
C 26.296875 63 32.90625 61.328125 32.90625 51.875 
C 32.90625 49.109375 32.5 44.1875 29.09375 39.84375 
C 26.09375 36 22.703125 36 19.40625 35.6875 
C 18.90625 35.6875 16.59375 35.453125 16.203125 35.453125 
C 15.5 35.359375 15.09375 35.265625 15.09375 34.5 
C 15.09375 33.796875 15.203125 33.703125 17.203125 33.703125 
z
" id="CMR17-51"/>
      </defs>
      <g transform="translate(29.48398 126.3971)scale(0.14 -0.14)">
       <use transform="scale(0.996264)" xlink:href="#CMR17-48"/>
       <use transform="translate(45.690477 0)scale(0.996264)" xlink:href="#CMMI12-58"/>
       <use transform="translate(72.787654 0)scale(0.996264)" xlink:href="#CMR17-51"/>
      </g>
     </g>
    </g>
    <g id="ytick_5">
     <g id="line2d_10">
      <g>
       <use style="stroke:#000000;stroke-width:0.8;" x="54" xlink:href="#m52ea222a1a" y="78.048"/>
      </g>
     </g>
     <g id="text_11">
      <!-- $\mathdefault{0.4}$ -->
      <g transform="translate(29.48398 82.9091)scale(0.14 -0.14)">
       <use transform="scale(0.996264)" xlink:href="#CMR17-48"/>
       <use transform="translate(45.690477 0)scale(0.996264)" xlink:href="#CMMI12-58"/>
       <use transform="translate(72.787654 0)scale(0.996264)" xlink:href="#CMR17-52"/>
      </g>
     </g>
    </g>
    <g id="ytick_6">
     <g id="line2d_11">
      <g>
       <use style="stroke:#000000;stroke-width:0.8;" x="54" xlink:href="#m52ea222a1a" y="34.56"/>
      </g>
     </g>
     <g id="text_12">
      <!-- $\mathdefault{0.5}$ -->
      <defs>
       <path d="M 11.40625 57.6875 
C 12.40625 57.28125 16.5 56 20.703125 56 
C 30 56 35.09375 61.109375 38 64.0625 
C 38 64.953125 38 65.5 37.40625 65.5 
C 37.296875 65.5 37.09375 65.5 36.296875 65.046875 
C 32.796875 63.40625 28.703125 62.078125 23.703125 62.078125 
C 20.703125 62.078125 16.203125 62.484375 11.296875 64.671875 
C 10.203125 65.171875 10 65.171875 9.90625 65.171875 
C 9.40625 65.171875 9.296875 65.0625 9.296875 63.078125 
L 9.296875 34.421875 
C 9.296875 32.640625 9.296875 32.140625 10.296875 32.140625 
C 10.796875 32.140625 11 32.34375 11.5 33.03125 
C 14.703125 37.515625 19.09375 39.40625 24.09375 39.40625 
C 27.59375 39.40625 35.09375 37.21875 35.09375 20.140625 
C 35.09375 16.953125 35.09375 11.171875 32.09375 6.578125 
C 29.59375 2.484375 25.703125 0.390625 21.40625 0.390625 
C 14.796875 0.390625 8.09375 5 6.296875 12.71875 
C 6.703125 12.609375 7.5 12.421875 7.90625 12.421875 
C 9.203125 12.421875 11.703125 13.125 11.703125 16.21875 
C 11.703125 18.90625 9.796875 20 7.90625 20 
C 5.59375 20 4.09375 18.59375 4.09375 15.796875 
C 4.09375 7.09375 11 -2 21.59375 -2 
C 31.90625 -2 41.703125 6.875 41.703125 19.75 
C 41.703125 31.71875 33.90625 41 24.203125 41 
C 19.09375 41 14.796875 39.109375 11.40625 35.53125 
z
" id="CMR17-53"/>
      </defs>
      <g transform="translate(29.48398 39.4211)scale(0.14 -0.14)">
       <use transform="scale(0.996264)" xlink:href="#CMR17-48"/>
       <use transform="translate(45.690477 0)scale(0.996264)" xlink:href="#CMMI12-58"/>
       <use transform="translate(72.787654 0)scale(0.996264)" xlink:href="#CMR17-53"/>
      </g>
     </g>
    </g>
    <g id="text_13">
     <!-- $P(R_{ik} \leq 1|\tilde{\bm{x}}_i)$ -->
     <defs>
      <path d="M 29.59375 31.609375 
L 46.40625 31.609375 
C 60.203125 31.609375 74 41.765625 74 53.140625 
C 74 60.90625 67.40625 68 54.796875 68 
L 23.90625 68 
C 22 68 21.09375 68 21.09375 66.109375 
C 21.09375 65.109375 22 65.109375 23.5 65.109375 
C 29.59375 65.109375 29.59375 64.3125 29.59375 63.21875 
C 29.59375 63.03125 29.59375 62.421875 29.203125 60.921875 
L 15.703125 7.375 
C 14.796875 3.890625 14.59375 2.890625 7.59375 2.890625 
C 5.703125 2.890625 4.703125 2.890625 4.703125 1.09375 
C 4.703125 0 5.59375 0 6.203125 0 
C 8.09375 0 10.09375 0 12 0 
L 23.703125 0 
C 25.59375 0 27.703125 0 29.59375 0 
C 30.40625 0 31.5 0 31.5 1.890625 
C 31.5 2.890625 30.59375 2.890625 29.09375 2.890625 
C 23.09375 2.890625 23 3.59375 23 4.578125 
C 23 5.078125 23.09375 5.765625 23.203125 6.265625 
z
M 36.796875 61.40625 
C 37.703125 65.109375 38.09375 65.109375 42 65.109375 
L 51.90625 65.109375 
C 59.40625 65.109375 65.59375 62.703125 65.59375 55.234375 
C 65.59375 52.640625 64.296875 44.171875 59.703125 39.59375 
C 58 37.796875 53.203125 34 44.09375 34 
L 30 34 
z
" id="CMMI12-80"/>
      <path d="M 30.59375 -24.390625 
C 30.59375 -24.296875 30.59375 -24.09375 30.296875 -23.796875 
C 25.703125 -19.125 13.40625 -6.359375 13.40625 24.703125 
C 13.40625 55.765625 25.5 68.421875 30.40625 73.390625 
C 30.40625 73.5 30.59375 73.703125 30.59375 74 
C 30.59375 74.296875 30.296875 74.5 29.90625 74.5 
C 28.796875 74.5 20.296875 67.125 15.40625 56.15625 
C 10.40625 45.109375 9 34.359375 9 24.8125 
C 9 17.625 9.703125 5.484375 15.703125 -7.359375 
C 20.5 -17.734375 28.703125 -25 29.90625 -25 
C 30.40625 -25 30.59375 -24.796875 30.59375 -24.390625 
z
" id="CMR17-40"/>
      <path d="M 36.796875 61.3125 
C 37.703125 65 38.09375 65 42 65 
L 49.203125 65 
C 57.796875 65 64.203125 62.421875 64.203125 54.671875 
C 64.203125 49.609375 61.59375 35 41.5 35 
L 30.203125 35 
z
M 50.703125 33.890625 
C 63.09375 36.578125 72.796875 44.546875 72.796875 53.09375 
C 72.796875 60.84375 64.90625 68 51 68 
L 23.90625 68 
C 21.90625 68 21 68 21 66.03125 
C 21 65 21.703125 65 23.59375 65 
C 29.59375 65 29.59375 64.25 29.59375 63.203125 
C 29.59375 63.015625 29.59375 62.40625 29.203125 60.921875 
L 15.703125 7.484375 
C 14.796875 4 14.59375 3 7.703125 3 
C 5.40625 3 4.703125 3 4.703125 1.109375 
C 4.703125 0.109375 5.796875 0.109375 6.09375 0.109375 
C 7.90625 0.109375 10 0.109375 11.90625 0.109375 
L 23.703125 0.109375 
C 25.5 0.109375 27.59375 0.109375 29.40625 0.109375 
C 30.203125 0.109375 31.296875 0.109375 31.296875 2 
C 31.296875 3 30.40625 3 28.90625 3 
C 22.796875 3 22.796875 3.796875 22.796875 4.78125 
C 22.796875 4.890625 22.796875 5.578125 23 6.359375 
L 29.703125 33 
L 41.703125 33 
C 51.203125 33 53 27.046875 53 23.78125 
C 53 22.296875 52 18.421875 51.296875 15.84375 
C 50.203125 11.296875 49.90625 10.1875 49.90625 8.3125 
C 49.90625 1.28125 55.703125 -2 62.40625 -2 
C 70.5 -2 74 7.828125 74 9.234375 
C 74 9.921875 73.5 10.21875 72.90625 10.21875 
C 72.09375 10.21875 71.90625 9.625 71.703125 8.828125 
C 69.296875 1.78125 65.203125 0 62.703125 0 
C 60.203125 0 58.59375 1.09375 58.59375 5.5625 
C 58.59375 7.953125 59.796875 17 59.90625 17.5 
C 60.40625 21.171875 60.40625 21.5625 60.40625 22.375 
C 60.40625 29.625 54.5 32.703125 50.703125 33.890625 
z
" id="CMMI12-82"/>
      <path d="M 28.09375 66.515625 
C 28.203125 66.921875 28.40625 67.515625 28.40625 68 
C 28.40625 69 27.40625 69 27.203125 69 
C 27.09375 69 23.5 68.640625 21.703125 68.390625 
C 20 68.390625 18.5 68.09375 16.703125 68.09375 
C 14.296875 67.890625 13.59375 67.796875 13.59375 66 
C 13.59375 65 14.59375 65 15.59375 65 
C 20.703125 65 20.703125 64.109375 20.703125 63.125 
C 20.703125 62.734375 20.703125 62.53125 20.203125 60.75 
L 5.90625 3.875 
C 5.5 2.375 5.5 2.1875 5.5 1.578125 
C 5.5 -0.59375 7.203125 -1 8.203125 -1 
C 11 -1 11.59375 1.203125 12.40625 4.296875 
L 17.09375 22.953125 
C 24.296875 22.15625 28.59375 19.15625 28.59375 14.375 
C 28.59375 13.765625 28.59375 13.375 28.296875 11.875 
C 27.90625 10.375 27.90625 9.1875 27.90625 8.6875 
C 27.90625 2.890625 31.703125 -1 36.796875 -1 
C 41.40625 -1 43.796875 3.1875 44.59375 4.59375 
C 46.703125 8.28125 48 13.875 48 14.265625 
C 48 14.765625 47.59375 15.171875 47 15.171875 
C 46.09375 15.171875 46 14.765625 45.59375 13.171875 
C 44.203125 7.984375 42.09375 1 37 1 
C 35 1 33.703125 2 33.703125 5.78125 
C 33.703125 7.6875 34.09375 9.875 34.5 11.375 
C 34.90625 13.171875 34.90625 13.265625 34.90625 14.46875 
C 34.90625 20.359375 29.59375 23.65625 20.40625 24.84375 
C 24 27.046875 27.59375 30.9375 29 32.4375 
C 34.703125 38.8125 38.59375 42.015625 43.203125 42.015625 
C 45.5 42.015625 46.09375 41.40625 46.796875 40.8125 
C 43.09375 40.40625 41.703125 37.8125 41.703125 35.828125 
C 41.703125 33.421875 43.59375 32.625 45 32.625 
C 47.703125 32.625 50.09375 34.921875 50.09375 38.125 
C 50.09375 41.015625 47.796875 44 43.296875 44 
C 37.796875 44 33.296875 40.109375 26.203125 32.125 
C 25.203125 30.9375 21.5 27.140625 17.796875 25.75 
z
" id="CMMI12-107"/>
      <path d="M 67.5 59.5625 
C 68.59375 60.0625 69.40625 60.5625 69.40625 61.75 
C 69.40625 62.859375 68.59375 63.75 67.40625 63.75 
C 66.90625 63.75 66 63.359375 65.59375 63.15625 
L 10.296875 37.0625 
C 8.59375 36.25 8.296875 35.5625 8.296875 34.75 
C 8.296875 33.859375 8.90625 33.15625 10.296875 32.5625 
L 65.59375 6.5625 
C 66.90625 5.859375 67.09375 5.859375 67.40625 5.859375 
C 68.5 5.859375 69.40625 6.75 69.40625 7.859375 
C 69.40625 8.75 69 9.359375 67.296875 10.15625 
L 15 34.75 
z
M 65.90625 -13.921875 
C 67.59375 -13.921875 69.40625 -13.921875 69.40625 -11.921875 
C 69.40625 -9.921875 67.296875 -9.921875 65.796875 -9.921875 
L 11.90625 -9.921875 
C 10.40625 -9.921875 8.296875 -9.921875 8.296875 -11.921875 
C 8.296875 -13.921875 10.09375 -13.921875 11.796875 -13.921875 
z
" id="CMSY10-20"/>
      <path d="M 26.296875 24.703125 
C 26.296875 31.875 25.59375 44.015625 19.59375 56.859375 
C 14.796875 67.234375 6.59375 74.5 5.40625 74.5 
C 5.09375 74.5 4.703125 74.390625 4.703125 73.890625 
C 4.703125 73.703125 4.796875 73.59375 4.90625 73.390625 
C 9.703125 68.40625 21.90625 55.75 21.90625 24.75 
C 21.90625 -6.359375 9.796875 -19.015625 4.90625 -24.015625 
C 4.796875 -24.203125 4.703125 -24.3125 4.703125 -24.5 
C 4.703125 -25 5.09375 -25 5.40625 -25 
C 6.5 -25 15 -17.625 19.90625 -6.65625 
C 24.90625 4.390625 26.296875 15.140625 26.296875 24.703125 
z
" id="CMR17-41"/>
     </defs>
     <g transform="translate(20.98398 195.95347)rotate(-90)scale(0.18 -0.18)">
      <use transform="translate(0 -0.0934)scale(0.996264)" xlink:href="#CMMI12-80"/>
      <use transform="translate(76.425821 -0.0934)scale(0.996264)" xlink:href="#CMR17-40"/>
      <use transform="translate(111.706589 -0.0934)scale(0.996264)" xlink:href="#CMMI12-82"/>
      <use transform="translate(185.957414 -15.037314)scale(0.697382)" xlink:href="#CMMI12-105"/>
      <use transform="translate(209.252322 -15.037314)scale(0.697382)" xlink:href="#CMMI12-107"/>
      <use transform="translate(275.279713 -0.0934)scale(0.996264)" xlink:href="#CMSY10-20"/>
      <use transform="translate(380.441189 -0.0934)scale(0.996264)" xlink:href="#CMR17-49"/>
      <use transform="translate(426.131666 -0.0934)scale(0.996264)" xlink:href="#CMSY10-106"/>
      <use transform="translate(466.971255 1.296712)scale(0.996264)" xlink:href="#CMR17-126"/>
      <use transform="translate(453.805751 -0.0934)scale(0.996264)" xlink:href="#CMMIB10-120"/>
      <use transform="translate(519.462249 -15.037314)scale(0.697382)" xlink:href="#CMMI12-105"/>
      <use transform="translate(543.255288 -0.0934)scale(0.996264)" xlink:href="#CMR17-41"/>
     </g>
    </g>
   </g>
   <g id="line2d_12">
    <path clip-path="url(#p7dfd75e059)" d="M 33.146446 -1 
L 36.781714 6.459703 
L 40.608 13.585504 
L 44.434286 20.128521 
L 48.260571 26.193153 
L 52.086857 31.857991 
L 55.913143 37.183726 
L 59.739429 42.218235 
L 63.565714 46.999971 
L 67.392 51.5603 
L 71.218286 55.92515 
L 75.044571 60.116207 
L 78.870857 64.151799 
L 82.697143 68.047558 
L 86.523429 71.816928 
L 90.349714 75.471558 
L 94.176 79.021609 
L 98.002286 82.476001 
L 101.828571 85.842605 
L 105.654857 89.128407 
L 109.481143 92.339634 
L 113.307429 95.481862 
L 117.133714 98.560103 
L 120.96 101.578882 
L 124.786286 104.542298 
L 128.612571 107.454075 
L 132.438857 110.317607 
L 136.265143 113.135998 
L 140.091429 115.912093 
L 143.917714 118.648507 
L 147.744 121.347649 
L 151.570286 124.011743 
L 155.396571 126.642847 
L 159.222857 129.242871 
L 163.049143 131.813587 
L 166.875429 134.356644 
L 170.701714 136.87358 
L 174.528 139.36583 
L 178.354286 141.834735 
L 182.180571 144.281552 
L 186.006857 146.707455 
L 189.833143 149.113549 
L 193.659429 151.500868 
L 197.485714 153.870385 
L 201.312 156.223013 
L 205.138286 158.559611 
L 208.964571 160.880986 
L 212.790857 163.187896 
L 216.617143 165.481053 
L 220.443429 167.761126 
L 224.269714 170.02874 
L 228.096 172.28448 
L 231.922286 174.528894 
L 235.748571 176.762488 
L 239.574857 178.985732 
L 243.401143 181.199058 
L 247.227429 183.402862 
L 251.053714 185.597501 
L 254.88 187.783293 
L 258.706286 189.960517 
L 262.532571 192.129411 
L 266.358857 194.290169 
L 270.185143 196.442942 
L 274.011429 198.587829 
L 277.837714 200.724879 
L 281.664 202.854083 
L 285.490286 204.975368 
L 289.316571 207.088594 
L 293.142857 209.193542 
L 296.969143 211.289905 
L 300.795429 213.377278 
L 304.621714 215.455145 
L 308.448 217.522857 
L 312.274286 219.579615 
L 316.100571 221.624447 
L 319.926857 223.656172 
L 323.753143 225.673363 
L 327.579429 227.674303 
L 331.405714 229.65692 
L 335.232 231.618713 
L 339.058286 233.556654 
L 342.884571 235.467056 
L 346.710857 237.34541 
L 350.537143 239.186148 
L 354.363429 240.982337 
L 358.189714 242.725234 
L 362.016 244.403655 
L 365.842286 246.003033 
L 369.668571 247.503955 
L 373.494857 248.879799 
L 377.321143 250.092658 
L 381.147429 251.085793 
L 384.973714 251.768554 
" style="fill:none;stroke:#1f77b4;stroke-linecap:square;stroke-width:1.5;"/>
   </g>
   <g id="line2d_13">
    <path clip-path="url(#p7dfd75e059)" d="M 36.67864 -1 
L 36.781714 -0.780966 
L 40.608 7.255091 
L 44.434286 15.190862 
L 48.260571 23.021383 
L 52.086857 30.742116 
L 55.913143 38.348907 
L 59.739429 45.837946 
L 63.565714 53.205737 
L 67.392 60.449071 
L 71.218286 67.565003 
L 75.044571 74.550833 
L 78.870857 81.404087 
L 82.697143 88.122509 
L 86.523429 94.704043 
L 90.349714 101.146828 
L 94.176 107.449183 
L 98.002286 113.609607 
L 101.828571 119.626769 
L 105.654857 125.499501 
L 109.481143 131.226797 
L 113.307429 136.807808 
L 117.133714 142.241838 
L 120.96 147.528342 
L 124.786286 152.666922 
L 128.612571 157.657329 
L 132.438857 162.499458 
L 136.265143 167.193349 
L 140.091429 171.739182 
L 143.917714 176.137282 
L 147.744 180.388113 
L 151.570286 184.49228 
L 155.396571 188.450528 
L 159.222857 192.263743 
L 163.049143 195.932947 
L 166.875429 199.459303 
L 170.701714 202.84411 
L 174.528 206.088805 
L 178.354286 209.194962 
L 182.180571 212.164291 
L 186.006857 214.998636 
L 189.833143 217.699976 
L 193.659429 220.270422 
L 197.485714 222.712217 
L 201.312 225.027732 
L 205.138286 227.219467 
L 208.964571 229.290046 
L 212.790857 231.242218 
L 216.617143 233.078849 
L 220.443429 234.802923 
L 224.269714 236.417537 
L 228.096 237.925896 
L 231.922286 239.331308 
L 235.748571 240.637183 
L 239.574857 241.847021 
L 243.401143 242.964409 
L 247.227429 243.993017 
L 251.053714 244.936584 
L 254.88 245.798915 
L 258.706286 246.58387 
L 262.532571 247.295354 
L 266.358857 247.937309 
L 270.185143 248.513699 
L 274.011429 249.028501 
L 277.837714 249.485691 
L 281.664 249.889232 
L 285.490286 250.243057 
L 289.316571 250.551056 
L 293.142857 250.817059 
L 296.969143 251.044821 
L 300.795429 251.238004 
L 304.621714 251.400159 
L 308.448 251.53471 
L 312.274286 251.644936 
L 316.100571 251.733954 
L 319.926857 251.8047 
L 323.753143 251.859917 
L 327.579429 251.902134 
L 331.405714 251.933662 
L 335.232 251.956576 
L 339.058286 251.97271 
L 342.884571 251.983656 
L 346.710857 251.990759 
L 350.537143 251.995128 
L 354.363429 251.997645 
L 358.189714 251.99898 
L 362.016 251.999617 
L 365.842286 251.999881 
L 369.668571 251.999972 
L 373.494857 251.999996 
L 377.321143 252 
L 381.147429 252 
L 384.973714 252 
" style="fill:none;stroke:#ff7f0e;stroke-linecap:square;stroke-width:1.5;"/>
   </g>
   <g id="line2d_14">
    <path clip-path="url(#p7dfd75e059)" d="M 39.850211 -1 
L 40.608 0.887604 
L 44.434286 10.480207 
L 48.260571 20.108298 
L 52.086857 29.745811 
L 55.913143 39.36686 
L 59.739429 48.945901 
L 63.565714 58.457888 
L 67.392 67.878432 
L 71.218286 77.183938 
L 75.044571 86.351747 
L 78.870857 95.36026 
L 82.697143 104.189054 
L 86.523429 112.818991 
L 90.349714 121.232307 
L 94.176 129.412698 
L 98.002286 137.345388 
L 101.828571 145.017181 
L 105.654857 152.41651 
L 109.481143 159.533463 
L 113.307429 166.359798 
L 117.133714 172.88895 
L 120.96 179.116018 
L 124.786286 185.037742 
L 128.612571 190.652472 
L 132.438857 195.960116 
L 136.265143 200.962091 
L 140.091429 205.661245 
L 143.917714 210.061792 
L 147.744 214.169215 
L 151.570286 217.990183 
L 155.396571 221.532447 
L 159.222857 224.804736 
L 163.049143 227.816647 
L 166.875429 230.578537 
L 170.701714 233.101405 
L 174.528 235.396777 
L 178.354286 237.476598 
L 182.180571 239.353109 
L 186.006857 241.038746 
L 189.833143 242.546028 
L 193.659429 243.887455 
L 197.485714 245.075415 
L 201.312 246.122091 
L 205.138286 247.03938 
L 208.964571 247.838814 
L 212.790857 248.531499 
L 216.617143 249.128054 
L 220.443429 249.63856 
L 224.269714 250.072524 
L 228.096 250.438847 
L 231.922286 250.745802 
L 235.748571 251.001023 
L 239.574857 251.211499 
L 243.401143 251.38358 
L 247.227429 251.52299 
L 251.053714 251.63484 
L 254.88 251.72366 
L 258.706286 251.793422 
L 262.532571 251.84758 
L 266.358857 251.889102 
L 270.185143 251.920514 
L 274.011429 251.94394 
L 277.837714 251.961142 
L 281.664 251.973566 
L 285.490286 251.982378 
L 289.316571 251.988509 
L 293.142857 251.992685 
L 296.969143 251.995464 
L 300.795429 251.997267 
L 304.621714 251.998404 
L 308.448 251.999101 
L 312.274286 251.999512 
L 316.100571 251.999747 
L 319.926857 251.999875 
L 323.753143 251.999942 
L 327.579429 251.999974 
L 331.405714 251.999989 
L 335.232 251.999996 
L 339.058286 251.999999 
L 342.884571 252 
L 346.710857 252 
L 350.537143 252 
L 354.363429 252 
L 358.189714 252 
L 362.016 252 
L 365.842286 252 
L 369.668571 252 
L 373.494857 252 
L 377.321143 252 
L 381.147429 252 
L 384.973714 252 
" style="fill:none;stroke:#2ca02c;stroke-linecap:square;stroke-width:1.5;"/>
   </g>
   <g id="line2d_15">
    <path clip-path="url(#p7dfd75e059)" d="M 35.411236 -1 
L 36.781714 1.587489 
L 40.608 8.862046 
L 44.434286 16.176034 
L 48.260571 23.518287 
L 52.086857 30.877538 
L 55.913143 38.242462 
L 59.739429 45.601713 
L 63.565714 52.943966 
L 67.392 60.257954 
L 71.218286 67.532511 
L 75.044571 74.756612 
L 78.870857 81.919407 
L 82.697143 89.010264 
L 86.523429 96.018804 
L 90.349714 102.934937 
L 94.176 109.748899 
L 98.002286 116.451285 
L 101.828571 123.033079 
L 105.654857 129.485689 
L 109.481143 135.800975 
L 113.307429 141.971272 
L 117.133714 147.989421 
L 120.96 153.84879 
L 124.786286 159.543293 
L 128.612571 165.067414 
L 132.438857 170.416217 
L 136.265143 175.585362 
L 140.091429 180.571121 
L 143.917714 185.370377 
L 147.744 189.980639 
L 151.570286 194.40004 
L 155.396571 198.627336 
L 159.222857 202.661908 
L 163.049143 206.503752 
L 166.875429 210.153472 
L 170.701714 213.612268 
L 174.528 216.881922 
L 178.354286 219.964781 
L 182.180571 222.863735 
L 186.006857 225.582196 
L 189.833143 228.12407 
L 193.659429 230.493732 
L 197.485714 232.695993 
L 201.312 234.736069 
L 205.138286 236.619542 
L 208.964571 238.352327 
L 212.790857 239.940633 
L 216.617143 241.39092 
L 220.443429 242.709859 
L 224.269714 243.90429 
L 228.096 244.981177 
L 231.922286 245.947566 
L 235.748571 246.810541 
L 239.574857 247.577179 
L 243.401143 248.254512 
L 247.227429 248.849476 
L 251.053714 249.368882 
L 254.88 249.819368 
L 258.706286 250.207369 
L 262.532571 250.539079 
L 266.358857 250.820424 
L 270.185143 251.057031 
L 274.011429 251.254207 
L 277.837714 251.416917 
L 281.664 251.549772 
L 285.490286 251.657013 
L 289.316571 251.74251 
L 293.142857 251.809755 
L 296.969143 251.861868 
L 300.795429 251.901607 
L 304.621714 251.931375 
L 308.448 251.95324 
L 312.274286 251.968952 
L 316.100571 251.979973 
L 319.926857 251.987495 
L 323.753143 251.992473 
L 327.579429 251.995655 
L 331.405714 251.997609 
L 335.232 251.998755 
L 339.058286 251.999393 
L 342.884571 251.999725 
L 346.710857 251.999887 
L 350.537143 251.999958 
L 354.363429 251.999987 
L 358.189714 251.999996 
L 362.016 251.999999 
L 365.842286 252 
L 369.668571 252 
L 373.494857 252 
L 377.321143 252 
L 381.147429 252 
L 384.973714 252 
" style="fill:none;stroke:#d62728;stroke-linecap:square;stroke-width:1.5;"/>
   </g>
   <g id="line2d_16">
    <path clip-path="url(#p7dfd75e059)" d="M 44.928606 -1 
L 48.260571 12.061189 
L 52.086857 27.076139 
L 55.913143 42.01248 
L 59.739429 56.777444 
L 63.565714 71.281958 
L 67.392 85.442225 
L 71.218286 99.181072 
L 75.044571 112.429072 
L 78.870857 125.125417 
L 82.697143 137.218558 
L 86.523429 148.666608 
L 90.349714 159.437502 
L 94.176 169.508953 
L 98.002286 178.868185 
L 101.828571 187.511503 
L 105.654857 195.443685 
L 109.481143 202.677254 
L 113.307429 209.231642 
L 117.133714 215.132276 
L 120.96 220.40962 
L 124.786286 225.098198 
L 128.612571 229.235623 
L 132.438857 232.861662 
L 136.265143 236.017338 
L 140.091429 238.74412 
L 143.917714 241.083179 
L 147.744 243.074739 
L 151.570286 244.757537 
L 155.396571 246.168363 
L 159.222857 247.34172 
L 163.049143 248.309567 
L 166.875429 249.101158 
L 170.701714 249.742962 
L 174.528 250.258661 
L 178.354286 250.669198 
L 182.180571 250.992897 
L 186.006857 251.245601 
L 189.833143 251.440861 
L 193.659429 251.590134 
L 197.485714 251.702991 
L 201.312 251.78734 
L 205.138286 251.849628 
L 208.964571 251.895055 
L 212.790857 251.927754 
L 216.617143 251.950973 
L 220.443429 251.967226 
L 224.269714 251.978435 
L 228.096 251.986044 
L 231.922286 251.991125 
L 235.748571 251.994459 
L 239.574857 251.996607 
L 243.401143 251.997965 
L 247.227429 251.998806 
L 251.053714 251.999315 
L 254.88 251.999617 
L 258.706286 251.999791 
L 262.532571 251.999889 
L 266.358857 251.999943 
L 270.185143 251.999972 
L 274.011429 251.999986 
L 277.837714 251.999994 
L 281.664 251.999997 
L 285.490286 251.999999 
L 289.316571 252 
L 293.142857 252 
L 296.969143 252 
L 300.795429 252 
L 304.621714 252 
L 308.448 252 
L 312.274286 252 
L 316.100571 252 
L 319.926857 252 
L 323.753143 252 
L 327.579429 252 
L 331.405714 252 
L 335.232 252 
L 339.058286 252 
L 342.884571 252 
L 346.710857 252 
L 350.537143 252 
L 354.363429 252 
L 358.189714 252 
L 362.016 252 
L 365.842286 252 
L 369.668571 252 
L 373.494857 252 
L 377.321143 252 
L 381.147429 252 
L 384.973714 252 
" style="fill:none;stroke:#000000;stroke-linecap:square;stroke-width:1.5;"/>
   </g>
   <g id="patch_3">
    <path d="M 54 252 
L 54 34.56 
" style="fill:none;stroke:#000000;stroke-linecap:square;stroke-linejoin:miter;stroke-width:0.8;"/>
   </g>
   <g id="patch_4">
    <path d="M 388.8 252 
L 388.8 34.56 
" style="fill:none;stroke:#000000;stroke-linecap:square;stroke-linejoin:miter;stroke-width:0.8;"/>
   </g>
   <g id="patch_5">
    <path d="M 54 252 
L 388.8 252 
" style="fill:none;stroke:#000000;stroke-linecap:square;stroke-linejoin:miter;stroke-width:0.8;"/>
   </g>
   <g id="patch_6">
    <path d="M 54 34.56 
L 388.8 34.56 
" style="fill:none;stroke:#000000;stroke-linecap:square;stroke-linejoin:miter;stroke-width:0.8;"/>
   </g>
   <g id="legend_1">
    <g id="patch_7">
     <path d="M 273.34288 143.371 
L 379 143.371 
Q 381.8 143.371 381.8 140.571 
L 381.8 44.36 
Q 381.8 41.56 379 41.56 
L 273.34288 41.56 
Q 270.54288 41.56 270.54288 44.36 
L 270.54288 140.571 
Q 270.54288 143.371 273.34288 143.371 
z
" style="fill:#ffffff;opacity:0.8;stroke:#cccccc;stroke-linejoin:miter;"/>
    </g>
    <g id="line2d_17">
     <path d="M 276.14288 52.06 
L 304.14288 52.06 
" style="fill:none;stroke:#1f77b4;stroke-linecap:square;stroke-width:1.5;"/>
    </g>
    <g id="line2d_18"/>
    <g id="text_14">
     <!-- 1vR -->
     <defs>
      <path d="M 28.40625 67 
L 26.5 67 
C 21.09375 61.5625 14.796875 60.78125 8.40625 60.78125 
L 8.40625 55 
C 11.296875 55 16 55 20.703125 57.296875 
L 20.703125 5.765625 
L 8.90625 5.765625 
L 8.90625 0 
L 40.203125 0 
L 40.203125 5.765625 
L 28.40625 5.765625 
z
" id="CMSS17-49"/>
      <path d="M 41.796875 43 
L 34 43 
L 27.296875 24.3125 
C 25.203125 18.203125 22.203125 9.796875 21.703125 5.5 
L 21.59375 5.5 
C 21.40625 7.3125 20.59375 9.90625 20.09375 11.703125 
C 19.5 13.90625 18.703125 16.5 18.09375 18.3125 
L 9.296875 43 
L 1.296875 43 
L 17.09375 0 
L 26 0 
z
" id="CMSS17-118"/>
      <path d="M 39.40625 32.953125 
L 39.59375 33.046875 
C 55.203125 38.421875 55.296875 49.171875 55.296875 51.0625 
C 55.296875 60.515625 45.703125 69.578125 31.296875 69.578125 
L 8.90625 69.578125 
L 8.90625 0.5 
L 17.09375 0.5 
L 17.09375 32 
L 31.796875 32 
L 49.5 0.5 
L 57.90625 0.5 
z
M 17.09375 38.078125 
L 17.09375 64 
L 30.203125 64 
C 42.90625 64 47.40625 56.828125 47.40625 51.046875 
C 47.40625 45.65625 43.40625 38.078125 30.203125 38.078125 
z
" id="CMSS17-82"/>
     </defs>
     <g transform="translate(315.34288 56.96)scale(0.14 -0.14)">
      <use transform="scale(0.996264)" xlink:href="#CMSS17-49"/>
      <use transform="translate(46.843624 0)scale(0.996264)" xlink:href="#CMSS17-118"/>
      <use transform="translate(89.843765 0)scale(0.996264)" xlink:href="#CMSS17-82"/>
     </g>
    </g>
    <g id="line2d_19">
     <path d="M 276.14288 71.5822 
L 304.14288 71.5822 
" style="fill:none;stroke:#ff7f0e;stroke-linecap:square;stroke-width:1.5;"/>
    </g>
    <g id="line2d_20"/>
    <g id="text_15">
     <!-- 2vR -->
     <defs>
      <path d="M 25.796875 21.203125 
C 28.59375 24.078125 32.796875 27.5625 35.703125 31.046875 
C 38.5 34.4375 42.203125 39.234375 42.203125 46.203125 
C 42.203125 57.140625 34.796875 67 22.203125 67 
C 12.296875 67 6.59375 60.828125 3.90625 51.15625 
L 7.796875 45.765625 
C 10 54.84375 13.09375 60.625 20.90625 60.625 
C 29.5 60.625 34.296875 53.640625 34.296875 45.96875 
C 34.296875 36.796875 27.296875 29.703125 22 24.421875 
C 16.09375 18.546875 10.296875 12.5625 4.703125 6.375 
L 4.703125 0 
L 42.203125 0 
L 42.203125 6.765625 
L 25.203125 6.765625 
C 24 6.765625 22.796875 6.765625 21.59375 6.765625 
L 11.59375 6.765625 
L 11.59375 6.859375 
z
" id="CMSS17-50"/>
     </defs>
     <g transform="translate(315.34288 76.4822)scale(0.14 -0.14)">
      <use transform="scale(0.996264)" xlink:href="#CMSS17-50"/>
      <use transform="translate(46.843624 0)scale(0.996264)" xlink:href="#CMSS17-118"/>
      <use transform="translate(89.843765 0)scale(0.996264)" xlink:href="#CMSS17-82"/>
     </g>
    </g>
    <g id="line2d_21">
     <path d="M 276.14288 91.1044 
L 304.14288 91.1044 
" style="fill:none;stroke:#2ca02c;stroke-linecap:square;stroke-width:1.5;"/>
    </g>
    <g id="line2d_22"/>
    <g id="text_16">
     <!-- 3vR -->
     <defs>
      <path d="M 15.703125 31.640625 
L 22.5 31.640625 
C 31.90625 31.640625 34.59375 23.546875 34.59375 17.90625 
C 34.59375 10.203125 30.203125 4.171875 23 4.171875 
C 17.40625 4.171875 9.5 6.9375 5 14.25 
C 4.296875 10.796875 4.296875 10.59375 3.90625 8.21875 
C 8.59375 1.375 16.203125 -2 23.203125 -2 
C 34.59375 -2 43 7.390625 43 17.78125 
C 43 25.59375 37.5 32.140625 30 34.609375 
C 36 37.875 40.40625 44 40.40625 51.140625 
C 40.40625 59.453125 32.703125 66.078125 23.296875 66.078125 
C 14.703125 66.078125 8 60.8125 5.203125 55.15625 
C 5.90625 54.1875 7.703125 51.3125 8.59375 49.828125 
C 10.796875 55.65625 16.5 60 23.203125 60 
C 28.796875 60 32.5 56.359375 32.5 51.109375 
C 32.5 45.671875 29 39.734375 23.09375 38.359375 
C 22.703125 38.359375 16.5 37.765625 15.703125 37.671875 
z
" id="CMSS17-51"/>
     </defs>
     <g transform="translate(315.34288 96.0044)scale(0.14 -0.14)">
      <use transform="scale(0.996264)" xlink:href="#CMSS17-51"/>
      <use transform="translate(46.843624 0)scale(0.996264)" xlink:href="#CMSS17-118"/>
      <use transform="translate(89.843765 0)scale(0.996264)" xlink:href="#CMSS17-82"/>
     </g>
    </g>
    <g id="line2d_23">
     <path d="M 276.14288 110.6266 
L 304.14288 110.6266 
" style="fill:none;stroke:#d62728;stroke-linecap:square;stroke-width:1.5;"/>
    </g>
    <g id="line2d_24"/>
    <g id="text_17">
     <!-- 4vR -->
     <defs>
      <path d="M 35.203125 17 
L 44.296875 17 
L 44.296875 23.078125 
L 35.203125 23.078125 
L 35.203125 65.5 
L 26.40625 65.5 
L 2.59375 23.078125 
L 2.59375 17 
L 27.296875 17 
L 27.296875 0 
L 35.203125 0 
z
M 10.296875 23.078125 
C 16.09375 33.234375 27.59375 53.734375 27.59375 60.703125 
L 27.59375 23.078125 
z
" id="CMSS17-52"/>
     </defs>
     <g transform="translate(315.34288 115.5266)scale(0.14 -0.14)">
      <use transform="scale(0.996264)" xlink:href="#CMSS17-52"/>
      <use transform="translate(46.843624 0)scale(0.996264)" xlink:href="#CMSS17-118"/>
      <use transform="translate(89.843765 0)scale(0.996264)" xlink:href="#CMSS17-82"/>
     </g>
    </g>
    <g id="line2d_25">
     <path d="M 276.14288 130.1488 
L 304.14288 130.1488 
" style="fill:none;stroke:#000000;stroke-linecap:square;stroke-width:1.5;"/>
    </g>
    <g id="line2d_26"/>
    <g id="text_18">
     <!-- Exhaustive -->
     <defs>
      <path d="M 30.59375 6.765625 
C 22.59375 6.765625 19 6.765625 17.203125 6.765625 
L 17.203125 32.921875 
L 48.203125 32.921875 
L 48.203125 39 
L 17.203125 39 
L 17.203125 62.640625 
L 30.09375 62.640625 
C 31.296875 62.640625 32.5 62.640625 33.703125 62.640625 
L 50.796875 62.640625 
L 50.796875 69 
L 8.796875 69 
L 8.796875 0 
L 52.09375 0 
L 52.09375 6.765625 
z
" id="CMSS17-69"/>
      <path d="M 24.796875 22.09375 
L 41.5 42.796875 
L 32.796875 42.796875 
L 21.296875 27.765625 
L 9.40625 42.796875 
L 0.5 42.796875 
L 17.796875 22.09375 
L 0 0 
L 8.796875 0 
L 21.296875 17.515625 
L 34.296875 0 
L 43.09375 0 
z
" id="CMSS17-120"/>
      <path d="M 40.90625 29.546875 
C 40.90625 35.8125 39.40625 44.0625 28.09375 44.0625 
C 21.796875 44.0625 17.703125 40.984375 14.796875 37.609375 
L 14.796875 69.5 
L 7.40625 69.5 
L 7.40625 0.5 
L 15 0.5 
L 15 24.578125 
C 15 30.828125 17.40625 38 24.203125 38 
C 33 38 33.296875 32.125 33.296875 28.734375 
L 33.296875 0.5 
L 40.90625 0.5 
z
" id="CMSS17-104"/>
      <path d="M 37.59375 27.984375 
C 37.59375 37.375 30.90625 43.875 21.90625 43.875 
C 17.5 43.875 12.703125 43.078125 7.203125 39.890625 
L 7.796875 33.359375 
C 10.296875 35.125 14.59375 38 21.796875 38 
C 26.90625 38 30 34.0625 30 27.84375 
L 30 24 
C 14 24 4 19.34375 4 11.34375 
C 4 7.203125 6.5 -1 14.796875 -1 
C 16.296875 -1 24.40625 -1 30.203125 3.390625 
L 30.203125 -0.296875 
L 37.59375 -0.296875 
z
M 30 12.75 
C 30 10.953125 30 8.5625 27 6.78125 
C 24.40625 5.078125 21.09375 5.078125 19.703125 5.078125 
C 14.703125 5.078125 11.296875 7.984375 11.296875 11.625 
C 11.296875 18.921875 26.90625 18.921875 30 18.921875 
z
" id="CMSS17-97"/>
      <path d="M 40.90625 42.796875 
L 33.296875 42.796875 
L 33.296875 15.1875 
C 33.296875 7.78125 27.90625 4.78125 22.203125 4.78125 
C 15.59375 4.78125 15 6.984375 15 11.078125 
L 15 42.796875 
L 7.40625 42.796875 
L 7.40625 10.59375 
C 7.40625 2.796875 10.09375 -1 17 -1 
C 20.40625 -1 28.09375 -0.203125 33.5 4.78125 
L 33.5 0 
L 40.90625 0 
z
" id="CMSS17-117"/>
      <path d="M 32.203125 41.046875 
C 26.296875 43.859375 21.703125 43.859375 18.703125 43.859375 
C 11.59375 43.859375 3.09375 41.375 3.09375 31.296875 
C 3.09375 21.234375 14.09375 19.03125 17.09375 18.421875 
C 21.703125 17.53125 26.796875 16.53125 26.796875 11.5625 
C 26.796875 5.265625 19.59375 5.265625 18.296875 5.265625 
C 14.296875 5.265625 8.796875 6.359375 3.796875 9.96875 
L 2.59375 3.28125 
C 8.296875 0 13.796875 -1 18.40625 -1 
C 30.703125 -1 33.796875 6.5 33.796875 12.203125 
C 33.796875 17.09375 31 20.390625 29.09375 21.890625 
C 25.796875 24.5 24.59375 24.796875 16.40625 26.5 
C 15 26.703125 10.09375 27.796875 10.09375 32.28125 
C 10.09375 38 16.40625 38 17.796875 38 
C 24.296875 38 28.296875 35.984375 31 34.5 
z
" id="CMSS17-115"/>
      <path d="M 16.703125 37 
L 29.703125 37 
L 29.703125 42.765625 
L 16.703125 42.765625 
L 16.703125 55 
L 9.59375 55 
L 9.59375 42.765625 
L 1.703125 42.765625 
L 1.703125 37 
L 9.40625 37 
L 9.40625 11.703125 
C 9.40625 6 10.703125 -1 17.296875 -1 
C 22.296875 -1 26.90625 0.390625 31.296875 2.6875 
L 29.703125 8.5625 
C 27.296875 6.46875 24.40625 5.265625 21.296875 5.265625 
C 16.90625 5.265625 16.703125 10.875 16.703125 13.375 
z
" id="CMSS17-116"/>
      <path d="M 15.296875 65.359375 
L 6.90625 65.359375 
L 6.90625 57 
L 15.296875 57 
z
M 14.796875 42.796875 
L 7.40625 42.796875 
L 7.40625 0 
L 14.796875 0 
z
" id="CMSS17-105"/>
      <path d="M 39.09375 21.515625 
C 39.09375 24.84375 38.90625 31.296875 35.703125 36.640625 
C 32.203125 42.390625 26.5 44 22.203125 44 
C 11.796875 44 3 34.1875 3 21.484375 
C 3 9.09375 12.09375 -1 23.59375 -1 
C 28.09375 -1 33.59375 0.296875 38.59375 3.875 
C 38.59375 4.28125 38.40625 6.46875 38.296875 6.5625 
C 38.296875 6.765625 38 9.84375 38 10.25 
C 33.203125 6.359375 27.703125 5.078125 23.703125 5.078125 
C 17.296875 5.078125 10.40625 10.421875 10.09375 21.515625 
z
M 10.90625 27 
C 12.203125 32.5625 16.59375 37.828125 22.203125 37.828125 
C 23.703125 37.828125 30.703125 37.828125 32.5 27 
z
" id="CMSS17-101"/>
     </defs>
     <g transform="translate(315.34288 135.0488)scale(0.14 -0.14)">
      <use transform="scale(0.996264)" xlink:href="#CMSS17-69"/>
      <use transform="translate(55.892013 0)scale(0.996264)" xlink:href="#CMSS17-120"/>
      <use transform="translate(98.892155 0)scale(0.996264)" xlink:href="#CMSS17-104"/>
      <use transform="translate(147.097098 0)scale(0.996264)" xlink:href="#CMSS17-97"/>
      <use transform="translate(192.019019 0)scale(0.996264)" xlink:href="#CMSS17-117"/>
      <use transform="translate(240.223962 0)scale(0.996264)" xlink:href="#CMSS17-115"/>
      <use transform="translate(276.137504 0)scale(0.996264)" xlink:href="#CMSS17-116"/>
      <use transform="translate(309.96907 0)scale(0.996264)" xlink:href="#CMSS17-105"/>
      <use transform="translate(332.149793 0)scale(0.996264)" xlink:href="#CMSS17-118"/>
      <use transform="translate(375.149935 0)scale(0.996264)" xlink:href="#CMSS17-101"/>
     </g>
    </g>
   </g>
  </g>
 </g>
 <defs>
  <clipPath id="p7dfd75e059">
   <rect height="217.44" width="334.8" x="54" y="34.56"/>
  </clipPath>
 </defs>
</svg>
