<?xml version="1.0" encoding="utf-8" standalone="no"?>
<!DOCTYPE svg PUBLIC "-//W3C//DTD SVG 1.1//EN"
  "http://www.w3.org/Graphics/SVG/1.1/DTD/svg11.dtd">
<!-- Created with matplotlib (https://matplotlib.org/) -->
<svg height="269.2844pt" version="1.1" viewBox="0 0 402.7971 269.2844" width="402.7971pt" xmlns="http://www.w3.org/2000/svg" xmlns:xlink="http://www.w3.org/1999/xlink">
 <defs>
  <style type="text/css">
*{stroke-linecap:butt;stroke-linejoin:round;}
  </style>
 </defs>
 <g id="figure_1">
  <g id="patch_1">
   <path d="M 0 269.2844 
L 402.7971 269.2844 
L 402.7971 0 
L 0 0 
z
" style="fill:#ffffff;"/>
  </g>
  <g id="axes_1">
   <g id="patch_2">
    <path d="M 60.7971 224.64 
L 395.5971 224.64 
L 395.5971 7.2 
L 60.7971 7.2 
z
" style="fill:#ffffff;"/>
   </g>
   <g id="matplotlib.axis_1">
    <g id="xtick_1">
     <g id="line2d_1">
      <defs>
       <path d="M 0 0 
L 0 3.5 
" id="m28f4534396" style="stroke:#000000;stroke-width:0.8;"/>
      </defs>
      <g>
       <use style="stroke:#000000;stroke-width:0.8;" x="100.789066" xlink:href="#m28f4534396" y="224.64"/>
      </g>
     </g>
     <g id="text_1">
      <!-- $\mathdefault{0.2}$ -->
      <defs>
       <path d="M 42 31.640625 
C 42 37.75 41.90625 48.125 37.703125 56.109375 
C 34 63.109375 28.09375 65.59375 22.90625 65.59375 
C 18.09375 65.59375 12 63.40625 8.203125 56.203125 
C 4.203125 48.71875 3.796875 39.4375 3.796875 31.640625 
C 3.796875 25.953125 3.90625 17.28125 7 9.671875 
C 11.296875 -0.609375 19 -2 22.90625 -2 
C 27.5 -2 34.5 -0.109375 38.59375 9.375 
C 41.59375 16.28125 42 24.359375 42 31.640625 
z
M 22.90625 -0.40625 
C 16.5 -0.40625 12.703125 5.078125 11.296875 12.6875 
C 10.203125 18.5625 10.203125 27.15625 10.203125 32.75 
C 10.203125 40.4375 10.203125 46.828125 11.5 52.921875 
C 13.40625 61.390625 19 64 22.90625 64 
C 27 64 32.296875 61.296875 34.203125 53.125 
C 35.5 47.4375 35.59375 40.734375 35.59375 32.75 
C 35.59375 26.25 35.59375 18.265625 34.40625 12.375 
C 32.296875 1.484375 26.40625 -0.40625 22.90625 -0.40625 
z
" id="CMR17-48"/>
       <path d="M 18.40625 4.796875 
C 18.40625 7.6875 16 9.671875 13.59375 9.671875 
C 10.703125 9.671875 8.703125 7.28125 8.703125 4.890625 
C 8.703125 2 11.09375 0 13.5 0 
C 16.40625 0 18.40625 2.390625 18.40625 4.796875 
z
" id="CMMI12-58"/>
       <path d="M 41.703125 15.453125 
L 39.90625 15.453125 
C 38.90625 8.375 38.09375 7.171875 37.703125 6.5625 
C 37.203125 5.765625 30 5.765625 28.59375 5.765625 
L 9.40625 5.765625 
C 13 9.671875 20 16.75 28.5 24.953125 
C 34.59375 30.734375 41.703125 37.53125 41.703125 47.421875 
C 41.703125 59.21875 32.296875 66 21.796875 66 
C 10.796875 66 4.09375 56.3125 4.09375 47.34375 
C 4.09375 43.4375 7 42.9375 8.203125 42.9375 
C 9.203125 42.9375 12.203125 43.546875 12.203125 47.03125 
C 12.203125 50.109375 9.59375 51 8.203125 51 
C 7.59375 51 7 50.90625 6.59375 50.703125 
C 8.5 59.21875 14.296875 63.40625 20.40625 63.40625 
C 29.09375 63.40625 34.796875 56.515625 34.796875 47.421875 
C 34.796875 38.734375 29.703125 31.25 24 24.75 
L 4.09375 2.28125 
L 4.09375 0 
L 39.296875 0 
z
" id="CMR17-50"/>
      </defs>
      <g transform="translate(92.031056 241.3622)scale(0.14 -0.14)">
       <use transform="scale(0.996264)" xlink:href="#CMR17-48"/>
       <use transform="translate(45.690477 0)scale(0.996264)" xlink:href="#CMMI12-58"/>
       <use transform="translate(72.787654 0)scale(0.996264)" xlink:href="#CMR17-50"/>
      </g>
     </g>
    </g>
    <g id="xtick_2">
     <g id="line2d_2">
      <g>
       <use style="stroke:#000000;stroke-width:0.8;" x="171.571307" xlink:href="#m28f4534396" y="224.64"/>
      </g>
     </g>
     <g id="text_2">
      <!-- $\mathdefault{0.4}$ -->
      <defs>
       <path d="M 33.59375 64.40625 
C 33.59375 66.5 33.5 66.5 31.703125 66.5 
L 2 19.59375 
L 2 17 
L 27.796875 17 
L 27.796875 7.140625 
C 27.796875 3.5 27.59375 2.5 20.59375 2.5 
L 18.703125 2.5 
L 18.703125 0 
C 21.90625 0 27.296875 0 30.703125 0 
C 34.09375 0 39.5 0 42.703125 0 
L 42.703125 2.5 
L 40.796875 2.5 
C 33.796875 2.5 33.59375 3.5 33.59375 7.140625 
L 33.59375 17 
L 43.796875 17 
L 43.796875 19.59375 
L 33.59375 19.59375 
z
M 28.09375 57.859375 
L 28.09375 19.59375 
L 4 19.59375 
z
" id="CMR17-52"/>
      </defs>
      <g transform="translate(162.813297 241.3622)scale(0.14 -0.14)">
       <use transform="scale(0.996264)" xlink:href="#CMR17-48"/>
       <use transform="translate(45.690477 0)scale(0.996264)" xlink:href="#CMMI12-58"/>
       <use transform="translate(72.787654 0)scale(0.996264)" xlink:href="#CMR17-52"/>
      </g>
     </g>
    </g>
    <g id="xtick_3">
     <g id="line2d_3">
      <g>
       <use style="stroke:#000000;stroke-width:0.8;" x="242.353548" xlink:href="#m28f4534396" y="224.64"/>
      </g>
     </g>
     <g id="text_3">
      <!-- $\mathdefault{0.6}$ -->
      <defs>
       <path d="M 10.59375 34 
C 10.59375 57.65625 21.796875 63 28.296875 63 
C 30.40625 63 35.5 62.640625 37.5 59 
C 35.90625 59 32.90625 59 32.90625 55.515625 
C 32.90625 52.828125 35.09375 51.921875 36.5 51.921875 
C 37.40625 51.921875 40.09375 52.3125 40.09375 55.625 
C 40.09375 61.78125 35.09375 65.296875 28.203125 65.296875 
C 16.296875 65.296875 3.796875 52.96875 3.796875 31 
C 3.796875 3.953125 15.09375 -2 23.09375 -2 
C 32.796875 -2 42 6.671875 42 20.046875 
C 42 32.515625 33.90625 41.59375 23.703125 41.59375 
C 17.59375 41.59375 13.09375 37.609375 10.59375 30.625 
z
M 23.09375 0.390625 
C 10.796875 0.390625 10.796875 18.75 10.796875 22.4375 
C 10.796875 29.625 14.203125 40 23.5 40 
C 25.203125 40 30.09375 40 33.40625 33.125 
C 35.203125 29.21875 35.203125 25.140625 35.203125 20.140625 
C 35.203125 14.75 35.203125 10.78125 33.09375 6.78125 
C 30.90625 2.671875 27.703125 0.390625 23.09375 0.390625 
z
" id="CMR17-54"/>
      </defs>
      <g transform="translate(233.595538 241.3622)scale(0.14 -0.14)">
       <use transform="scale(0.996264)" xlink:href="#CMR17-48"/>
       <use transform="translate(45.690477 0)scale(0.996264)" xlink:href="#CMMI12-58"/>
       <use transform="translate(72.787654 0)scale(0.996264)" xlink:href="#CMR17-54"/>
      </g>
     </g>
    </g>
    <g id="xtick_4">
     <g id="line2d_4">
      <g>
       <use style="stroke:#000000;stroke-width:0.8;" x="313.135789" xlink:href="#m28f4534396" y="224.64"/>
      </g>
     </g>
     <g id="text_4">
      <!-- $\mathdefault{0.8}$ -->
      <defs>
       <path d="M 27.203125 35.375 
C 33.5 38.546875 39.90625 43.328125 39.90625 50.984375 
C 39.90625 60.015625 31.09375 65.296875 23 65.296875 
C 13.90625 65.296875 5.90625 58.734375 5.90625 49.6875 
C 5.90625 47.203125 6.5 42.921875 10.40625 39.140625 
C 11.40625 38.15625 15.59375 35.171875 18.296875 33.28125 
C 13.796875 30.984375 3.296875 25.53125 3.296875 14.59375 
C 3.296875 4.359375 13.09375 -2 22.796875 -2 
C 33.5 -2 42.5 5.65625 42.5 15.78125 
C 42.5 24.84375 36.40625 29.015625 32.40625 31.703125 
z
M 14.09375 44.09375 
C 13.296875 44.59375 9.296875 47.671875 9.296875 52.359375 
C 9.296875 58.421875 15.59375 63 22.796875 63 
C 30.703125 63 36.5 57.4375 36.5 50.96875 
C 36.5 41.703125 26.09375 36.421875 25.59375 36.421875 
C 25.5 36.421875 25.40625 36.421875 24.59375 37.03125 
z
M 32.5 23.734375 
C 34 22.640625 38.796875 19.375 38.796875 13.296875 
C 38.796875 5.953125 31.40625 0.390625 23 0.390625 
C 13.90625 0.390625 7 6.84375 7 14.6875 
C 7 22.546875 13.09375 29.09375 20 32.1875 
z
" id="CMR17-56"/>
      </defs>
      <g transform="translate(304.377779 241.3622)scale(0.14 -0.14)">
       <use transform="scale(0.996264)" xlink:href="#CMR17-48"/>
       <use transform="translate(45.690477 0)scale(0.996264)" xlink:href="#CMMI12-58"/>
       <use transform="translate(72.787654 0)scale(0.996264)" xlink:href="#CMR17-56"/>
      </g>
     </g>
    </g>
    <g id="xtick_5">
     <g id="line2d_5">
      <g>
       <use style="stroke:#000000;stroke-width:0.8;" x="383.91803" xlink:href="#m28f4534396" y="224.64"/>
      </g>
     </g>
     <g id="text_5">
      <!-- $\mathdefault{1.0}$ -->
      <defs>
       <path d="M 26.59375 63.40625 
C 26.59375 65.5 26.5 65.5 25.09375 65.5 
C 21.203125 61.1875 15.296875 59.796875 9.703125 59.796875 
C 9.40625 59.796875 8.90625 59.796875 8.796875 59.5 
C 8.703125 59.296875 8.703125 59.09375 8.703125 57 
C 11.796875 57 17 57.59375 21 59.984375 
L 21 7.203125 
C 21 3.6875 20.796875 2.5 12.203125 2.5 
L 9.203125 2.5 
L 9.203125 0 
C 14 0 19 0 23.796875 0 
C 28.59375 0 33.59375 0 38.40625 0 
L 38.40625 2.5 
L 35.40625 2.5 
C 26.796875 2.5 26.59375 3.59375 26.59375 7.15625 
z
" id="CMR17-49"/>
      </defs>
      <g transform="translate(375.16002 241.3622)scale(0.14 -0.14)">
       <use transform="scale(0.996264)" xlink:href="#CMR17-49"/>
       <use transform="translate(45.690477 0)scale(0.996264)" xlink:href="#CMMI12-58"/>
       <use transform="translate(72.787654 0)scale(0.996264)" xlink:href="#CMR17-48"/>
      </g>
     </g>
    </g>
    <g id="text_6">
     <!-- $\Pr\{c_i|\tilde{\bm{x}}_i\}$ -->
     <defs>
      <path d="M 19.796875 31.90625 
L 35.796875 31.90625 
C 48.703125 31.90625 58.09375 40.28125 58.09375 49.75 
C 58.09375 59.234375 48.90625 68 35.796875 68 
L 5.203125 68 
L 5.203125 65.40625 
C 12.09375 65.40625 13.203125 65.40625 13.203125 60.921875 
L 13.203125 6.96875 
C 13.203125 2.5 12.09375 2.5 5.203125 2.5 
L 5.203125 0 
C 8.09375 0 13.40625 0 16.5 0 
C 19.59375 0 24.90625 0 27.796875 0 
L 27.796875 2.5 
C 20.90625 2.5 19.796875 2.5 19.796875 6.96875 
z
M 19.59375 34 
L 19.59375 61.53125 
C 19.59375 64.921875 19.796875 65.40625 23.796875 65.40625 
L 33.90625 65.40625 
C 46.796875 65.40625 50.5 58.03125 50.5 49.75 
C 50.5 40.6875 46.09375 34 33.90625 34 
z
" id="CMR17-80"/>
      <path d="M 15 23.390625 
C 15 33 19.09375 42 26.59375 42 
C 27.296875 42 28 41.90625 28.703125 41.59375 
C 28.703125 41.59375 26.5 40.890625 26.5 38.3125 
C 26.5 35.90625 28.40625 34.90625 29.90625 34.90625 
C 31.09375 34.90625 33.296875 35.609375 33.296875 38.40625 
C 33.296875 41.609375 30.09375 43.59375 26.703125 43.59375 
C 19.09375 43.59375 15.796875 36.203125 14.796875 32.703125 
L 14.703125 32.703125 
L 14.703125 43.59375 
L 3.09375 42.5 
L 3.09375 39.90625 
C 9 39.90625 9.90625 39.296875 9.90625 34.5 
L 9.90625 6.6875 
C 9.90625 2.875 9.5 2.390625 3.09375 2.390625 
L 3.09375 -0.203125 
C 5.5 0 10.09375 0 12.703125 0 
C 15.59375 0 20.703125 0 23.40625 -0.203125 
L 23.40625 2.390625 
C 16.203125 2.390625 15 2.390625 15 6.875 
z
" id="CMR17-114"/>
      <path d="M 28.296875 61.90625 
C 28.296875 65.953125 30.90625 72.40625 41.796875 72.40625 
C 42.296875 72.53125 42.703125 73 42.703125 73.71875 
C 42.703125 75 41.90625 75 40.796875 75 
C 30.796875 75 21.703125 69.859375 21.59375 62.390625 
L 21.59375 39.40625 
C 21.59375 35.46875 21.59375 32.234375 17.59375 28.921875 
C 14.09375 26 10.296875 26 8.09375 26 
C 7.59375 25.890625 7.203125 25.40625 7.203125 24.6875 
C 7.203125 23.5 7.796875 23.5 8.796875 23.5 
C 15.40625 23.5 20.203125 19.90625 21.296875 15 
C 21.59375 13.90625 21.59375 13.703125 21.59375 10.09375 
L 21.59375 -9.703125 
C 21.59375 -13.90625 21.59375 -17.09375 26.40625 -20.90625 
C 30.296875 -23.90625 36.90625 -25 40.796875 -25 
C 41.90625 -25 42.703125 -25 42.703125 -23.90625 
C 42.703125 -22.703125 42.09375 -22.703125 41.09375 -22.703125 
C 34.796875 -22.703125 29.90625 -19.5 28.59375 -14.375 
C 28.296875 -13.484375 28.296875 -13.28125 28.296875 -9.671875 
L 28.296875 11.359375 
C 28.296875 15.984375 27.5 17.6875 24.296875 20.890625 
C 22.203125 23 19.296875 24 16.5 24.796875 
C 24.703125 27.125 28.296875 31.78125 28.296875 37.640625 
z
" id="CMSY10-102"/>
      <path d="M 39.09375 37.984375 
C 37.203125 37.984375 36.296875 37.984375 34.90625 36.796875 
C 34.296875 36.296875 33.203125 34.796875 33.203125 33.203125 
C 33.203125 31.203125 34.703125 30 36.59375 30 
C 39 30 41.703125 31.9375 41.703125 35.8125 
C 41.703125 40.4375 37.09375 44 30.203125 44 
C 17.09375 44 4 29.734375 4 15.5625 
C 4 6.890625 9.40625 -1 19.59375 -1 
C 33.203125 -1 41.796875 9.71875 41.796875 11.03125 
C 41.796875 11.625 41.203125 12.125 40.796875 12.125 
C 40.5 12.125 40.40625 12.03125 39.5 11.140625 
C 33.09375 2.53125 23.59375 1 19.796875 1 
C 12.90625 1 10.703125 6.96875 10.703125 11.9375 
C 10.703125 15.4375 12.40625 25.078125 16 31.859375 
C 18.59375 36.53125 24 41.90625 30.296875 41.90625 
C 31.59375 41.90625 37.09375 41.90625 39.09375 37.984375 
z
" id="CMMI12-99"/>
      <path d="M 28.296875 14.265625 
C 28.296875 14.765625 27.90625 15.171875 27.296875 15.171875 
C 26.40625 15.171875 26.296875 14.875 25.796875 13.171875 
C 23.203125 4.09375 19.09375 1 15.796875 1 
C 14.59375 1 13.203125 1.296875 13.203125 4.296875 
C 13.203125 6.984375 14.40625 9.984375 15.5 12.96875 
L 22.5 31.53125 
C 22.796875 32.328125 23.5 34.125 23.5 36.015625 
C 23.5 40.21875 20.5 44 15.59375 44 
C 6.40625 44 2.703125 29.53125 2.703125 28.734375 
C 2.703125 28.34375 3.09375 27.84375 3.796875 27.84375 
C 4.703125 27.84375 4.796875 28.234375 5.203125 29.625 
C 7.59375 37.9375 11.40625 41.90625 15.296875 41.90625 
C 16.203125 41.90625 17.90625 41.90625 17.90625 38.71875 
C 17.90625 36.125 16.59375 32.828125 15.796875 30.640625 
L 8.796875 12.078125 
C 8.203125 10.484375 7.59375 8.875 7.59375 7.078125 
C 7.59375 2.59375 10.703125 -1 15.5 -1 
C 24.703125 -1 28.296875 13.578125 28.296875 14.265625 
z
M 27.5 62.703125 
C 27.5 64.203125 26.296875 66 24.09375 66 
C 21.796875 66 19.203125 63.796875 19.203125 61.203125 
C 19.203125 58.71875 21.296875 57.921875 22.5 57.921875 
C 25.203125 57.921875 27.5 60.515625 27.5 62.703125 
z
" id="CMMI12-105"/>
      <path d="M 15.90625 71.40625 
C 15.90625 73.203125 15.90625 75 13.90625 75 
C 11.90625 75 11.90625 73.203125 11.90625 71.40625 
L 11.90625 -21.40625 
C 11.90625 -23.203125 11.90625 -25 13.90625 -25 
C 15.90625 -25 15.90625 -23.203125 15.90625 -21.40625 
z
" id="CMSY10-106"/>
      <path d="M 37.5 65.375 
C 34.09375 62.1875 32.203125 60.390625 29.09375 60.390625 
C 26.90625 60.390625 25.40625 61.4375 23.296875 62.875 
C 21.296875 64.234375 19.703125 65.375 17.5 65.375 
C 13.90625 65.375 11.40625 62.5625 7.203125 58.09375 
L 8.296875 57 
C 11.703125 60.15625 13.59375 62 16.703125 62 
C 18.90625 62 20.40625 60.9375 22.5 59.5 
C 24.5 58.15625 26.09375 57 28.296875 57 
C 31.90625 57 34.40625 59.8125 38.59375 64.28125 
z
" id="CMR17-126"/>
      <path d="M 53.59375 39.90625 
C 50 38.90625 48.203125 35.515625 48.203125 33 
C 48.203125 30.796875 49.90625 28.390625 53.203125 28.390625 
C 56.703125 28.390625 60.40625 31.296875 60.40625 36.1875 
C 60.40625 41.5 55.09375 45 49 45 
C 43.296875 45 39.59375 40.703125 38.296875 38.90625 
C 35.796875 43.109375 30.203125 45 24.5 45 
C 11.90625 45 5.09375 32.6875 5.09375 29.390625 
C 5.09375 28 6.59375 28 7.5 28 
C 8.703125 28 9.40625 28 9.796875 29.296875 
C 12.703125 38.40625 19.90625 41.40625 24 41.40625 
C 27.796875 41.40625 29.59375 39.609375 29.59375 36.40625 
C 29.59375 34.515625 28.203125 29 27.296875 25.40625 
L 23.90625 11.6875 
C 22.40625 5.59375 18.796875 2.578125 15.40625 2.578125 
C 14.90625 2.578125 12.59375 2.578125 10.59375 4.078125 
C 14.203125 5.078125 16 8.484375 16 10.984375 
C 16 13.1875 14.296875 15.59375 11 15.59375 
C 7.5 15.59375 3.796875 12.6875 3.796875 7.796875 
C 3.796875 2.5 9.09375 -1 15.203125 -1 
C 20.90625 -1 24.59375 3.28125 25.90625 5.078125 
C 28.40625 0.890625 34 -1 39.703125 -1 
C 52.296875 -1 59.09375 11.296875 59.09375 14.59375 
C 59.09375 15.984375 57.59375 15.984375 56.703125 15.984375 
C 55.5 15.984375 54.796875 15.984375 54.40625 14.6875 
C 51.5 5.59375 44.296875 2.578125 40.203125 2.578125 
C 36.40625 2.578125 34.59375 4.390625 34.59375 7.59375 
C 34.59375 9.6875 35.90625 14.984375 36.796875 18.6875 
C 37.5 21.296875 39.796875 30.703125 40.296875 32.3125 
C 41.796875 38.3125 45.296875 41.40625 48.796875 41.40625 
C 49.296875 41.40625 51.59375 41.40625 53.59375 39.90625 
z
" id="CMMIB10-120"/>
      <path d="M 21.59375 -12.0625 
C 21.59375 -16.078125 19 -22.5 8.09375 -22.5 
C 7.59375 -22.625 7.203125 -23.0625 7.203125 -23.765625 
C 7.203125 -25 8.296875 -25 9.203125 -25 
C 18.90625 -25 28.203125 -20.109375 28.296875 -12.53125 
L 28.296875 10.234375 
C 28.296875 14.125 28.296875 17.328125 32.296875 20.609375 
C 35.796875 23.5 39.59375 23.5 41.796875 23.5 
C 42.296875 23.609375 42.703125 24.09375 42.703125 24.8125 
C 42.703125 26 42.09375 26 41.09375 26 
C 34.5 26 29.703125 29.625 28.59375 34.59375 
C 28.296875 35.6875 28.296875 35.890625 28.296875 39.546875 
L 28.296875 59.546875 
C 28.296875 63.796875 28.296875 67.015625 23.5 70.859375 
C 19.5 73.984375 12.59375 75 9.203125 75 
C 8.296875 75 7.203125 75 7.203125 73.75 
C 7.203125 72.59375 7.796875 72.59375 8.796875 72.59375 
C 15.09375 72.59375 20 69.359375 21.296875 64.21875 
C 21.59375 63.3125 21.59375 63.109375 21.59375 59.484375 
L 21.59375 38.3125 
C 21.59375 33.671875 22.40625 31.953125 25.59375 28.734375 
C 27.703125 26.609375 30.59375 25.59375 33.40625 24.796875 
C 25.203125 22.484375 21.59375 17.859375 21.59375 12.046875 
z
" id="CMSY10-103"/>
     </defs>
     <g transform="translate(200.414215 258.5844)scale(0.14 -0.14)">
      <use transform="translate(0 -0.0934)scale(0.996264)" xlink:href="#CMR17-80"/>
      <use transform="translate(62.586301 -0.0934)scale(0.996264)" xlink:href="#CMR17-114"/>
      <use transform="translate(97.867068 -0.0934)scale(0.996264)" xlink:href="#CMSY10-102"/>
      <use transform="translate(147.680451 -0.0934)scale(0.996264)" xlink:href="#CMMI12-99"/>
      <use transform="translate(189.663685 -15.037314)scale(0.697382)" xlink:href="#CMMI12-105"/>
      <use transform="translate(213.456724 -0.0934)scale(0.996264)" xlink:href="#CMSY10-106"/>
      <use transform="translate(254.296313 1.296712)scale(0.996264)" xlink:href="#CMR17-126"/>
      <use transform="translate(241.130809 -0.0934)scale(0.996264)" xlink:href="#CMMIB10-120"/>
      <use transform="translate(306.787307 -15.037314)scale(0.697382)" xlink:href="#CMMI12-105"/>
      <use transform="translate(330.580346 -0.0934)scale(0.996264)" xlink:href="#CMSY10-103"/>
     </g>
    </g>
   </g>
   <g id="matplotlib.axis_2">
    <g id="ytick_1">
     <g id="line2d_6">
      <defs>
       <path d="M 0 0 
L -3.5 0 
" id="mdf24c512b7" style="stroke:#000000;stroke-width:0.8;"/>
      </defs>
      <g>
       <use style="stroke:#000000;stroke-width:0.8;" x="60.7971" xlink:href="#mdf24c512b7" y="206.633686"/>
      </g>
     </g>
     <g id="text_7">
      <!-- $\mathdefault{-40}$ -->
      <defs>
       <path d="M 65.90625 23 
C 67.59375 23 69.40625 23 69.40625 25 
C 69.40625 27 67.59375 27 65.90625 27 
L 11.796875 27 
C 10.09375 27 8.296875 27 8.296875 25 
C 8.296875 23 10.09375 23 11.796875 23 
z
" id="CMSY10-0"/>
      </defs>
      <g transform="translate(29.2 211.494786)scale(0.14 -0.14)">
       <use transform="translate(0 -0.031134)scale(0.996264)" xlink:href="#CMSY10-0"/>
       <use transform="translate(77.487468 -0.031134)scale(0.996264)" xlink:href="#CMR17-52"/>
       <use transform="translate(123.177945 -0.031134)scale(0.996264)" xlink:href="#CMR17-48"/>
      </g>
     </g>
    </g>
    <g id="ytick_2">
     <g id="line2d_7">
      <g>
       <use style="stroke:#000000;stroke-width:0.8;" x="60.7971" xlink:href="#mdf24c512b7" y="159.202995"/>
      </g>
     </g>
     <g id="text_8">
      <!-- $\mathdefault{-30}$ -->
      <defs>
       <path d="M 22.09375 33.703125 
C 31 33.703125 34.90625 25.96875 34.90625 17.03125 
C 34.90625 5 28.5 0.390625 22.703125 0.390625 
C 17.40625 0.390625 8.796875 3.03125 6.09375 10.828125 
C 6.59375 10.625 7.09375 10.625 7.59375 10.625 
C 10 10.625 11.796875 12.21875 11.796875 14.8125 
C 11.796875 17.703125 9.59375 19 7.59375 19 
C 5.90625 19 3.296875 18.203125 3.296875 14.46875 
C 3.296875 5.234375 12.296875 -2 22.90625 -2 
C 34 -2 42.5 6.71875 42.5 16.953125 
C 42.5 26.671875 34.5 33.703125 25 34.796875 
C 32.59375 36.375 39.90625 43.0625 39.90625 52.015625 
C 39.90625 59.6875 32 65.296875 23 65.296875 
C 13.90625 65.296875 5.90625 59.828125 5.90625 52.015625 
C 5.90625 48.59375 8.5 48 9.796875 48 
C 11.90625 48 13.703125 49.296875 13.703125 51.890625 
C 13.703125 54.46875 11.90625 55.765625 9.796875 55.765625 
C 9.40625 55.765625 8.90625 55.765625 8.5 55.578125 
C 11.40625 61.859375 19.296875 63 22.796875 63 
C 26.296875 63 32.90625 61.328125 32.90625 51.875 
C 32.90625 49.109375 32.5 44.1875 29.09375 39.84375 
C 26.09375 36 22.703125 36 19.40625 35.6875 
C 18.90625 35.6875 16.59375 35.453125 16.203125 35.453125 
C 15.5 35.359375 15.09375 35.265625 15.09375 34.5 
C 15.09375 33.796875 15.203125 33.703125 17.203125 33.703125 
z
" id="CMR17-51"/>
      </defs>
      <g transform="translate(29.2 164.064095)scale(0.14 -0.14)">
       <use transform="translate(0 -0.031134)scale(0.996264)" xlink:href="#CMSY10-0"/>
       <use transform="translate(77.487468 -0.031134)scale(0.996264)" xlink:href="#CMR17-51"/>
       <use transform="translate(123.177945 -0.031134)scale(0.996264)" xlink:href="#CMR17-48"/>
      </g>
     </g>
    </g>
    <g id="ytick_3">
     <g id="line2d_8">
      <g>
       <use style="stroke:#000000;stroke-width:0.8;" x="60.7971" xlink:href="#mdf24c512b7" y="111.772303"/>
      </g>
     </g>
     <g id="text_9">
      <!-- $\mathdefault{-20}$ -->
      <g transform="translate(29.2 116.633403)scale(0.14 -0.14)">
       <use transform="translate(0 -0.031134)scale(0.996264)" xlink:href="#CMSY10-0"/>
       <use transform="translate(77.487468 -0.031134)scale(0.996264)" xlink:href="#CMR17-50"/>
       <use transform="translate(123.177945 -0.031134)scale(0.996264)" xlink:href="#CMR17-48"/>
      </g>
     </g>
    </g>
    <g id="ytick_4">
     <g id="line2d_9">
      <g>
       <use style="stroke:#000000;stroke-width:0.8;" x="60.7971" xlink:href="#mdf24c512b7" y="64.341611"/>
      </g>
     </g>
     <g id="text_10">
      <!-- $\mathdefault{-10}$ -->
      <g transform="translate(29.2 69.202711)scale(0.14 -0.14)">
       <use transform="translate(0 -0.031134)scale(0.996264)" xlink:href="#CMSY10-0"/>
       <use transform="translate(77.487468 -0.031134)scale(0.996264)" xlink:href="#CMR17-49"/>
       <use transform="translate(123.177945 -0.031134)scale(0.996264)" xlink:href="#CMR17-48"/>
      </g>
     </g>
    </g>
    <g id="ytick_5">
     <g id="line2d_10">
      <g>
       <use style="stroke:#000000;stroke-width:0.8;" x="60.7971" xlink:href="#mdf24c512b7" y="16.910919"/>
      </g>
     </g>
     <g id="text_11">
      <!-- $\mathdefault{0}$ -->
      <g transform="translate(46.943 21.772019)scale(0.14 -0.14)">
       <use transform="scale(0.996264)" xlink:href="#CMR17-48"/>
      </g>
     </g>
    </g>
    <g id="text_12">
     <!-- $r(c_i,c_k|\tilde{\bm{x}}_i)$ -->
     <defs>
      <path d="M 38.90625 40.8125 
C 35.796875 40.21875 34.203125 38.015625 34.203125 35.828125 
C 34.203125 33.421875 36.09375 32.625 37.5 32.625 
C 40.296875 32.625 42.59375 35.03125 42.59375 38.015625 
C 42.59375 41.21875 39.5 44 34.5 44 
C 30.5 44 25.90625 42.203125 21.703125 36.125 
C 21 41.40625 17 44 13 44 
C 9.09375 44 7.09375 41.015625 5.90625 38.8125 
C 4.203125 35.21875 2.703125 29.234375 2.703125 28.734375 
C 2.703125 28.34375 3.09375 27.84375 3.796875 27.84375 
C 4.59375 27.84375 4.703125 27.9375 5.296875 30.234375 
C 6.796875 36.21875 8.703125 42.015625 12.703125 42.015625 
C 15.09375 42.015625 15.796875 40.3125 15.796875 37.421875 
C 15.796875 35.21875 14.796875 31.328125 14.09375 28.234375 
L 11.296875 17.46875 
C 10.90625 15.5625 9.796875 11.078125 9.296875 9.28125 
C 8.59375 6.6875 7.5 2 7.5 1.5 
C 7.5 0.09375 8.59375 -1 10.09375 -1 
C 11.203125 -1 13.09375 -0.296875 13.703125 1.703125 
C 14 2.5 17.703125 17.5625 18.296875 19.859375 
C 18.796875 22.046875 19.40625 24.15625 19.90625 26.34375 
C 20.296875 27.734375 20.703125 29.34375 21 30.640625 
C 21.296875 31.53125 24 36.421875 26.5 38.625 
C 27.703125 39.71875 30.296875 42.015625 34.40625 42.015625 
C 36 42.015625 37.59375 41.71875 38.90625 40.8125 
z
" id="CMMI12-114"/>
      <path d="M 30.59375 -24.390625 
C 30.59375 -24.296875 30.59375 -24.09375 30.296875 -23.796875 
C 25.703125 -19.125 13.40625 -6.359375 13.40625 24.703125 
C 13.40625 55.765625 25.5 68.421875 30.40625 73.390625 
C 30.40625 73.5 30.59375 73.703125 30.59375 74 
C 30.59375 74.296875 30.296875 74.5 29.90625 74.5 
C 28.796875 74.5 20.296875 67.125 15.40625 56.15625 
C 10.40625 45.109375 9 34.359375 9 24.8125 
C 9 17.625 9.703125 5.484375 15.703125 -7.359375 
C 20.5 -17.734375 28.703125 -25 29.90625 -25 
C 30.40625 -25 30.59375 -24.796875 30.59375 -24.390625 
z
" id="CMR17-40"/>
      <path d="M 19.5 -0.484375 
C 19.5 5.359375 17.59375 9.671875 13.5 9.671875 
C 10.296875 9.671875 8.703125 7.078125 8.703125 4.890625 
C 8.703125 2.6875 10.203125 0 13.59375 0 
C 14.90625 0 16 0.40625 16.90625 1.296875 
C 17.09375 1.5 17.203125 1.5 17.296875 1.5 
C 17.5 1.5 17.5 0.078125 17.5 -0.421875 
C 17.5 -3.75 16.90625 -10.296875 11.09375 -16.875 
C 10 -18.078125 10 -18.28125 10 -18.484375 
C 10 -19 10.5 -19.5 11 -19.5 
C 11.796875 -19.5 19.5 -12.046875 19.5 -0.484375 
z
" id="CMMI12-59"/>
      <path d="M 28.09375 66.515625 
C 28.203125 66.921875 28.40625 67.515625 28.40625 68 
C 28.40625 69 27.40625 69 27.203125 69 
C 27.09375 69 23.5 68.640625 21.703125 68.390625 
C 20 68.390625 18.5 68.09375 16.703125 68.09375 
C 14.296875 67.890625 13.59375 67.796875 13.59375 66 
C 13.59375 65 14.59375 65 15.59375 65 
C 20.703125 65 20.703125 64.109375 20.703125 63.125 
C 20.703125 62.734375 20.703125 62.53125 20.203125 60.75 
L 5.90625 3.875 
C 5.5 2.375 5.5 2.1875 5.5 1.578125 
C 5.5 -0.59375 7.203125 -1 8.203125 -1 
C 11 -1 11.59375 1.203125 12.40625 4.296875 
L 17.09375 22.953125 
C 24.296875 22.15625 28.59375 19.15625 28.59375 14.375 
C 28.59375 13.765625 28.59375 13.375 28.296875 11.875 
C 27.90625 10.375 27.90625 9.1875 27.90625 8.6875 
C 27.90625 2.890625 31.703125 -1 36.796875 -1 
C 41.40625 -1 43.796875 3.1875 44.59375 4.59375 
C 46.703125 8.28125 48 13.875 48 14.265625 
C 48 14.765625 47.59375 15.171875 47 15.171875 
C 46.09375 15.171875 46 14.765625 45.59375 13.171875 
C 44.203125 7.984375 42.09375 1 37 1 
C 35 1 33.703125 2 33.703125 5.78125 
C 33.703125 7.6875 34.09375 9.875 34.5 11.375 
C 34.90625 13.171875 34.90625 13.265625 34.90625 14.46875 
C 34.90625 20.359375 29.59375 23.65625 20.40625 24.84375 
C 24 27.046875 27.59375 30.9375 29 32.4375 
C 34.703125 38.8125 38.59375 42.015625 43.203125 42.015625 
C 45.5 42.015625 46.09375 41.40625 46.796875 40.8125 
C 43.09375 40.40625 41.703125 37.8125 41.703125 35.828125 
C 41.703125 33.421875 43.59375 32.625 45 32.625 
C 47.703125 32.625 50.09375 34.921875 50.09375 38.125 
C 50.09375 41.015625 47.796875 44 43.296875 44 
C 37.796875 44 33.296875 40.109375 26.203125 32.125 
C 25.203125 30.9375 21.5 27.140625 17.796875 25.75 
z
" id="CMMI12-107"/>
      <path d="M 26.296875 24.703125 
C 26.296875 31.875 25.59375 44.015625 19.59375 56.859375 
C 14.796875 67.234375 6.59375 74.5 5.40625 74.5 
C 5.09375 74.5 4.703125 74.390625 4.703125 73.890625 
C 4.703125 73.703125 4.796875 73.59375 4.90625 73.390625 
C 9.703125 68.40625 21.90625 55.75 21.90625 24.75 
C 21.90625 -6.359375 9.796875 -19.015625 4.90625 -24.015625 
C 4.796875 -24.203125 4.703125 -24.3125 4.703125 -24.5 
C 4.703125 -25 5.09375 -25 5.40625 -25 
C 6.5 -25 15 -17.625 19.90625 -6.65625 
C 24.90625 4.390625 26.296875 15.140625 26.296875 24.703125 
z
" id="CMR17-41"/>
     </defs>
     <g transform="translate(20.7 154.85344)rotate(-90)scale(0.18 -0.18)">
      <use transform="translate(0 -0.0934)scale(0.996264)" xlink:href="#CMMI12-114"/>
      <use transform="translate(46.670612 -0.0934)scale(0.996264)" xlink:href="#CMR17-40"/>
      <use transform="translate(81.95138 -0.0934)scale(0.996264)" xlink:href="#CMMI12-99"/>
      <use transform="translate(123.934613 -15.037314)scale(0.697382)" xlink:href="#CMMI12-105"/>
      <use transform="translate(147.727653 -0.0934)scale(0.996264)" xlink:href="#CMMI12-59"/>
      <use transform="translate(191.429235 -0.0934)scale(0.996264)" xlink:href="#CMMI12-99"/>
      <use transform="translate(233.412469 -15.037314)scale(0.697382)" xlink:href="#CMMI12-107"/>
      <use transform="translate(271.765851 -0.0934)scale(0.996264)" xlink:href="#CMSY10-106"/>
      <use transform="translate(312.60544 1.296712)scale(0.996264)" xlink:href="#CMR17-126"/>
      <use transform="translate(299.439936 -0.0934)scale(0.996264)" xlink:href="#CMMIB10-120"/>
      <use transform="translate(365.096434 -15.037314)scale(0.697382)" xlink:href="#CMMI12-105"/>
      <use transform="translate(388.889473 -0.0934)scale(0.996264)" xlink:href="#CMR17-41"/>
     </g>
    </g>
   </g>
   <g id="line2d_11">
    <path clip-path="url(#pe881de04e7)" d="M 76.015282 17.083636 
L 79.554394 17.415197 
L 83.093506 17.730501 
L 86.632618 18.031785 
L 90.17173 18.320884 
L 93.710842 18.599323 
L 97.249954 18.868384 
L 100.789066 19.129155 
L 104.328178 19.38257 
L 107.86729 19.629438 
L 111.406402 19.870462 
L 114.945514 20.106264 
L 118.484626 20.337391 
L 122.023738 20.564331 
L 125.562851 20.787523 
L 129.101963 21.007361 
L 132.641075 21.224204 
L 136.180187 21.43838 
L 139.719299 21.650187 
L 143.258411 21.859903 
L 146.797523 22.067785 
L 150.336635 22.274071 
L 153.875747 22.478987 
L 157.414859 22.682743 
L 160.953971 22.88554 
L 164.493083 23.087568 
L 168.032195 23.28901 
L 171.571307 23.49004 
L 175.110419 23.690829 
L 178.649531 23.891542 
L 182.188643 24.092338 
L 185.727755 24.293378 
L 189.266867 24.494815 
L 192.805979 24.696806 
L 196.345092 24.899504 
L 199.884204 25.103063 
L 203.423316 25.30764 
L 206.962428 25.513391 
L 210.50154 25.720476 
L 214.040652 25.929058 
L 217.579764 26.139303 
L 221.118876 26.351383 
L 224.657988 26.565476 
L 228.1971 26.781765 
L 231.736212 27.000443 
L 235.275324 27.221709 
L 238.814436 27.445774 
L 242.353548 27.672859 
L 245.89266 27.903198 
L 249.431772 28.13704 
L 252.970884 28.374648 
L 256.509996 28.616305 
L 260.049108 28.862313 
L 263.588221 29.112998 
L 267.127333 29.36871 
L 270.666445 29.62983 
L 274.205557 29.89677 
L 277.744669 30.169982 
L 281.283781 30.449959 
L 284.822893 30.737244 
L 288.362005 31.032436 
L 291.901117 31.336198 
L 295.440229 31.649271 
L 298.979341 31.97248 
L 302.518453 32.306758 
L 306.057565 32.653154 
L 309.596677 33.012865 
L 313.135789 33.387258 
L 316.674901 33.777911 
L 320.214013 34.186652 
L 323.753125 34.615621 
L 327.292237 35.067347 
L 330.831349 35.544844 
L 334.370462 36.051747 
L 337.909574 36.592501 
L 341.448686 37.172613 
L 344.987798 37.799029 
L 348.52691 38.48068 
L 352.066022 39.229325 
L 355.605134 40.060884 
L 359.144246 40.997676 
L 362.683358 42.072381 
L 366.22247 43.335662 
L 369.761582 44.872386 
L 373.300694 46.841645 
L 376.839806 49.600596 
L 380.378918 54.288879 
" style="fill:none;stroke:#1f77b4;stroke-linecap:square;stroke-width:1.5;"/>
   </g>
   <g id="line2d_12">
    <path clip-path="url(#pe881de04e7)" d="M 76.015282 17.160349 
L 79.554394 17.65383 
L 83.093506 18.140674 
L 86.632618 18.621479 
L 90.17173 19.096794 
L 93.710842 19.567128 
L 97.249954 20.032953 
L 100.789066 20.494708 
L 104.328178 20.952805 
L 107.86729 21.40763 
L 111.406402 21.859549 
L 114.945514 22.308906 
L 118.484626 22.75603 
L 122.023738 23.201233 
L 125.562851 23.644815 
L 129.101963 24.087063 
L 132.641075 24.528257 
L 136.180187 24.968664 
L 139.719299 25.408547 
L 143.258411 25.84816 
L 146.797523 26.287755 
L 150.336635 26.727577 
L 153.875747 27.167868 
L 157.414859 27.60887 
L 160.953971 28.05082 
L 164.493083 28.493958 
L 168.032195 28.938523 
L 171.571307 29.384754 
L 175.110419 29.832893 
L 178.649531 30.283185 
L 182.188643 30.735878 
L 185.727755 31.191225 
L 189.266867 31.649486 
L 192.805979 32.110923 
L 196.345092 32.57581 
L 199.884204 33.044428 
L 203.423316 33.517065 
L 206.962428 33.994024 
L 210.50154 34.475616 
L 214.040652 34.962168 
L 217.579764 35.45402 
L 221.118876 35.951529 
L 224.657988 36.455071 
L 228.1971 36.96504 
L 231.736212 37.481855 
L 235.275324 38.005958 
L 238.814436 38.537817 
L 242.353548 39.077932 
L 245.89266 39.626836 
L 249.431772 40.185099 
L 252.970884 40.753333 
L 256.509996 41.332194 
L 260.049108 41.922392 
L 263.588221 42.524694 
L 267.127333 43.13993 
L 270.666445 43.769006 
L 274.205557 44.412907 
L 277.744669 45.072715 
L 281.283781 45.749614 
L 284.822893 46.444914 
L 288.362005 47.160059 
L 291.901117 47.896658 
L 295.440229 48.656503 
L 298.979341 49.441602 
L 302.518453 50.254217 
L 306.057565 51.096907 
L 309.596677 51.972587 
L 313.135789 52.884593 
L 316.674901 53.836772 
L 320.214013 54.833591 
L 323.753125 55.880282 
L 327.292237 56.983023 
L 330.831349 58.149187 
L 334.370462 59.38767 
L 337.909574 60.709344 
L 341.448686 62.127692 
L 344.987798 63.659716 
L 348.52691 65.327287 
L 352.066022 67.159196 
L 355.605134 69.194434 
L 359.144246 71.487659 
L 362.683358 74.118915 
L 366.22247 77.212292 
L 369.761582 80.975666 
L 373.300694 85.798723 
L 376.839806 92.556306 
L 380.378918 104.03995 
" style="fill:none;stroke:#ff7f0e;stroke-linecap:square;stroke-width:1.5;"/>
   </g>
   <g id="line2d_13">
    <path clip-path="url(#pe881de04e7)" d="M 76.015282 17.227378 
L 79.554394 17.858979 
L 83.093506 18.48904 
L 86.632618 19.117811 
L 90.17173 19.745539 
L 93.710842 20.372465 
L 97.249954 20.998826 
L 100.789066 21.624855 
L 104.328178 22.250782 
L 107.86729 22.876836 
L 111.406402 23.503242 
L 114.945514 24.130225 
L 118.484626 24.75801 
L 122.023738 25.386821 
L 125.562851 26.016883 
L 129.101963 26.648421 
L 132.641075 27.281662 
L 136.180187 27.916835 
L 139.719299 28.554173 
L 143.258411 29.193911 
L 146.797523 29.836285 
L 150.336635 30.481541 
L 153.875747 31.129925 
L 157.414859 31.781691 
L 160.953971 32.437097 
L 164.493083 33.096412 
L 168.032195 33.759908 
L 171.571307 34.427867 
L 175.110419 35.100582 
L 178.649531 35.778354 
L 182.188643 36.461495 
L 185.727755 37.15033 
L 189.266867 37.845196 
L 192.805979 38.546445 
L 196.345092 39.254444 
L 199.884204 39.969578 
L 203.423316 40.692248 
L 206.962428 41.422878 
L 210.50154 42.161911 
L 214.040652 42.909816 
L 217.579764 43.667086 
L 221.118876 44.434242 
L 224.657988 45.211839 
L 228.1971 46.000462 
L 231.736212 46.800736 
L 235.275324 47.613325 
L 238.814436 48.438938 
L 242.353548 49.278333 
L 245.89266 50.132323 
L 249.431772 51.001782 
L 252.970884 51.887649 
L 256.509996 52.790938 
L 260.049108 53.712745 
L 263.588221 54.65426 
L 267.127333 55.616775 
L 270.666445 56.601698 
L 274.205557 57.61057 
L 277.744669 58.645078 
L 281.283781 59.70708 
L 284.822893 60.798625 
L 288.362005 61.921984 
L 291.901117 63.079681 
L 295.440229 64.274535 
L 298.979341 65.509708 
L 302.518453 66.788759 
L 306.057565 68.115725 
L 309.596677 69.495197 
L 313.135789 70.93244 
L 316.674901 72.433523 
L 320.214013 74.0055 
L 323.753125 75.65663 
L 327.292237 77.396672 
L 330.831349 79.237273 
L 334.370462 81.192489 
L 337.909574 83.279501 
L 341.448686 85.519618 
L 344.987798 87.939715 
L 348.52691 90.574362 
L 352.066022 93.469076 
L 355.605134 96.685498 
L 359.144246 100.310043 
L 362.683358 104.469266 
L 366.22247 109.359361 
L 369.761582 115.309003 
L 373.300694 122.934334 
L 376.839806 133.618596 
L 380.378918 151.775585 
" style="fill:none;stroke:#2ca02c;stroke-linecap:square;stroke-width:1.5;"/>
   </g>
   <g id="line2d_14">
    <path clip-path="url(#pe881de04e7)" d="M 76.015282 17.153341 
L 79.554394 17.638247 
L 83.093506 18.123344 
L 86.632618 18.608757 
L 90.17173 19.094616 
L 93.710842 19.581047 
L 97.249954 20.068181 
L 100.789066 20.556147 
L 104.328178 21.045077 
L 107.86729 21.535105 
L 111.406402 22.026364 
L 114.945514 22.518993 
L 118.484626 23.013131 
L 122.023738 23.508918 
L 125.562851 24.0065 
L 129.101963 24.506024 
L 132.641075 25.00764 
L 136.180187 25.511503 
L 139.719299 26.017772 
L 143.258411 26.526609 
L 146.797523 27.03818 
L 150.336635 27.552659 
L 153.875747 28.070222 
L 157.414859 28.591053 
L 160.953971 29.115342 
L 164.493083 29.643285 
L 168.032195 30.175086 
L 171.571307 30.710955 
L 175.110419 31.251114 
L 178.649531 31.79579 
L 182.188643 32.345224 
L 185.727755 32.899663 
L 189.266867 33.45937 
L 192.805979 34.024617 
L 196.345092 34.59569 
L 199.884204 35.172891 
L 203.423316 35.756536 
L 206.962428 36.346958 
L 210.50154 36.944509 
L 214.040652 37.54956 
L 217.579764 38.162504 
L 221.118876 38.783758 
L 224.657988 39.413764 
L 228.1971 40.052993 
L 231.736212 40.701944 
L 235.275324 41.361154 
L 238.814436 42.031192 
L 242.353548 42.712671 
L 245.89266 43.406248 
L 249.431772 44.112628 
L 252.970884 44.832573 
L 256.509996 45.566904 
L 260.049108 46.31651 
L 263.588221 47.082357 
L 267.127333 47.865494 
L 270.666445 48.667066 
L 274.205557 49.488325 
L 277.744669 50.330645 
L 281.283781 51.195538 
L 284.822893 52.084673 
L 288.362005 52.999899 
L 291.901117 53.943274 
L 295.440229 54.917094 
L 298.979341 55.923938 
L 302.518453 56.966709 
L 306.057565 58.048698 
L 309.596677 59.173651 
L 313.135789 60.345864 
L 316.674901 61.570289 
L 320.214013 62.852682 
L 323.753125 64.199784 
L 327.292237 65.61956 
L 330.831349 67.121517 
L 334.370462 68.71713 
L 337.909574 70.420425 
L 341.448686 72.248796 
L 344.987798 74.224186 
L 348.52691 76.374819 
L 352.066022 78.737857 
L 355.605134 81.363627 
L 359.144246 84.322685 
L 362.683358 87.718361 
L 366.22247 91.710845 
L 369.761582 96.568497 
L 373.300694 102.794392 
L 376.839806 111.517942 
L 380.378918 126.342996 
" style="fill:none;stroke:#d62728;stroke-linecap:square;stroke-width:1.5;"/>
   </g>
   <g id="line2d_15">
    <path clip-path="url(#pe881de04e7)" d="M 76.015282 17.40164 
L 79.554394 18.377435 
L 83.093506 19.346533 
L 86.632618 20.309832 
L 90.17173 21.268135 
L 93.710842 22.222167 
L 97.249954 23.172595 
L 100.789066 24.120033 
L 104.328178 25.065056 
L 107.86729 26.008205 
L 111.406402 26.949992 
L 114.945514 27.890908 
L 118.484626 28.831422 
L 122.023738 29.77199 
L 125.562851 30.713052 
L 129.101963 31.65504 
L 132.641075 32.598378 
L 136.180187 33.543483 
L 139.719299 34.490769 
L 143.258411 35.440646 
L 146.797523 36.393526 
L 150.336635 37.34982 
L 153.875747 38.30994 
L 157.414859 39.274306 
L 160.953971 40.243339 
L 164.493083 41.217468 
L 168.032195 42.19713 
L 171.571307 43.182772 
L 175.110419 44.174851 
L 178.649531 45.173837 
L 182.188643 46.180212 
L 185.727755 47.194476 
L 189.266867 48.217146 
L 192.805979 49.248757 
L 196.345092 50.289865 
L 199.884204 51.34105 
L 203.423316 52.402919 
L 206.962428 53.476104 
L 210.50154 54.56127 
L 214.040652 55.659114 
L 217.579764 56.770372 
L 221.118876 57.895819 
L 224.657988 59.036274 
L 228.1971 60.192605 
L 231.736212 61.365735 
L 235.275324 62.556643 
L 238.814436 63.766375 
L 242.353548 64.996048 
L 245.89266 66.246858 
L 249.431772 67.520087 
L 252.970884 68.817116 
L 256.509996 70.139433 
L 260.049108 71.488646 
L 263.588221 72.866498 
L 267.127333 74.274882 
L 270.666445 75.715863 
L 274.205557 77.191695 
L 277.744669 78.704848 
L 281.283781 80.25804 
L 284.822893 81.85427 
L 288.362005 83.496858 
L 291.901117 85.189497 
L 295.440229 86.936306 
L 298.979341 88.741907 
L 302.518453 90.611506 
L 306.057565 92.550997 
L 309.596677 94.567094 
L 313.135789 96.667488 
L 316.674901 98.861048 
L 320.214013 101.158078 
L 323.753125 103.570645 
L 327.292237 106.113005 
L 330.831349 108.802172 
L 334.370462 111.658679 
L 337.909574 114.707623 
L 341.448686 117.98013 
L 344.987798 121.515455 
L 348.52691 125.364095 
L 352.066022 129.592531 
L 355.605134 134.290799 
L 359.144246 139.585118 
L 362.683358 145.660334 
L 366.22247 152.803009 
L 369.761582 161.493207 
L 373.300694 172.630858 
L 376.839806 188.236323 
L 380.378918 214.756364 
" style="fill:none;stroke:#000000;stroke-linecap:square;stroke-width:1.5;"/>
   </g>
   <g id="patch_3">
    <path d="M 60.7971 224.64 
L 60.7971 7.2 
" style="fill:none;stroke:#000000;stroke-linecap:square;stroke-linejoin:miter;stroke-width:0.8;"/>
   </g>
   <g id="patch_4">
    <path d="M 395.5971 224.64 
L 395.5971 7.2 
" style="fill:none;stroke:#000000;stroke-linecap:square;stroke-linejoin:miter;stroke-width:0.8;"/>
   </g>
   <g id="patch_5">
    <path d="M 60.7971 224.64 
L 395.5971 224.64 
" style="fill:none;stroke:#000000;stroke-linecap:square;stroke-linejoin:miter;stroke-width:0.8;"/>
   </g>
   <g id="patch_6">
    <path d="M 60.7971 7.2 
L 395.5971 7.2 
" style="fill:none;stroke:#000000;stroke-linecap:square;stroke-linejoin:miter;stroke-width:0.8;"/>
   </g>
   <g id="legend_1">
    <g id="patch_7">
     <path d="M 70.5971 217.64 
L 176.25422 217.64 
Q 179.05422 217.64 179.05422 214.84 
L 179.05422 118.629 
Q 179.05422 115.829 176.25422 115.829 
L 70.5971 115.829 
Q 67.7971 115.829 67.7971 118.629 
L 67.7971 214.84 
Q 67.7971 217.64 70.5971 217.64 
z
" style="fill:#ffffff;opacity:0.8;stroke:#cccccc;stroke-linejoin:miter;"/>
    </g>
    <g id="line2d_16">
     <path d="M 73.3971 126.329 
L 101.3971 126.329 
" style="fill:none;stroke:#1f77b4;stroke-linecap:square;stroke-width:1.5;"/>
    </g>
    <g id="line2d_17"/>
    <g id="text_13">
     <!-- 1vR -->
     <defs>
      <path d="M 28.40625 67 
L 26.5 67 
C 21.09375 61.5625 14.796875 60.78125 8.40625 60.78125 
L 8.40625 55 
C 11.296875 55 16 55 20.703125 57.296875 
L 20.703125 5.765625 
L 8.90625 5.765625 
L 8.90625 0 
L 40.203125 0 
L 40.203125 5.765625 
L 28.40625 5.765625 
z
" id="CMSS17-49"/>
      <path d="M 41.796875 43 
L 34 43 
L 27.296875 24.3125 
C 25.203125 18.203125 22.203125 9.796875 21.703125 5.5 
L 21.59375 5.5 
C 21.40625 7.3125 20.59375 9.90625 20.09375 11.703125 
C 19.5 13.90625 18.703125 16.5 18.09375 18.3125 
L 9.296875 43 
L 1.296875 43 
L 17.09375 0 
L 26 0 
z
" id="CMSS17-118"/>
      <path d="M 39.40625 32.953125 
L 39.59375 33.046875 
C 55.203125 38.421875 55.296875 49.171875 55.296875 51.0625 
C 55.296875 60.515625 45.703125 69.578125 31.296875 69.578125 
L 8.90625 69.578125 
L 8.90625 0.5 
L 17.09375 0.5 
L 17.09375 32 
L 31.796875 32 
L 49.5 0.5 
L 57.90625 0.5 
z
M 17.09375 38.078125 
L 17.09375 64 
L 30.203125 64 
C 42.90625 64 47.40625 56.828125 47.40625 51.046875 
C 47.40625 45.65625 43.40625 38.078125 30.203125 38.078125 
z
" id="CMSS17-82"/>
     </defs>
     <g transform="translate(112.5971 131.229)scale(0.14 -0.14)">
      <use transform="scale(0.996264)" xlink:href="#CMSS17-49"/>
      <use transform="translate(46.843624 0)scale(0.996264)" xlink:href="#CMSS17-118"/>
      <use transform="translate(89.843765 0)scale(0.996264)" xlink:href="#CMSS17-82"/>
     </g>
    </g>
    <g id="line2d_18">
     <path d="M 73.3971 145.8512 
L 101.3971 145.8512 
" style="fill:none;stroke:#ff7f0e;stroke-linecap:square;stroke-width:1.5;"/>
    </g>
    <g id="line2d_19"/>
    <g id="text_14">
     <!-- 2vR -->
     <defs>
      <path d="M 25.796875 21.203125 
C 28.59375 24.078125 32.796875 27.5625 35.703125 31.046875 
C 38.5 34.4375 42.203125 39.234375 42.203125 46.203125 
C 42.203125 57.140625 34.796875 67 22.203125 67 
C 12.296875 67 6.59375 60.828125 3.90625 51.15625 
L 7.796875 45.765625 
C 10 54.84375 13.09375 60.625 20.90625 60.625 
C 29.5 60.625 34.296875 53.640625 34.296875 45.96875 
C 34.296875 36.796875 27.296875 29.703125 22 24.421875 
C 16.09375 18.546875 10.296875 12.5625 4.703125 6.375 
L 4.703125 0 
L 42.203125 0 
L 42.203125 6.765625 
L 25.203125 6.765625 
C 24 6.765625 22.796875 6.765625 21.59375 6.765625 
L 11.59375 6.765625 
L 11.59375 6.859375 
z
" id="CMSS17-50"/>
     </defs>
     <g transform="translate(112.5971 150.7512)scale(0.14 -0.14)">
      <use transform="scale(0.996264)" xlink:href="#CMSS17-50"/>
      <use transform="translate(46.843624 0)scale(0.996264)" xlink:href="#CMSS17-118"/>
      <use transform="translate(89.843765 0)scale(0.996264)" xlink:href="#CMSS17-82"/>
     </g>
    </g>
    <g id="line2d_20">
     <path d="M 73.3971 165.3734 
L 101.3971 165.3734 
" style="fill:none;stroke:#2ca02c;stroke-linecap:square;stroke-width:1.5;"/>
    </g>
    <g id="line2d_21"/>
    <g id="text_15">
     <!-- 3vR -->
     <defs>
      <path d="M 15.703125 31.640625 
L 22.5 31.640625 
C 31.90625 31.640625 34.59375 23.546875 34.59375 17.90625 
C 34.59375 10.203125 30.203125 4.171875 23 4.171875 
C 17.40625 4.171875 9.5 6.9375 5 14.25 
C 4.296875 10.796875 4.296875 10.59375 3.90625 8.21875 
C 8.59375 1.375 16.203125 -2 23.203125 -2 
C 34.59375 -2 43 7.390625 43 17.78125 
C 43 25.59375 37.5 32.140625 30 34.609375 
C 36 37.875 40.40625 44 40.40625 51.140625 
C 40.40625 59.453125 32.703125 66.078125 23.296875 66.078125 
C 14.703125 66.078125 8 60.8125 5.203125 55.15625 
C 5.90625 54.1875 7.703125 51.3125 8.59375 49.828125 
C 10.796875 55.65625 16.5 60 23.203125 60 
C 28.796875 60 32.5 56.359375 32.5 51.109375 
C 32.5 45.671875 29 39.734375 23.09375 38.359375 
C 22.703125 38.359375 16.5 37.765625 15.703125 37.671875 
z
" id="CMSS17-51"/>
     </defs>
     <g transform="translate(112.5971 170.2734)scale(0.14 -0.14)">
      <use transform="scale(0.996264)" xlink:href="#CMSS17-51"/>
      <use transform="translate(46.843624 0)scale(0.996264)" xlink:href="#CMSS17-118"/>
      <use transform="translate(89.843765 0)scale(0.996264)" xlink:href="#CMSS17-82"/>
     </g>
    </g>
    <g id="line2d_22">
     <path d="M 73.3971 184.8956 
L 101.3971 184.8956 
" style="fill:none;stroke:#d62728;stroke-linecap:square;stroke-width:1.5;"/>
    </g>
    <g id="line2d_23"/>
    <g id="text_16">
     <!-- 4vR -->
     <defs>
      <path d="M 35.203125 17 
L 44.296875 17 
L 44.296875 23.078125 
L 35.203125 23.078125 
L 35.203125 65.5 
L 26.40625 65.5 
L 2.59375 23.078125 
L 2.59375 17 
L 27.296875 17 
L 27.296875 0 
L 35.203125 0 
z
M 10.296875 23.078125 
C 16.09375 33.234375 27.59375 53.734375 27.59375 60.703125 
L 27.59375 23.078125 
z
" id="CMSS17-52"/>
     </defs>
     <g transform="translate(112.5971 189.7956)scale(0.14 -0.14)">
      <use transform="scale(0.996264)" xlink:href="#CMSS17-52"/>
      <use transform="translate(46.843624 0)scale(0.996264)" xlink:href="#CMSS17-118"/>
      <use transform="translate(89.843765 0)scale(0.996264)" xlink:href="#CMSS17-82"/>
     </g>
    </g>
    <g id="line2d_24">
     <path d="M 73.3971 204.4178 
L 101.3971 204.4178 
" style="fill:none;stroke:#000000;stroke-linecap:square;stroke-width:1.5;"/>
    </g>
    <g id="line2d_25"/>
    <g id="text_17">
     <!-- Exhaustive -->
     <defs>
      <path d="M 30.59375 6.765625 
C 22.59375 6.765625 19 6.765625 17.203125 6.765625 
L 17.203125 32.921875 
L 48.203125 32.921875 
L 48.203125 39 
L 17.203125 39 
L 17.203125 62.640625 
L 30.09375 62.640625 
C 31.296875 62.640625 32.5 62.640625 33.703125 62.640625 
L 50.796875 62.640625 
L 50.796875 69 
L 8.796875 69 
L 8.796875 0 
L 52.09375 0 
L 52.09375 6.765625 
z
" id="CMSS17-69"/>
      <path d="M 24.796875 22.09375 
L 41.5 42.796875 
L 32.796875 42.796875 
L 21.296875 27.765625 
L 9.40625 42.796875 
L 0.5 42.796875 
L 17.796875 22.09375 
L 0 0 
L 8.796875 0 
L 21.296875 17.515625 
L 34.296875 0 
L 43.09375 0 
z
" id="CMSS17-120"/>
      <path d="M 40.90625 29.546875 
C 40.90625 35.8125 39.40625 44.0625 28.09375 44.0625 
C 21.796875 44.0625 17.703125 40.984375 14.796875 37.609375 
L 14.796875 69.5 
L 7.40625 69.5 
L 7.40625 0.5 
L 15 0.5 
L 15 24.578125 
C 15 30.828125 17.40625 38 24.203125 38 
C 33 38 33.296875 32.125 33.296875 28.734375 
L 33.296875 0.5 
L 40.90625 0.5 
z
" id="CMSS17-104"/>
      <path d="M 37.59375 27.984375 
C 37.59375 37.375 30.90625 43.875 21.90625 43.875 
C 17.5 43.875 12.703125 43.078125 7.203125 39.890625 
L 7.796875 33.359375 
C 10.296875 35.125 14.59375 38 21.796875 38 
C 26.90625 38 30 34.0625 30 27.84375 
L 30 24 
C 14 24 4 19.34375 4 11.34375 
C 4 7.203125 6.5 -1 14.796875 -1 
C 16.296875 -1 24.40625 -1 30.203125 3.390625 
L 30.203125 -0.296875 
L 37.59375 -0.296875 
z
M 30 12.75 
C 30 10.953125 30 8.5625 27 6.78125 
C 24.40625 5.078125 21.09375 5.078125 19.703125 5.078125 
C 14.703125 5.078125 11.296875 7.984375 11.296875 11.625 
C 11.296875 18.921875 26.90625 18.921875 30 18.921875 
z
" id="CMSS17-97"/>
      <path d="M 40.90625 42.796875 
L 33.296875 42.796875 
L 33.296875 15.1875 
C 33.296875 7.78125 27.90625 4.78125 22.203125 4.78125 
C 15.59375 4.78125 15 6.984375 15 11.078125 
L 15 42.796875 
L 7.40625 42.796875 
L 7.40625 10.59375 
C 7.40625 2.796875 10.09375 -1 17 -1 
C 20.40625 -1 28.09375 -0.203125 33.5 4.78125 
L 33.5 0 
L 40.90625 0 
z
" id="CMSS17-117"/>
      <path d="M 32.203125 41.046875 
C 26.296875 43.859375 21.703125 43.859375 18.703125 43.859375 
C 11.59375 43.859375 3.09375 41.375 3.09375 31.296875 
C 3.09375 21.234375 14.09375 19.03125 17.09375 18.421875 
C 21.703125 17.53125 26.796875 16.53125 26.796875 11.5625 
C 26.796875 5.265625 19.59375 5.265625 18.296875 5.265625 
C 14.296875 5.265625 8.796875 6.359375 3.796875 9.96875 
L 2.59375 3.28125 
C 8.296875 0 13.796875 -1 18.40625 -1 
C 30.703125 -1 33.796875 6.5 33.796875 12.203125 
C 33.796875 17.09375 31 20.390625 29.09375 21.890625 
C 25.796875 24.5 24.59375 24.796875 16.40625 26.5 
C 15 26.703125 10.09375 27.796875 10.09375 32.28125 
C 10.09375 38 16.40625 38 17.796875 38 
C 24.296875 38 28.296875 35.984375 31 34.5 
z
" id="CMSS17-115"/>
      <path d="M 16.703125 37 
L 29.703125 37 
L 29.703125 42.765625 
L 16.703125 42.765625 
L 16.703125 55 
L 9.59375 55 
L 9.59375 42.765625 
L 1.703125 42.765625 
L 1.703125 37 
L 9.40625 37 
L 9.40625 11.703125 
C 9.40625 6 10.703125 -1 17.296875 -1 
C 22.296875 -1 26.90625 0.390625 31.296875 2.6875 
L 29.703125 8.5625 
C 27.296875 6.46875 24.40625 5.265625 21.296875 5.265625 
C 16.90625 5.265625 16.703125 10.875 16.703125 13.375 
z
" id="CMSS17-116"/>
      <path d="M 15.296875 65.359375 
L 6.90625 65.359375 
L 6.90625 57 
L 15.296875 57 
z
M 14.796875 42.796875 
L 7.40625 42.796875 
L 7.40625 0 
L 14.796875 0 
z
" id="CMSS17-105"/>
      <path d="M 39.09375 21.515625 
C 39.09375 24.84375 38.90625 31.296875 35.703125 36.640625 
C 32.203125 42.390625 26.5 44 22.203125 44 
C 11.796875 44 3 34.1875 3 21.484375 
C 3 9.09375 12.09375 -1 23.59375 -1 
C 28.09375 -1 33.59375 0.296875 38.59375 3.875 
C 38.59375 4.28125 38.40625 6.46875 38.296875 6.5625 
C 38.296875 6.765625 38 9.84375 38 10.25 
C 33.203125 6.359375 27.703125 5.078125 23.703125 5.078125 
C 17.296875 5.078125 10.40625 10.421875 10.09375 21.515625 
z
M 10.90625 27 
C 12.203125 32.5625 16.59375 37.828125 22.203125 37.828125 
C 23.703125 37.828125 30.703125 37.828125 32.5 27 
z
" id="CMSS17-101"/>
     </defs>
     <g transform="translate(112.5971 209.3178)scale(0.14 -0.14)">
      <use transform="scale(0.996264)" xlink:href="#CMSS17-69"/>
      <use transform="translate(55.892013 0)scale(0.996264)" xlink:href="#CMSS17-120"/>
      <use transform="translate(98.892155 0)scale(0.996264)" xlink:href="#CMSS17-104"/>
      <use transform="translate(147.097098 0)scale(0.996264)" xlink:href="#CMSS17-97"/>
      <use transform="translate(192.019019 0)scale(0.996264)" xlink:href="#CMSS17-117"/>
      <use transform="translate(240.223962 0)scale(0.996264)" xlink:href="#CMSS17-115"/>
      <use transform="translate(276.137504 0)scale(0.996264)" xlink:href="#CMSS17-116"/>
      <use transform="translate(309.96907 0)scale(0.996264)" xlink:href="#CMSS17-105"/>
      <use transform="translate(332.149793 0)scale(0.996264)" xlink:href="#CMSS17-118"/>
      <use transform="translate(375.149935 0)scale(0.996264)" xlink:href="#CMSS17-101"/>
     </g>
    </g>
   </g>
  </g>
 </g>
 <defs>
  <clipPath id="pe881de04e7">
   <rect height="217.44" width="334.8" x="60.7971" y="7.2"/>
  </clipPath>
 </defs>
</svg>
