<?xml version="1.0" encoding="UTF-8" standalone="no"?>
<svg 
   width="174pt"
   height="244.08pt"
   viewBox="0 0 174 244.08"
   version="1.1"
   id="svg361"
   xmlns:xlink="http://www.w3.org/1999/xlink"
   xmlns="http://www.w3.org/2000/svg"
   xmlns:svg="http://www.w3.org/2000/svg" content="%3Cmxfile%20host%3D%22app.diagrams.net%22%20modified%3D%222022-09-22T01%3A56%3A06.982Z%22%20agent%3D%225.0%20(Windows%20NT%2010.0%3B%20Win64%3B%20x64)%20AppleWebKit%2F537.36%20(KHTML%2C%20like%20Gecko)%20Chrome%2F105.0.0.0%20Safari%2F537.36%22%20etag%3D%22AjkRe1PVXvT-75eOwVhJ%22%20version%3D%2220.3.3%22%20type%3D%22google%22%3E%3Cdiagram%20id%3D%22WMXEVST5Q7AWEFeBwcEq%22%20name%3D%22%E3%83%9A%E3%83%BC%E3%82%B81%22%3E7VpbV9s4EP41Pqd9SI%2FvTh5JgLJb6Nktu708cRRbsdUqlmsrJOHX78iW4msghFyAhQDWjO7zfTMey9Gs0XTxMUVJdMUCTDVTDxaadaqZpuENbLgIzVJqdFsvNGFKAqkrFdfkDquGUjsjAc5qDTljlJOkrvRZHGOf13QoTdm83mzCaH3WBIVyRr1UXPuI4lazbyTgUaHtm16pv8AkjNTMhjsoaqZINZZDZBEK2Lwyl3WmWaOUMV6UposRpsJ6yi7Fgs7X1K4WluKYb9JB9bhFdCY3JxfGl2q3OIDNS5GlPGIhixE9K7XDlM3iAIshdZDKNpeMJaA0QPkTc76USKIZZ6CK%2BJTK2gmL%2BTmaEioYcYHpLebER7JC9jL6ILf3pwzJZqkvF9wvVGLdlTbSAB8xm2KeLqFBiini5LYOKpLcCFftVl3%2FYgRmNXVF5L5kh6KxoqcagqM0xFz2KkGAQmUZpSqHphumfgulP%2BJkJtZyijiCi%2BaM3sHfGJicLadw0bzhQvNOQfe%2BBSjHC163f8ZT9guPGGUpaGIWC1QnhNKGClESxiD6YH4M%2BuEtTgVS9ERWTEkQ5JSYR4Tj6wTlmMwhDrRosjG0Yg68uBdJVas7NUQcCci8dFJD6aKKg5r6euxrqN0DkQK%2F5kkQ6Gz%2FxigKzxiHp%2Fne5gA1PMay2wDZ%2B8LHXYsPecNH1bpHBMhbC9DVG0CydmX9YwDUvgtJXJwRDRjP3lBSteYRURq8obShL%2BnHQ8nsyhaaeXccnIiHFWFairKM%2BFsmzWCidPldWPiDo8Qf0uC5cLqoSUsprbXxNsl2xahdKZjSPTEnt606prbbAKtYeisnP2Zyr6A%2FCBfWYlrsp54rPRNQDW%2FwoZ7YW%2Fq2sLaHsvcHrH1IJ18QXvFxkH7IIUS59HAhKAffeWCokch7XiRqPntsTaHmQNb%2BCOS85LtEjQz66ySD6TUGcvZGBufi66dvd72J9%2BnvPweJdf3VxZ97TldO3mBIFqFEFDka51lYhRxdCVkGS1bEEPj6wBNEYpHZ5X18RilKMpIPVrSICA0u0ZLNuJpGScOYXaIxprJlgCmWy8jHWsud7c98Vjfqhw59jMEO8rhuULpS8DWgwN45QfQL9jmKw03wads%2FSFnyj3I2oUgE3XB6dgtmzaSuI3Hn%2BemsqKR4ovqOGedsKoVUmms1aG4qZwi%2FYLyRiBQO7GYEslHK8Cuap3zEYniIQCQHF6OMz3G2DSnup%2F7DVDkeFdx2nj8kMYKRzywNglBfH%2BVBe0LAv0wXTQXC8ThLcju4VFgrS1BcI4%2F7eybeDwgmCDhPRDwMx%2B8c2L1ABf7Xiu%2FLHlAK86urT24MTayumAM2V0wj6x%2BaWtw8elkeJMT0Rj9ZdMwiRxmnTU1ruh16R%2F7KB5XewYAgE5rfICN4EMXxLpyhefOMWEruRKBUpN6UxINtSGz1H8lhOVppx8cPhyhElBhxPBQP7Nk%2BbmZu18uox%2FmAvuJ9pfReFAUk%2Bhj5v8L8xKHX6Gja%2FVUH0x6UZUfv8J9H%2B%2FB%2B%2FEt4sVnx4uftaJppTRzxebK3CbkyavHTOrGCGv1cfA7jn4u6M1X9y9utu24y3CHctevcQp40%2BvecNL644L43rnhOmyuvNLRbewvtO4%2FNIqp%2BrkTV%2F0MSdKjYrL4uYxw0JhuG9QqDcvbv9yvrBnKa%2Bc2X897v4Ofptd%2Fb5Mio%2Fsqli0DV86N2NK1C7rzAp3gQy29YFYYvv6hmnf0H%3C%2Fdiagram%3E%3C%2Fmxfile%3E">
  <defs
     id="defs91">
    <g
       id="g62">
      <g
         id="glyph-0-0" />
      <g
         id="glyph-0-1">
        <path
           d="M 1.25 0 L 1.25 -9.625 L 2.53125 -9.625 L 2.53125 0 Z M 1.25 0 "
           id="path3" />
      </g>
      <g
         id="glyph-0-2">
        <path
           d="M 0.890625 0 L 0.890625 -6.96875 L 1.953125 -6.96875 L 1.953125 -5.984375 C 2.460938 -6.742188 3.203125 -7.125 4.171875 -7.125 C 4.585938 -7.125 4.972656 -7.046875 5.328125 -6.890625 C 5.679688 -6.742188 5.941406 -6.546875 6.109375 -6.296875 C 6.285156 -6.054688 6.410156 -5.769531 6.484375 -5.4375 C 6.523438 -5.21875 6.546875 -4.832031 6.546875 -4.28125 L 6.546875 0 L 5.359375 0 L 5.359375 -4.234375 C 5.359375 -4.710938 5.3125 -5.070313 5.21875 -5.3125 C 5.132813 -5.550781 4.972656 -5.742188 4.734375 -5.890625 C 4.503906 -6.035156 4.234375 -6.109375 3.921875 -6.109375 C 3.410156 -6.109375 2.972656 -5.945313 2.609375 -5.625 C 2.242188 -5.300781 2.0625 -4.695313 2.0625 -3.8125 L 2.0625 0 Z M 0.890625 0 "
           id="path6" />
      </g>
      <g
         id="glyph-0-3">
        <path
           d="M 0.890625 2.671875 L 0.890625 -6.96875 L 1.96875 -6.96875 L 1.96875 -6.0625 C 2.21875 -6.414063 2.5 -6.679688 2.8125 -6.859375 C 3.132813 -7.035156 3.523438 -7.125 3.984375 -7.125 C 4.578125 -7.125 5.097656 -6.96875 5.546875 -6.65625 C 6.003906 -6.351563 6.347656 -5.921875 6.578125 -5.359375 C 6.816406 -4.804688 6.9375 -4.195313 6.9375 -3.53125 C 6.9375 -2.820313 6.804688 -2.179688 6.546875 -1.609375 C 6.296875 -1.035156 5.925781 -0.597656 5.4375 -0.296875 C 4.945313 0.00390625 4.429688 0.15625 3.890625 0.15625 C 3.503906 0.15625 3.15625 0.0703125 2.84375 -0.09375 C 2.53125 -0.257813 2.269531 -0.46875 2.0625 -0.71875 L 2.0625 2.671875 Z M 1.953125 -3.4375 C 1.953125 -2.539063 2.132813 -1.878906 2.5 -1.453125 C 2.863281 -1.023438 3.300781 -0.8125 3.8125 -0.8125 C 4.34375 -0.8125 4.796875 -1.03125 5.171875 -1.46875 C 5.546875 -1.914063 5.734375 -2.609375 5.734375 -3.546875 C 5.734375 -4.429688 5.546875 -5.09375 5.171875 -5.53125 C 4.804688 -5.976563 4.375 -6.203125 3.875 -6.203125 C 3.363281 -6.203125 2.914063 -5.96875 2.53125 -5.5 C 2.144531 -5.03125 1.953125 -4.34375 1.953125 -3.4375 Z M 1.953125 -3.4375 "
           id="path9" />
      </g>
      <g
         id="glyph-0-4">
        <path
           d="M 5.453125 0 L 5.453125 -1.03125 C 4.910156 -0.238281 4.171875 0.15625 3.234375 0.15625 C 2.828125 0.15625 2.445313 0.078125 2.09375 -0.078125 C 1.738281 -0.234375 1.472656 -0.429688 1.296875 -0.671875 C 1.117188 -0.910156 1 -1.203125 0.9375 -1.546875 C 0.882813 -1.773438 0.859375 -2.144531 0.859375 -2.65625 L 0.859375 -6.96875 L 2.046875 -6.96875 L 2.046875 -3.109375 C 2.046875 -2.484375 2.066406 -2.066406 2.109375 -1.859375 C 2.179688 -1.546875 2.335938 -1.300781 2.578125 -1.125 C 2.828125 -0.945313 3.128906 -0.859375 3.484375 -0.859375 C 3.835938 -0.859375 4.164063 -0.945313 4.46875 -1.125 C 4.78125 -1.3125 5 -1.5625 5.125 -1.875 C 5.257813 -2.1875 5.328125 -2.640625 5.328125 -3.234375 L 5.328125 -6.96875 L 6.515625 -6.96875 L 6.515625 0 Z M 5.453125 0 "
           id="path12" />
      </g>
      <g
         id="glyph-0-5">
        <path
           d="M 3.46875 -1.0625 L 3.640625 -0.015625 C 3.304688 0.0546875 3.007813 0.09375 2.75 0.09375 C 2.3125 0.09375 1.972656 0.0234375 1.734375 -0.109375 C 1.503906 -0.242188 1.34375 -0.421875 1.25 -0.640625 C 1.15625 -0.867188 1.109375 -1.335938 1.109375 -2.046875 L 1.109375 -6.046875 L 0.234375 -6.046875 L 0.234375 -6.96875 L 1.109375 -6.96875 L 1.109375 -8.6875 L 2.28125 -9.40625 L 2.28125 -6.96875 L 3.46875 -6.96875 L 3.46875 -6.046875 L 2.28125 -6.046875 L 2.28125 -1.96875 C 2.28125 -1.632813 2.300781 -1.421875 2.34375 -1.328125 C 2.382813 -1.234375 2.453125 -1.15625 2.546875 -1.09375 C 2.640625 -1.039063 2.773438 -1.015625 2.953125 -1.015625 C 3.078125 -1.015625 3.25 -1.03125 3.46875 -1.0625 Z M 3.46875 -1.0625 "
           id="path15" />
      </g>
      <g
         id="glyph-0-6" />
      <g
         id="glyph-0-7">
        <path
           d="M 1.03125 0 L 1.03125 -9.625 L 4.34375 -9.625 C 5.09375 -9.625 5.664063 -9.578125 6.0625 -9.484375 C 6.613281 -9.359375 7.082031 -9.128906 7.46875 -8.796875 C 7.976563 -8.367188 8.359375 -7.816406 8.609375 -7.140625 C 8.859375 -6.472656 8.984375 -5.710938 8.984375 -4.859375 C 8.984375 -4.128906 8.898438 -3.484375 8.734375 -2.921875 C 8.566406 -2.359375 8.347656 -1.890625 8.078125 -1.515625 C 7.804688 -1.148438 7.507813 -0.859375 7.1875 -0.640625 C 6.875 -0.429688 6.492188 -0.269531 6.046875 -0.15625 C 5.597656 -0.0507813 5.082031 0 4.5 0 Z M 2.3125 -1.140625 L 4.359375 -1.140625 C 4.992188 -1.140625 5.488281 -1.195313 5.84375 -1.3125 C 6.207031 -1.425781 6.5 -1.59375 6.71875 -1.8125 C 7.019531 -2.113281 7.253906 -2.519531 7.421875 -3.03125 C 7.585938 -3.539063 7.671875 -4.15625 7.671875 -4.875 C 7.671875 -5.882813 7.503906 -6.660156 7.171875 -7.203125 C 6.847656 -7.742188 6.453125 -8.101563 5.984375 -8.28125 C 5.640625 -8.414063 5.085938 -8.484375 4.328125 -8.484375 L 2.3125 -8.484375 Z M 2.3125 -1.140625 "
           id="path19" />
      </g>
      <g
         id="glyph-0-8">
        <path
           d="M 5.4375 -0.859375 C 5 -0.484375 4.578125 -0.21875 4.171875 -0.0625 C 3.765625 0.0820313 3.332031 0.15625 2.875 0.15625 C 2.101563 0.15625 1.507813 -0.03125 1.09375 -0.40625 C 0.6875 -0.78125 0.484375 -1.257813 0.484375 -1.84375 C 0.484375 -2.175781 0.5625 -2.484375 0.71875 -2.765625 C 0.875 -3.054688 1.078125 -3.285156 1.328125 -3.453125 C 1.578125 -3.617188 1.859375 -3.75 2.171875 -3.84375 C 2.410156 -3.90625 2.765625 -3.960938 3.234375 -4.015625 C 4.179688 -4.128906 4.878906 -4.265625 5.328125 -4.421875 C 5.335938 -4.585938 5.34375 -4.691406 5.34375 -4.734375 C 5.34375 -5.210938 5.226563 -5.550781 5 -5.75 C 4.695313 -6.007813 4.25 -6.140625 3.65625 -6.140625 C 3.101563 -6.140625 2.691406 -6.039063 2.421875 -5.84375 C 2.160156 -5.65625 1.96875 -5.316406 1.84375 -4.828125 L 0.6875 -4.984375 C 0.789063 -5.472656 0.960938 -5.867188 1.203125 -6.171875 C 1.441406 -6.484375 1.789063 -6.71875 2.25 -6.875 C 2.707031 -7.039063 3.234375 -7.125 3.828125 -7.125 C 4.421875 -7.125 4.90625 -7.050781 5.28125 -6.90625 C 5.65625 -6.769531 5.925781 -6.59375 6.09375 -6.375 C 6.269531 -6.164063 6.394531 -5.898438 6.46875 -5.578125 C 6.507813 -5.378906 6.53125 -5.019531 6.53125 -4.5 L 6.53125 -2.921875 C 6.53125 -1.816406 6.550781 -1.117188 6.59375 -0.828125 C 6.644531 -0.546875 6.75 -0.269531 6.90625 0 L 5.671875 0 C 5.546875 -0.25 5.46875 -0.535156 5.4375 -0.859375 Z M 5.328125 -3.5 C 4.898438 -3.320313 4.257813 -3.171875 3.40625 -3.046875 C 2.914063 -2.984375 2.570313 -2.90625 2.375 -2.8125 C 2.175781 -2.726563 2.019531 -2.597656 1.90625 -2.421875 C 1.800781 -2.253906 1.75 -2.070313 1.75 -1.875 C 1.75 -1.550781 1.863281 -1.285156 2.09375 -1.078125 C 2.332031 -0.867188 2.6875 -0.765625 3.15625 -0.765625 C 3.601563 -0.765625 4.003906 -0.863281 4.359375 -1.0625 C 4.710938 -1.257813 4.972656 -1.535156 5.140625 -1.890625 C 5.265625 -2.148438 5.328125 -2.539063 5.328125 -3.0625 Z M 5.328125 -3.5 "
           id="path22" />
      </g>
      <g
         id="glyph-1-0" />
      <g
         id="glyph-1-1">
        <path
           d="M 0 -0.984375 L -9.625 -0.984375 L -9.625 -4.59375 C -9.625 -5.320313 -9.523438 -5.910156 -9.328125 -6.359375 C -9.128906 -6.804688 -8.828125 -7.15625 -8.421875 -7.40625 C -8.023438 -7.65625 -7.601563 -7.78125 -7.15625 -7.78125 C -6.75 -7.78125 -6.363281 -7.664063 -6 -7.4375 C -5.632813 -7.21875 -5.34375 -6.882813 -5.125 -6.4375 C -4.945313 -7.019531 -4.648438 -7.46875 -4.234375 -7.78125 C -3.828125 -8.09375 -3.34375 -8.25 -2.78125 -8.25 C -2.332031 -8.25 -1.914063 -8.148438 -1.53125 -7.953125 C -1.144531 -7.765625 -0.847656 -7.53125 -0.640625 -7.25 C -0.429688 -6.976563 -0.269531 -6.628906 -0.15625 -6.203125 C -0.0507813 -5.785156 0 -5.269531 0 -4.65625 Z M -5.578125 -2.25 L -5.578125 -4.34375 C -5.578125 -4.90625 -5.613281 -5.304688 -5.6875 -5.546875 C -5.78125 -5.867188 -5.9375 -6.113281 -6.15625 -6.28125 C -6.382813 -6.445313 -6.664063 -6.53125 -7 -6.53125 C -7.320313 -6.53125 -7.601563 -6.453125 -7.84375 -6.296875 C -8.09375 -6.140625 -8.257813 -5.921875 -8.34375 -5.640625 C -8.4375 -5.359375 -8.484375 -4.867188 -8.484375 -4.171875 L -8.484375 -2.25 Z M -1.140625 -2.25 L -1.140625 -4.65625 C -1.140625 -5.0625 -1.15625 -5.347656 -1.1875 -5.515625 C -1.238281 -5.804688 -1.320313 -6.050781 -1.4375 -6.25 C -1.5625 -6.445313 -1.738281 -6.609375 -1.96875 -6.734375 C -2.207031 -6.859375 -2.476563 -6.921875 -2.78125 -6.921875 C -3.144531 -6.921875 -3.457031 -6.828125 -3.71875 -6.640625 C -3.988281 -6.460938 -4.175781 -6.210938 -4.28125 -5.890625 C -4.382813 -5.566406 -4.4375 -5.097656 -4.4375 -4.484375 L -4.4375 -2.25 Z M -1.140625 -2.25 "
           id="path26" />
      </g>
      <g
         id="glyph-1-2">
        <path
           d="M -8.265625 -0.890625 L -9.625 -0.890625 L -9.625 -2.078125 L -8.265625 -2.078125 Z M 0 -0.890625 L -6.96875 -0.890625 L -6.96875 -2.078125 L 0 -2.078125 Z M 0 -0.890625 "
           id="path29" />
      </g>
      <g
         id="glyph-1-3">
        <path
           d="M 0 -0.890625 L -6.96875 -0.890625 L -6.96875 -1.953125 L -5.984375 -1.953125 C -6.742188 -2.460938 -7.125 -3.203125 -7.125 -4.171875 C -7.125 -4.585938 -7.046875 -4.972656 -6.890625 -5.328125 C -6.742188 -5.679688 -6.546875 -5.941406 -6.296875 -6.109375 C -6.054688 -6.285156 -5.769531 -6.410156 -5.4375 -6.484375 C -5.21875 -6.523438 -4.832031 -6.546875 -4.28125 -6.546875 L 0 -6.546875 L 0 -5.359375 L -4.234375 -5.359375 C -4.710938 -5.359375 -5.070313 -5.3125 -5.3125 -5.21875 C -5.550781 -5.132813 -5.742188 -4.972656 -5.890625 -4.734375 C -6.035156 -4.503906 -6.109375 -4.234375 -6.109375 -3.921875 C -6.109375 -3.410156 -5.945313 -2.972656 -5.625 -2.609375 C -5.300781 -2.242188 -4.695313 -2.0625 -3.8125 -2.0625 L 0 -2.0625 Z M 0 -0.890625 "
           id="path32" />
      </g>
      <g
         id="glyph-1-4">
        <path
           d="M -0.859375 -5.4375 C -0.484375 -5 -0.21875 -4.578125 -0.0625 -4.171875 C 0.0820313 -3.765625 0.15625 -3.332031 0.15625 -2.875 C 0.15625 -2.101563 -0.03125 -1.507813 -0.40625 -1.09375 C -0.78125 -0.6875 -1.257813 -0.484375 -1.84375 -0.484375 C -2.175781 -0.484375 -2.484375 -0.5625 -2.765625 -0.71875 C -3.054688 -0.875 -3.285156 -1.078125 -3.453125 -1.328125 C -3.617188 -1.578125 -3.75 -1.859375 -3.84375 -2.171875 C -3.90625 -2.410156 -3.960938 -2.765625 -4.015625 -3.234375 C -4.128906 -4.179688 -4.265625 -4.878906 -4.421875 -5.328125 C -4.585938 -5.335938 -4.691406 -5.34375 -4.734375 -5.34375 C -5.210938 -5.34375 -5.550781 -5.226563 -5.75 -5 C -6.007813 -4.695313 -6.140625 -4.25 -6.140625 -3.65625 C -6.140625 -3.101563 -6.039063 -2.691406 -5.84375 -2.421875 C -5.65625 -2.160156 -5.316406 -1.96875 -4.828125 -1.84375 L -4.984375 -0.6875 C -5.472656 -0.789063 -5.867188 -0.960938 -6.171875 -1.203125 C -6.484375 -1.441406 -6.71875 -1.789063 -6.875 -2.25 C -7.039063 -2.707031 -7.125 -3.234375 -7.125 -3.828125 C -7.125 -4.421875 -7.050781 -4.90625 -6.90625 -5.28125 C -6.769531 -5.65625 -6.59375 -5.925781 -6.375 -6.09375 C -6.164063 -6.269531 -5.898438 -6.394531 -5.578125 -6.46875 C -5.378906 -6.507813 -5.019531 -6.53125 -4.5 -6.53125 L -2.921875 -6.53125 C -1.816406 -6.53125 -1.117188 -6.550781 -0.828125 -6.59375 C -0.546875 -6.644531 -0.269531 -6.75 0 -6.90625 L 0 -5.671875 C -0.25 -5.546875 -0.535156 -5.46875 -0.859375 -5.4375 Z M -3.5 -5.328125 C -3.320313 -4.898438 -3.171875 -4.257813 -3.046875 -3.40625 C -2.984375 -2.914063 -2.90625 -2.570313 -2.8125 -2.375 C -2.726563 -2.175781 -2.597656 -2.019531 -2.421875 -1.90625 C -2.253906 -1.800781 -2.070313 -1.75 -1.875 -1.75 C -1.550781 -1.75 -1.285156 -1.863281 -1.078125 -2.09375 C -0.867188 -2.332031 -0.765625 -2.6875 -0.765625 -3.15625 C -0.765625 -3.601563 -0.863281 -4.003906 -1.0625 -4.359375 C -1.257813 -4.710938 -1.535156 -4.972656 -1.890625 -5.140625 C -2.148438 -5.265625 -2.539063 -5.328125 -3.0625 -5.328125 Z M -3.5 -5.328125 "
           id="path35" />
      </g>
      <g
         id="glyph-1-5">
        <path
           d="M 0 -0.875 L -6.96875 -0.875 L -6.96875 -1.9375 L -5.90625 -1.9375 C -6.40625 -2.207031 -6.734375 -2.457031 -6.890625 -2.6875 C -7.046875 -2.914063 -7.125 -3.164063 -7.125 -3.4375 C -7.125 -3.84375 -7 -4.25 -6.75 -4.65625 L -5.65625 -4.25 C -5.820313 -3.957031 -5.90625 -3.671875 -5.90625 -3.390625 C -5.90625 -3.128906 -5.828125 -2.894531 -5.671875 -2.6875 C -5.515625 -2.476563 -5.300781 -2.332031 -5.03125 -2.25 C -4.601563 -2.113281 -4.140625 -2.046875 -3.640625 -2.046875 L 0 -2.046875 Z M 0 -0.875 "
           id="path38" />
      </g>
      <g
         id="glyph-1-6">
        <path
           d="M 2.6875 -0.828125 L 1.578125 -0.703125 C 1.648438 -0.960938 1.6875 -1.1875 1.6875 -1.375 C 1.6875 -1.632813 1.640625 -1.84375 1.546875 -2 C 1.460938 -2.164063 1.34375 -2.296875 1.1875 -2.390625 C 1.0625 -2.460938 0.765625 -2.582031 0.296875 -2.75 C 0.234375 -2.769531 0.140625 -2.804688 0.015625 -2.859375 L -6.96875 -0.21875 L -6.96875 -1.484375 L -2.9375 -2.9375 C -2.425781 -3.125 -1.882813 -3.289063 -1.3125 -3.4375 C -1.851563 -3.570313 -2.382813 -3.738281 -2.90625 -3.9375 L -6.96875 -5.421875 L -6.96875 -6.59375 L 0.125 -3.953125 C 0.882813 -3.660156 1.410156 -3.4375 1.703125 -3.28125 C 2.085938 -3.070313 2.367188 -2.832031 2.546875 -2.5625 C 2.734375 -2.289063 2.828125 -1.96875 2.828125 -1.59375 C 2.828125 -1.363281 2.78125 -1.109375 2.6875 -0.828125 Z M 2.6875 -0.828125 "
           id="path41" />
      </g>
      <g
         id="glyph-1-7">
        <path
           d="M -3.375 -7.90625 L -3.046875 -9.171875 C -2.003906 -8.898438 -1.207031 -8.414063 -0.65625 -7.71875 C -0.113281 -7.03125 0.15625 -6.1875 0.15625 -5.1875 C 0.15625 -4.15625 -0.0507813 -3.3125 -0.46875 -2.65625 C -0.894531 -2.007813 -1.503906 -1.515625 -2.296875 -1.171875 C -3.097656 -0.835938 -3.957031 -0.671875 -4.875 -0.671875 C -5.882813 -0.671875 -6.757813 -0.859375 -7.5 -1.234375 C -8.25 -1.617188 -8.816406 -2.164063 -9.203125 -2.875 C -9.585938 -3.582031 -9.78125 -4.359375 -9.78125 -5.203125 C -9.78125 -6.171875 -9.535156 -6.984375 -9.046875 -7.640625 C -8.554688 -8.296875 -7.867188 -8.753906 -6.984375 -9.015625 L -6.6875 -7.75 C -7.382813 -7.53125 -7.890625 -7.207031 -8.203125 -6.78125 C -8.523438 -6.351563 -8.6875 -5.820313 -8.6875 -5.1875 C -8.6875 -4.445313 -8.507813 -3.828125 -8.15625 -3.328125 C -7.800781 -2.828125 -7.328125 -2.476563 -6.734375 -2.28125 C -6.140625 -2.082031 -5.523438 -1.984375 -4.890625 -1.984375 C -4.066406 -1.984375 -3.347656 -2.101563 -2.734375 -2.34375 C -2.128906 -2.582031 -1.675781 -2.953125 -1.375 -3.453125 C -1.070313 -3.953125 -0.921875 -4.492188 -0.921875 -5.078125 C -0.921875 -5.796875 -1.125 -6.398438 -1.53125 -6.890625 C -1.945313 -7.390625 -2.5625 -7.726563 -3.375 -7.90625 Z M -3.375 -7.90625 "
           id="path44" />
      </g>
      <g
         id="glyph-1-8">
        <path
           d="M 0 -0.859375 L -9.625 -0.859375 L -9.625 -2.046875 L 0 -2.046875 Z M 0 -0.859375 "
           id="path47" />
      </g>
      <g
         id="glyph-1-9">
        <path
           d="M -2.078125 -0.40625 L -2.265625 -1.578125 C -1.796875 -1.648438 -1.4375 -1.832031 -1.1875 -2.125 C -0.9375 -2.425781 -0.8125 -2.847656 -0.8125 -3.390625 C -0.8125 -3.929688 -0.921875 -4.332031 -1.140625 -4.59375 C -1.359375 -4.851563 -1.617188 -4.984375 -1.921875 -4.984375 C -2.191406 -4.984375 -2.398438 -4.867188 -2.546875 -4.640625 C -2.648438 -4.472656 -2.785156 -4.070313 -2.953125 -3.4375 C -3.171875 -2.5625 -3.359375 -1.957031 -3.515625 -1.625 C -3.679688 -1.289063 -3.90625 -1.035156 -4.1875 -0.859375 C -4.46875 -0.691406 -4.78125 -0.609375 -5.125 -0.609375 C -5.425781 -0.609375 -5.707031 -0.675781 -5.96875 -0.8125 C -6.238281 -0.957031 -6.460938 -1.15625 -6.640625 -1.40625 C -6.773438 -1.59375 -6.890625 -1.84375 -6.984375 -2.15625 C -7.078125 -2.46875 -7.125 -2.804688 -7.125 -3.171875 C -7.125 -3.722656 -7.046875 -4.203125 -6.890625 -4.609375 C -6.734375 -5.023438 -6.519531 -5.332031 -6.25 -5.53125 C -5.976563 -5.726563 -5.617188 -5.863281 -5.171875 -5.9375 L -5.015625 -4.78125 C -5.367188 -4.726563 -5.644531 -4.578125 -5.84375 -4.328125 C -6.050781 -4.078125 -6.15625 -3.722656 -6.15625 -3.265625 C -6.15625 -2.722656 -6.0625 -2.332031 -5.875 -2.09375 C -5.695313 -1.863281 -5.488281 -1.75 -5.25 -1.75 C -5.101563 -1.75 -4.96875 -1.796875 -4.84375 -1.890625 C -4.71875 -1.992188 -4.613281 -2.144531 -4.53125 -2.34375 C -4.488281 -2.46875 -4.382813 -2.816406 -4.21875 -3.390625 C -4 -4.222656 -3.816406 -4.804688 -3.671875 -5.140625 C -3.535156 -5.472656 -3.332031 -5.734375 -3.0625 -5.921875 C -2.789063 -6.109375 -2.453125 -6.203125 -2.046875 -6.203125 C -1.648438 -6.203125 -1.273438 -6.085938 -0.921875 -5.859375 C -0.578125 -5.628906 -0.3125 -5.296875 -0.125 -4.859375 C 0.0625 -4.429688 0.15625 -3.941406 0.15625 -3.390625 C 0.15625 -2.484375 -0.03125 -1.789063 -0.40625 -1.3125 C -0.78125 -0.84375 -1.335938 -0.539063 -2.078125 -0.40625 Z M -2.078125 -0.40625 "
           id="path50" />
      </g>
      <g
         id="glyph-1-10">
        <path
           d="M 0 -1.171875 L -6.046875 -1.171875 L -6.046875 -0.125 L -6.96875 -0.125 L -6.96875 -1.171875 L -7.703125 -1.171875 C -8.171875 -1.171875 -8.519531 -1.210938 -8.75 -1.296875 C -9.0625 -1.410156 -9.3125 -1.609375 -9.5 -1.890625 C -9.6875 -2.179688 -9.78125 -2.582031 -9.78125 -3.09375 C -9.78125 -3.425781 -9.742188 -3.796875 -9.671875 -4.203125 L -8.640625 -4.015625 C -8.679688 -3.773438 -8.703125 -3.546875 -8.703125 -3.328125 C -8.703125 -2.960938 -8.625 -2.707031 -8.46875 -2.5625 C -8.3125 -2.414063 -8.023438 -2.34375 -7.609375 -2.34375 L -6.96875 -2.34375 L -6.96875 -3.703125 L -6.046875 -3.703125 L -6.046875 -2.34375 L 0 -2.34375 Z M 0 -1.171875 "
           id="path53" />
      </g>
      <g
         id="glyph-1-11">
        <path
           d="M -2.25 -5.65625 L -2.09375 -6.875 C -1.382813 -6.6875 -0.832031 -6.332031 -0.4375 -5.8125 C -0.0390625 -5.289063 0.15625 -4.625 0.15625 -3.8125 C 0.15625 -2.789063 -0.15625 -1.976563 -0.78125 -1.375 C -1.40625 -0.78125 -2.285156 -0.484375 -3.421875 -0.484375 C -4.597656 -0.484375 -5.507813 -0.785156 -6.15625 -1.390625 C -6.800781 -1.992188 -7.125 -2.78125 -7.125 -3.75 C -7.125 -4.675781 -6.804688 -5.4375 -6.171875 -6.03125 C -5.535156 -6.625 -4.644531 -6.921875 -3.5 -6.921875 C -3.425781 -6.921875 -3.320313 -6.914063 -3.1875 -6.90625 L -3.1875 -1.71875 C -2.414063 -1.757813 -1.828125 -1.972656 -1.421875 -2.359375 C -1.015625 -2.753906 -0.8125 -3.238281 -0.8125 -3.8125 C -0.8125 -4.25 -0.925781 -4.617188 -1.15625 -4.921875 C -1.382813 -5.234375 -1.75 -5.476563 -2.25 -5.65625 Z M -4.15625 -1.78125 L -4.15625 -5.671875 C -4.738281 -5.617188 -5.175781 -5.46875 -5.46875 -5.21875 C -5.925781 -4.84375 -6.15625 -4.359375 -6.15625 -3.765625 C -6.15625 -3.222656 -5.972656 -2.765625 -5.609375 -2.390625 C -5.242188 -2.023438 -4.757813 -1.820313 -4.15625 -1.78125 Z M -4.15625 -1.78125 "
           id="path56" />
      </g>
      <g
         id="glyph-1-12" />
      <g
         id="glyph-2-0" />
      <g
         id="glyph-2-1" />
    </g>
    <clipPath
       id="clip-0">
      <path
         clip-rule="nonzero"
         d="M 0 0 L 174 0 L 174 243.449219 L 0 243.449219 Z M 0 0 "
         id="path64" />
    </clipPath>
    <clipPath
       id="clip-1">
      <path
         clip-rule="nonzero"
         d="M 36.59375 67 L 52.273438 67 L 52.273438 77 L 36.59375 77 Z M 36.59375 67 "
         id="path67" />
    </clipPath>
    <clipPath
       id="clip-2">
      <path
         clip-rule="nonzero"
         d="M 64.597656 76 L 80 76 L 80 187.070313 L 64.597656 187.070313 Z M 64.597656 76 "
         id="path70" />
    </clipPath>
    <clipPath
       id="clip-3">
      <path
         clip-rule="nonzero"
         d="M 64.597656 67 L 80.277344 67 L 80.277344 77 L 64.597656 77 Z M 64.597656 67 "
         id="path73" />
    </clipPath>
    <clipPath
       id="clip-4">
      <path
         clip-rule="nonzero"
         d="M 76 61.609375 L 77 61.609375 L 77 62 L 76 62 Z M 76 61.609375 "
         id="path76" />
    </clipPath>
    <clipPath
       id="clip-5">
      <path
         clip-rule="nonzero"
         d="M 91.105469 123 L 109 123 L 109 127 L 91.105469 127 Z M 91.105469 123 "
         id="path79" />
    </clipPath>
    <clipPath
       id="clip-6">
      <path
         clip-rule="nonzero"
         d="M 120.605469 69 L 136.289063 69 L 136.289063 79 L 120.605469 79 Z M 120.605469 69 "
         id="path82" />
    </clipPath>
    <clipPath
       id="clip-7">
      <path
         clip-rule="nonzero"
         d="M 126 59.367188 L 136 59.367188 L 136 71 L 126 71 Z M 126 59.367188 "
         id="path85" />
    </clipPath>
    <clipPath
       id="clip-8">
      <path
         clip-rule="nonzero"
         d="M 132 59.367188 L 133 59.367188 L 133 60 L 132 60 Z M 132 59.367188 "
         id="path88" />
    </clipPath>
  </defs>
  <g
     clip-path="url(#clip-0)"
     id="g95">
    <path
       fill-rule="nonzero"
       fill="#ffffff"
       fill-opacity="1"
       d="M 0,0 H 174 V 243.44922 H 0 Z m 0,0"
       id="path93" />
  </g>
  <path
     fill="none"
     stroke-width="1"
     stroke-linecap="butt"
     stroke-linejoin="miter"
     stroke="rgb(0%, 0%, 0%)"
     stroke-opacity="1"
     stroke-miterlimit="10"
     d="M 115.000932 31.998858 L 115.000932 65.627566 "
     transform="matrix(0.746781, 0, 0, 0.746781, 0.373391, 0.373391)"
     id="path97" />
  <path
     fill-rule="nonzero"
     fill="rgb(0%, 0%, 0%)"
     fill-opacity="1"
     stroke-width="1"
     stroke-linecap="butt"
     stroke-linejoin="miter"
     stroke="rgb(0%, 0%, 0%)"
     stroke-opacity="1"
     stroke-miterlimit="10"
     d="M 115.000932 70.879273 L 111.501538 63.880484 L 115.000932 65.627566 L 118.500326 63.880484 Z M 115.000932 70.879273 "
     transform="matrix(0.746781, 0, 0, 0.746781, 0.373391, 0.373391)"
     id="path99" />
  <g
     fill="#000000"
     fill-opacity="1"
     id="g123">
    <use
       xlink:href="#glyph-0-1"
       x="47.805656"
       y="20.909868"
       id="use101" />
    <use
       xlink:href="#glyph-0-2"
       x="51.540291"
       y="20.909868"
       id="use103" />
    <use
       xlink:href="#glyph-0-3"
       x="59.016121"
       y="20.909868"
       id="use105" />
    <use
       xlink:href="#glyph-0-4"
       x="66.491951"
       y="20.909868"
       id="use107" />
    <use
       xlink:href="#glyph-0-5"
       x="73.967789"
       y="20.909868"
       id="use109" />
    <use
       xlink:href="#glyph-0-6"
       x="77.702423"
       y="20.909868"
       id="use111" />
    <use
       xlink:href="#glyph-0-7"
       x="81.437057"
       y="20.909868"
       id="use113" />
    <use
       xlink:href="#glyph-0-8"
       x="91.144478"
       y="20.909868"
       id="use115" />
    <use
       xlink:href="#glyph-0-5"
       x="98.620316"
       y="20.909868"
       id="use117" />
    <use
       xlink:href="#glyph-0-8"
       x="102.35495"
       y="20.909868"
       id="use119" />
    <use
       xlink:href="#glyph-0-6"
       x="109.83078"
       y="20.909868"
       id="use121" />
  </g>
  <path
     fill-rule="nonzero"
     fill="rgb(0%, 0%, 0%)"
     fill-opacity="1"
     stroke-width="7.391725"
     stroke-linecap="butt"
     stroke-linejoin="miter"
     stroke="rgb(0%, 0%, 0%)"
     stroke-opacity="0.2"
     stroke-miterlimit="4"
     d="M 74.075448 281.924547 L 62.991169 281.924547 C 49.690033 281.924547 43.039465 286.736868 43.039465 295.880278 C 43.039465 297.323975 43.778417 300.933216 45.010004 306.948617 C 46.241591 312.964018 49.93635 321.38558 56.094284 331.972687 C 62.005899 342.559793 68.656467 353.628132 76.045987 364.937086 C 83.435507 376.246041 94.766103 388.276844 110.037778 401.029495 C 125.309452 413.782145 141.566395 424.369252 159.054925 433.03143 C 186.396148 445.062233 211.02788 451.077634 232.950122 451.077634 L 235.90593 451.077634 C 260.78398 451.077634 276.055654 450.596402 281.96727 450.11517 C 332.708639 441.452992 365.961477 424.609868 381.972103 400.06703 L 392.071114 409.932289 C 419.904971 438.084367 450.448319 452.040098 482.962206 452.040098 C 519.663488 452.040098 547.98998 441.693608 567.941683 421.000627 C 587.893386 400.307646 598.238714 375.283577 598.977666 345.928418 C 598.977666 317.295107 590.35656 295.399046 573.114347 279.999619 C 555.625817 264.600191 536.9057 256.659861 516.953997 255.938013 C 501.682323 255.938013 488.627505 260.750334 478.03586 269.893744 C 467.444215 279.277771 462.025234 292.030422 462.025234 307.911081 C 462.025234 331.250839 470.64634 350.981355 487.888553 367.102631 C 496.755976 373.599264 507.347621 379.614666 519.909805 384.908219 C 519.909805 385.630067 518.678218 387.073763 515.968728 388.998692 C 513.259237 390.92362 508.579208 393.329781 501.92864 395.976557 C 495.278072 398.623334 487.888553 400.06703 480.006398 400.06703 C 471.877927 400.06703 465.966311 399.345182 462.025234 397.901486 C 440.102992 388.036228 424.338683 369.027559 414.978625 341.116097 C 374.336266 190.971678 353.891928 104.109283 353.891928 80.047677 C 353.891928 55.986072 370.887824 43.955269 404.879615 43.955269 C 434.437693 43.955269 461.039964 54.061143 484.932745 74.032276 C 509.071843 94.003408 525.575103 116.621317 534.935162 141.886003 C 537.644652 151.270029 540.107825 157.044815 542.078364 158.969743 C 544.048903 160.894672 550.69947 162.097752 562.030067 162.097752 L 579.025963 162.097752 C 592.327098 162.097752 598.977666 157.285431 598.977666 147.901405 C 598.977666 139.239227 594.543954 126.967808 585.922848 111.087148 C 577.301741 94.965872 565.232193 77.882133 549.960518 60.076544 C 534.688844 42.03034 513.01292 25.909065 484.932745 11.953333 C 457.098887 -2.002398 427.787126 -8.739647 396.99746 -8.017799 C 341.083428 -8.017799 297.238944 6.419164 265.956644 35.052475 L 258.074489 43.955269 C 229.255362 10.028405 196.987793 -7.055335 161.025464 -7.055335 L 156.099117 -7.055335 C 117.919932 -7.055335 89.59344 3.772388 71.11964 24.9466 C 52.399524 46.361429 43.039465 69.701187 43.039465 94.965872 C 43.039465 126.967808 51.906889 150.307565 69.888054 164.985144 C 88.115536 179.662724 106.343018 187.362438 125.063134 188.084286 C 140.334808 188.084286 153.389627 183.271965 163.981272 173.887939 C 174.572916 164.744528 179.991898 151.991877 179.991898 136.111218 C 179.991898 112.771461 171.370791 93.040944 153.882261 76.919668 C 145.261155 70.423035 134.66951 64.407633 122.107326 59.11408 C 123.338913 55.745455 128.018942 52.376831 135.901097 49.008206 C 144.029568 45.639581 152.404357 43.714653 161.025464 42.992805 C 175.558186 42.992805 188.613004 49.008206 199.943601 61.039009 C 211.274198 73.069811 219.895304 87.025543 226.053237 102.906202 C 266.695596 253.050621 286.893616 339.913017 286.893616 363.974622 C 286.893616 388.036228 269.897721 400.06703 235.90593 400.06703 C 212.01315 400.06703 188.120369 392.367317 163.981272 376.967889 C 140.088491 361.568461 121.122057 336.785008 107.08197 301.89568 C 104.372479 292.75227 101.909306 286.977484 99.938767 285.052556 C 97.968229 282.887011 91.317661 281.924547 79.987064 281.924547 Z M 74.075448 281.924547 "
     transform="matrix(0.0158586, 0, 0, -0.0162344, 113.512766, 20.779992)"
     id="path125" />
  <path
     fill-rule="nonzero"
     fill="rgb(0%, 0%, 0%)"
     fill-opacity="1"
     stroke-width="7.317561"
     stroke-linecap="butt"
     stroke-linejoin="miter"
     stroke="rgb(0%, 0%, 0%)"
     stroke-opacity="0.2"
     stroke-miterlimit="4"
     d="M 34.020502 159.061904 C 34.020502 231.713468 62.608613 296.980774 120.037827 355.102025 C 177.214049 412.985074 239.450113 442.045699 305.987044 442.045699 C 343.429879 442.045699 372.776967 433.946836 394.028306 417.987313 C 415.279645 402.027789 426.411298 381.066026 426.917283 355.102025 C 426.917283 335.569473 420.592479 319.371748 407.942873 306.032444 C 395.293266 292.693141 379.354762 285.785287 359.874368 285.070682 C 347.224761 285.070682 337.358068 288.405508 330.021296 295.075159 C 322.684524 301.744811 318.889642 311.749289 318.889642 325.088592 C 318.889642 338.427895 322.684524 349.623382 330.021296 358.913254 C 337.358068 368.441328 344.69484 375.349182 352.031612 380.113219 C 359.368384 384.639054 363.922242 386.782871 365.946179 386.068265 L 366.958147 386.068265 C 366.958147 387.259274 364.93421 389.403091 360.886336 392.023311 C 357.091454 394.643531 350.007675 397.263752 339.887989 399.883972 C 330.021296 402.742394 318.63665 403.933404 305.987044 403.933404 C 286.000665 403.933404 267.026256 399.407568 249.063814 390.117696 C 234.896255 383.924448 220.728695 373.681769 206.055152 358.913254 C 176.708065 329.614427 155.456725 288.405508 142.048142 235.048294 C 128.63956 181.69108 121.55578 143.102381 121.049796 119.043994 C 121.049796 88.315956 129.651528 65.448578 147.107985 49.965458 C 161.781529 34.005934 181.008931 25.907072 205.043183 25.907072 L 209.091057 25.907072 C 283.723736 25.907072 345.453816 54.253091 394.028306 110.945131 C 400.100117 117.614783 403.894999 120.949609 405.918936 120.949609 C 408.701849 120.949609 413.002715 118.091187 419.074527 111.897939 C 424.893346 105.942892 428.435235 101.417057 428.94122 98.082231 C 429.700196 94.747406 426.664291 89.745167 420.086495 83.075515 C 413.255708 76.405863 403.642007 67.115991 390.9924 54.967697 C 378.342793 43.057605 363.416258 33.053127 345.959801 24.954264 C 328.756336 17.093603 307.252004 8.756539 281.952791 -0.0569298 C 256.653578 -8.632196 230.089404 -12.443426 202.007278 -11.014215 C 151.914836 -11.014215 111.689087 4.945309 81.077039 37.102558 C 50.211999 69.021606 34.779479 109.754122 34.020502 159.061904 Z M 34.020502 159.061904 "
     transform="matrix(0.0154402, 0, 0, -0.0163989, 19.423935, 237.256879)"
     id="path127" />
  <path
     fill-rule="nonzero"
     fill="rgb(0%, 0%, 0%)"
     fill-opacity="1"
     stroke-width="10.350156"
     stroke-linecap="butt"
     stroke-linejoin="miter"
     stroke="rgb(0%, 0%, 0%)"
     stroke-opacity="0.1412"
     stroke-miterlimit="4"
     d="M 213.099571 577.978003 L 199.85953 572.924216 C 190.555717 569.555024 177.315676 566.185833 160.139406 563.15356 C 142.605298 559.784369 123.281994 557.425935 102.169496 556.078258 L 82.846193 556.078258 L 82.846193 601.899263 L 102.169496 601.899263 C 133.301485 603.24694 162.28644 608.300727 189.124361 617.060625 C 215.604443 625.820523 234.212069 633.569663 244.947237 640.981885 C 255.682406 648.394106 264.986219 655.806327 272.858675 662.881629 C 274.290031 664.903144 278.22626 665.913902 285.0252 665.913902 C 291.108462 665.913902 296.833885 663.892387 301.84363 659.849357 L 301.84363 361.002069 L 302.917147 61.144024 C 307.569054 56.427156 311.505282 53.394884 315.083672 52.047207 C 318.304222 50.69953 326.176679 49.351854 339.058881 48.004177 C 351.583244 46.6565 372.337904 45.982662 400.96502 45.982662 L 427.087263 45.982662 L 427.087263 0.161658 L 415.994255 0.161658 C 402.038536 1.846253 349.078372 2.857011 257.113762 2.857011 C 166.222668 2.857011 113.978182 1.846253 100.022463 0.161658 L 87.855938 0.161658 L 87.855938 45.982662 L 113.978182 45.982662 C 128.649579 45.982662 141.173942 45.982662 151.90911 45.982662 C 162.644279 45.982662 170.874575 46.319581 176.957837 46.99342 C 183.041099 47.667258 188.408683 48.678015 193.06059 50.025692 C 197.712496 51.373369 200.217369 52.047207 200.933046 52.047207 C 201.648724 52.047207 203.795758 53.731803 207.016309 57.100994 C 210.236859 60.470186 212.383893 61.817862 213.099571 61.144024 Z M 213.099571 577.978003 "
     transform="matrix(0.0109162, 0, 0, -0.011594, 26.61907, 239.716718)"
     id="path129" />
  <path
     fill-rule="nonzero"
     fill="rgb(0%, 0%, 0%)"
     fill-opacity="1"
     stroke-width="7.416447"
     stroke-linecap="butt"
     stroke-linejoin="miter"
     stroke="rgb(0%, 0%, 0%)"
     stroke-opacity="0.2"
     stroke-miterlimit="4"
     d="M 34.082711 158.959023 C 34.082711 231.626681 62.655865 297.051715 120.050635 354.992704 C 177.445406 412.933694 239.312496 441.904189 305.900369 441.904189 C 343.418163 441.904189 372.736703 433.937303 394.104454 418.003531 C 415.223741 402.069758 426.404541 381.06615 426.901465 354.992704 C 426.901465 335.679041 420.68991 319.262428 408.018337 305.984284 C 395.346765 292.706141 379.445183 285.704938 360.065131 284.980675 C 347.393558 284.980675 337.45507 288.360566 330.001203 295.120349 C 322.547337 301.63871 319.068866 311.778383 319.068866 325.056527 C 319.068866 338.33467 322.547337 349.681447 330.001203 359.096858 C 337.45507 368.270848 344.660474 375.272051 352.11434 380.100467 C 359.319744 384.687462 364.040526 386.618828 366.028224 385.894566 L 367.022073 385.894566 C 367.022073 387.34309 365.034375 389.274457 361.05898 391.930085 C 357.083584 394.585714 349.87818 397.241343 339.939692 399.896971 C 330.001203 402.5526 318.571942 404.001125 305.900369 404.001125 C 286.023392 404.001125 266.891802 399.41413 249.002523 389.998719 C 235.088639 383.963199 220.677831 373.582105 206.01856 359.096858 C 176.700019 329.643522 155.332269 288.360566 141.91531 235.006572 C 128.746813 181.652577 121.789871 143.025251 121.044484 118.883172 C 121.044484 88.222732 129.740662 65.287757 146.884554 50.078247 C 161.543825 33.903054 180.923877 25.936168 205.024711 25.936168 L 209.000107 25.936168 C 283.787232 25.936168 345.40586 54.423821 394.104454 110.916286 C 400.067547 117.676068 404.042942 121.055959 406.03064 121.055959 C 408.763724 121.055959 412.987582 117.917489 418.950675 111.881969 C 424.913768 106.08787 428.392239 101.259454 428.889163 97.879563 C 429.63455 94.741093 426.653003 89.671256 419.944523 82.911474 C 413.236044 76.393113 403.546018 66.977702 391.122907 54.906663 C 378.451334 43.077044 363.295139 32.937371 345.902785 24.970485 C 328.758892 17.003599 307.391142 8.553871 282.047997 0.104143 C 256.704851 -8.587005 230.119395 -12.449738 202.043165 -11.001213 C 152.102261 -11.001213 111.60292 4.932559 81.042068 37.041524 C 50.232754 68.909069 34.579635 109.709182 34.082711 158.959023 Z M 34.082711 158.959023 "
     transform="matrix(0.0157217, 0, 0, -0.0161803, 79.905568, 237.161841)"
     id="path131" />
  <path
     fill-rule="nonzero"
     fill="rgb(0%, 0%, 0%)"
     fill-opacity="1"
     stroke-width="10.490023"
     stroke-linecap="butt"
     stroke-linejoin="miter"
     stroke="rgb(0%, 0%, 0%)"
     stroke-opacity="0.1412"
     stroke-miterlimit="4"
     d="M 184.023074 599.882398 C 184.023074 615.931586 190.348845 629.931942 203.000386 641.883466 C 215.651928 653.834989 230.41206 660.322959 246.92935 661.005903 C 258.878028 661.005903 269.069548 656.908238 277.152477 649.05438 C 284.883975 640.859049 289.452587 630.956359 290.15545 619.004835 C 290.15545 603.638591 283.478248 589.638235 270.123843 577.003768 C 256.769438 564.3693 242.009306 557.539858 225.843448 556.856914 C 216.00336 556.856914 206.514703 560.271635 198.080342 567.101077 C 189.29455 573.589047 184.725937 584.516154 184.023074 599.882398 Z M 20.958761 287.09396 C 20.958761 292.216041 24.121646 302.801676 30.095985 318.16792 C 36.070324 333.192692 44.153253 350.266297 53.993341 369.047262 C 63.833429 387.828227 78.593561 404.56036 97.922305 419.926604 C 117.251049 435.292849 137.282657 442.805235 158.017127 442.12229 C 184.023074 442.12229 205.81184 434.268432 223.031994 418.902188 C 240.252148 403.535944 249.389372 383.047618 250.092236 357.095739 C 250.092236 345.82716 245.172192 327.046195 236.034967 301.094316 C 226.546311 275.142436 213.191906 239.970811 195.971752 195.92091 C 178.751598 151.87101 164.69433 114.30908 154.151379 82.893647 C 150.637062 68.210347 148.879903 57.624712 148.879903 51.136742 C 148.879903 34.40461 154.50281 25.867808 166.100057 25.867808 C 172.074396 25.867808 178.400167 26.892224 185.077369 28.941056 C 191.754572 30.989889 199.486069 35.770498 207.92043 42.941412 C 216.706223 50.453798 225.492016 62.063849 234.980672 78.113038 C 244.469328 94.162226 252.552257 113.626136 259.932323 136.846238 C 262.040914 145.041568 263.798072 149.822178 264.852367 150.846594 C 266.258094 152.212482 271.881002 152.895427 282.072521 152.895427 C 295.426926 152.895427 302.104129 149.822178 302.104129 142.992736 C 302.104129 137.529182 298.941243 127.28502 292.966904 111.918775 C 286.992565 96.552531 278.558204 79.820398 268.015253 61.039433 C 257.472301 42.258468 242.360738 25.526335 223.031994 10.843035 C 203.70325 -3.498793 182.968779 -11.011179 160.828581 -11.011179 C 139.742679 -11.011179 120.062503 -3.840265 102.139486 10.160091 C 83.865037 24.160447 74.727812 45.331717 74.024949 74.015373 C 74.024949 85.283952 75.782107 95.869587 78.944993 106.11375 C 82.45931 116.01644 96.516578 153.919843 122.171093 220.165429 C 147.474176 287.435432 161.882876 327.729139 166.100057 341.046551 C 169.965806 354.363962 172.425828 367.339902 173.128691 379.974369 C 173.128691 396.023558 167.505784 403.877416 155.908537 403.877416 L 154.151379 403.877416 C 134.119771 403.877416 115.493891 392.950309 98.9766 371.096095 C 82.45931 348.900409 69.807768 320.899697 61.021975 287.09396 C 60.319112 286.411015 59.616249 285.386599 58.913385 284.020711 C 58.210522 282.654822 57.85909 281.630406 57.85909 280.947462 C 57.85909 280.264518 57.507658 279.581574 56.101932 278.898629 C 54.696205 278.215685 53.64191 277.874213 52.939046 277.874213 C 52.236183 277.874213 50.830456 277.874213 49.073297 277.874213 C 46.964707 277.874213 44.504685 277.874213 40.990368 277.874213 L 26.9331 277.874213 C 23.067351 281.971878 20.958761 285.045127 20.958761 287.09396 Z M 20.958761 287.09396 "
     transform="matrix(0.0111152, 0, 0, -0.0114394, 87.231882, 239.588882)"
     id="path133" />
  <path
     fill-rule="nonzero"
     fill="rgb(0%, 0%, 0%)"
     fill-opacity="1"
     stroke-width="7.317561"
     stroke-linecap="butt"
     stroke-linejoin="miter"
     stroke="rgb(0%, 0%, 0%)"
     stroke-opacity="0.2"
     stroke-miterlimit="4"
     d="M 33.920005 159.061904 C 33.920005 231.713468 62.571752 296.980774 119.875245 355.102025 C 177.432294 412.985074 239.299782 442.045699 305.984821 442.045699 C 343.257448 442.045699 372.66986 433.946836 393.968504 417.987313 C 415.267147 402.027789 426.42358 381.066026 426.93069 355.102025 C 426.93069 335.569473 420.591808 319.371748 407.914044 306.032444 C 395.23628 292.693141 379.262297 285.785287 359.992096 285.070682 C 347.314332 285.070682 337.425676 288.405508 330.072573 295.075159 C 322.71947 301.744811 318.916141 311.749289 318.916141 325.088592 C 318.916141 338.427895 322.71947 349.623382 330.072573 358.913254 C 337.425676 368.441328 344.778779 375.349182 351.878327 380.113219 C 359.23143 384.639054 364.048981 386.782871 366.077423 386.068265 L 367.091644 386.068265 C 367.091644 387.259274 365.063202 389.403091 361.006317 392.023311 C 356.949433 394.643531 350.10344 397.263752 339.961229 399.883972 C 330.072573 402.742394 318.662585 403.933404 305.984821 403.933404 C 285.953954 403.933404 266.937308 399.407568 248.934883 390.117696 C 234.989343 383.924448 220.790247 373.681769 206.084041 358.913254 C 176.671628 329.614427 155.372984 288.405508 141.934555 235.048294 C 128.74968 181.69108 121.650132 143.102381 120.889466 119.043994 C 120.889466 88.315956 129.763901 65.448578 147.00566 49.965458 C 161.711866 34.005934 180.982068 25.907072 205.069819 25.907072 L 209.126704 25.907072 C 283.671957 25.907072 345.28589 54.253091 393.968504 110.945131 C 400.053831 117.614783 404.110715 120.949609 405.885602 120.949609 C 408.67471 120.949609 412.98515 118.091187 419.070477 111.897939 C 424.902248 105.942892 428.452022 101.417057 428.959133 98.082231 C 429.719798 94.747406 426.677135 89.745167 420.084698 83.075515 C 413.238705 76.405863 403.603604 67.115991 390.92584 54.967697 C 378.248076 43.057605 363.288315 33.053127 346.046556 24.954264 C 328.551241 17.093603 307.252598 8.756539 281.89707 -0.0569298 C 256.541542 -8.632196 229.918237 -12.443426 202.027156 -11.014215 C 152.076766 -11.014215 111.761476 4.945309 81.081287 37.102558 C 50.401098 69.021606 34.680671 109.754122 33.920005 159.061904 Z M 33.920005 159.061904 "
     transform="matrix(0.0154059, 0, 0, -0.0163989, 135.922744, 237.256879)"
     id="path135" />
  <path
     fill-rule="nonzero"
     fill="rgb(0%, 0%, 0%)"
     fill-opacity="1"
     stroke-width="10.350156"
     stroke-linecap="butt"
     stroke-linejoin="miter"
     stroke="rgb(0%, 0%, 0%)"
     stroke-opacity="0.1412"
     stroke-miterlimit="4"
     d="M 289.029454 628.852795 C 289.029454 632.895825 270.021774 635.591178 232.006415 636.938855 C 215.867819 636.938855 205.826026 637.275774 201.163765 637.949612 C 196.501503 638.623451 193.991055 641.992642 193.991055 648.057187 C 193.991055 648.731025 194.708326 652.437136 196.142868 658.8386 C 196.501503 660.860115 197.218774 663.218549 197.936045 665.913902 C 198.653316 668.609255 199.011952 670.293851 199.011952 670.967689 C 199.011952 671.641527 199.729223 673.326123 201.163765 676.021476 C 202.239671 678.71683 202.956942 679.727587 202.956942 679.053749 C 202.956942 678.37991 204.391484 679.053749 206.901932 681.075264 C 209.771016 683.096779 211.205558 683.770617 211.922829 683.096779 C 212.6401 682.42294 215.509183 682.42294 220.171444 683.096779 C 224.833705 683.770617 228.778696 684.107536 232.006415 684.107536 C 235.951405 684.107536 245.993198 684.107536 262.131794 684.107536 C 277.911755 684.107536 292.974444 683.770617 306.961227 683.096779 C 359.680641 683.096779 390.164656 683.096779 398.054636 683.096779 C 405.944616 683.096779 411.324148 681.412183 413.834597 678.042991 C 414.551867 675.347638 427.104109 581.347195 451.132685 396.041661 L 486.996232 117.072603 L 509.948902 154.13371 C 526.087498 178.05497 547.24699 211.409966 574.14465 253.861779 C 600.683675 296.650511 630.091783 343.482273 662.01034 394.020146 C 778.566867 579.999518 837.741719 673.663042 839.176261 675.010719 C 839.534896 675.684557 840.610802 676.695315 842.045344 678.042991 C 843.479886 679.390668 844.555793 680.401425 845.990334 681.075264 L 852.087137 683.096779 L 947.842807 683.096779 C 959.319142 683.096779 972.588654 683.096779 988.009979 683.096779 C 1003.431304 683.096779 1013.114462 683.433698 1017.059452 684.107536 C 1039.653487 684.107536 1051.129822 680.401425 1051.129822 672.989204 C 1051.129822 669.620013 1050.053915 663.892387 1047.902102 656.143246 C 1046.108925 648.057187 1045.033019 643.677238 1045.033019 643.0034 C 1042.163935 638.96037 1029.970329 636.938855 1008.093566 636.938855 C 981.195906 636.265016 964.340039 635.254259 957.167329 633.906582 C 949.635984 632.558906 943.539181 628.852795 938.87692 623.12517 C 937.083743 619.755978 913.055167 525.418615 867.149827 340.113082 C 820.885852 154.807548 797.574546 61.144024 796.857275 59.122509 C 796.857275 56.427156 797.215911 54.74256 797.933182 54.068722 C 798.650453 53.394884 801.160901 52.047207 805.105891 50.025692 C 809.050881 48.004177 814.789049 47.330339 821.961758 48.004177 C 829.493103 48.678015 840.252167 48.004177 854.956221 45.982662 L 886.157507 45.982662 C 890.102497 39.918117 891.895674 36.212007 891.895674 34.86433 C 891.895674 24.419836 889.743861 14.312262 885.0816 4.878526 C 881.495246 1.509334 876.474349 0.161658 868.943004 0.161658 C 865.715285 0.161658 852.087137 0.498577 828.058561 0.835496 C 804.029985 1.509334 773.187335 1.846253 735.889246 1.846253 C 695.363438 1.846253 664.520788 1.846253 644.078566 1.846253 C 623.277709 1.846253 611.801374 1.509334 608.932291 0.835496 C 597.814591 0.835496 592.076424 4.204687 592.076424 10.94307 C 592.076424 12.290747 592.793695 17.007615 593.869601 25.093675 C 596.738685 35.538168 599.249133 41.602713 602.118217 42.95039 C 604.628665 44.298066 612.16001 45.308824 625.070887 45.982662 C 643.00266 45.982662 663.086246 46.99342 684.96301 49.014935 C 694.287532 51.036449 700.74297 55.079479 703.970689 61.144024 C 705.405231 63.502458 717.957473 112.355735 741.986049 207.030017 C 766.014625 301.704299 789.684566 396.041661 812.995871 490.042105 C 836.307177 584.042548 848.142147 630.87431 848.142147 630.87431 L 654.12036 321.919448 C 523.218414 114.040331 456.512217 8.247717 452.925862 4.878526 C 451.491321 4.204687 450.415414 3.530849 448.980872 2.857011 C 445.753153 0.835496 440.373621 0.161658 432.842276 0.161658 C 423.159119 0.161658 417.062316 2.183172 414.910503 6.900041 C 413.834597 9.595394 399.847813 113.029573 374.02606 316.86566 L 334.934794 624.135927 L 267.152691 353.926767 C 222.323257 176.707293 200.087858 85.065284 200.087858 79.000739 C 204.032848 57.100994 228.061425 45.982662 272.173587 45.982662 L 281.856745 45.982662 C 286.16037 42.613471 288.312183 39.581198 289.029454 36.885845 C 289.746725 34.190492 288.670819 28.462866 286.16037 19.02913 C 283.291287 8.247717 280.780838 2.183172 277.911755 0.835496 C 275.401306 0.498577 271.814952 0.161658 267.152691 0.161658 C 265.718149 0.161658 261.773159 0.161658 254.959085 0.161658 C 248.503646 0.161658 237.027311 0.498577 220.888715 0.835496 C 205.108755 1.509334 183.590627 1.846253 157.051602 1.846253 C 136.968016 1.846253 116.167159 1.509334 95.007666 0.835496 C 73.489538 0.498577 61.295932 0.161658 58.068213 0.161658 C 48.02642 0.161658 41.570982 0.498577 39.060533 1.846253 C 36.19145 3.19393 35.115543 6.226202 35.115543 10.94307 C 35.115543 12.290747 35.832814 17.007615 37.984627 25.093675 C 40.13644 32.842815 41.570982 37.896603 43.005524 39.918117 C 44.440065 43.961147 51.612775 45.982662 64.882287 45.982662 C 111.504898 45.982662 141.271642 59.459428 153.823883 86.076041 C 156.692967 90.119071 179.645637 179.402646 223.040528 353.926767 C 266.43542 528.787807 288.312183 620.429816 289.029454 628.852795 Z M 289.029454 628.852795 "
     transform="matrix(0.010892, 0, 0, -0.011594, 143.101897, 239.716718)"
     id="path137" />
  <path
     fill-rule="nonzero"
     fill="rgb(0%, 0%, 0%)"
     fill-opacity="1"
     stroke-width="6.427587"
     stroke-linecap="butt"
     stroke-linejoin="miter"
     stroke="rgb(0%, 0%, 0%)"
     stroke-opacity="0.2118"
     stroke-miterlimit="4"
     d="M 78.008615 60.039134 C 78.008615 75.940716 83.669557 89.959216 94.991441 102.094634 C 106.313326 114.020821 120.722997 120.08853 137.963139 120.08853 C 153.916704 120.08853 168.069059 114.648515 179.905575 103.977716 C 191.999406 93.306918 198.432295 79.079186 198.946926 61.08529 C 198.946926 44.346783 193.285984 29.90982 181.964099 17.983633 C 170.642215 6.057447 156.232544 -0.0102624 138.992401 -0.0102624 C 121.752259 -0.0102624 107.342588 5.638984 96.020704 16.937477 C 84.698819 28.235969 78.780561 42.672932 78.008615 60.039134 Z M 524.965735 60.039134 C 524.965735 75.940716 530.626677 89.959216 541.948562 102.094634 C 553.270446 114.020821 567.680117 120.08853 584.92026 120.08853 C 600.873824 120.08853 615.02618 114.648515 627.120011 103.977716 C 638.956526 93.306918 645.389415 79.079186 645.904046 61.08529 C 645.904046 44.346783 640.243104 29.90982 628.92122 17.983633 C 617.599335 6.057447 603.44698 -0.0102624 585.949522 -0.0102624 C 568.70938 -0.0102624 554.299708 5.638984 542.977824 16.937477 C 531.655939 28.235969 525.737682 42.672932 524.965735 60.039134 Z M 971.922855 60.039134 C 971.922855 75.940716 977.583798 89.959216 988.905682 102.094634 C 1000.227566 114.020821 1014.637238 120.08853 1031.87738 120.08853 C 1048.08826 120.08853 1061.9833 114.648515 1074.077131 103.977716 C 1085.913647 93.306918 1092.346535 79.079186 1093.118482 61.08529 C 1093.118482 44.346783 1087.45754 29.90982 1075.87834 17.983633 C 1064.556455 6.057447 1050.4041 -0.0102624 1032.906642 -0.0102624 C 1015.6665 -0.0102624 1001.256829 5.638984 989.934944 16.937477 C 978.61306 28.235969 972.694802 42.672932 971.922855 60.039134 Z M 971.922855 60.039134 "
     transform="matrix(0.0151808, 0, 0, -0.0186695, 47.112644, 237.476371)"
     id="path139" />
  <path
     fill-rule="nonzero"
     fill="rgb(0%, 0%, 0%)"
     fill-opacity="1"
     stroke-width="6.427587"
     stroke-linecap="butt"
     stroke-linejoin="miter"
     stroke="rgb(0%, 0%, 0%)"
     stroke-opacity="0.2118"
     stroke-miterlimit="4"
     d="M 77.98872 60.039134 C 77.98872 75.940716 83.649663 89.959216 94.971547 102.094634 C 106.293432 114.020821 120.703103 120.08853 137.943245 120.08853 C 153.896809 120.08853 168.049165 114.648515 179.885681 103.977716 C 191.979512 93.306918 198.412401 79.079186 198.927032 61.08529 C 198.927032 44.346783 193.266089 29.90982 181.944205 17.983633 C 170.622321 6.057447 156.212649 -0.0102624 138.972507 -0.0102624 C 121.732365 -0.0102624 107.322694 5.638984 96.000809 16.937477 C 84.678925 28.235969 78.760667 42.672932 77.98872 60.039134 Z M 524.945841 60.039134 C 524.945841 75.940716 530.606783 89.959216 541.928667 102.094634 C 553.250552 114.020821 567.660223 120.08853 584.900365 120.08853 C 601.111245 120.08853 615.006285 114.648515 627.100116 103.977716 C 638.936632 93.306918 645.369521 79.079186 645.884152 61.08529 C 645.884152 44.346783 640.22321 29.90982 628.901325 17.983633 C 617.579441 6.057447 603.427085 -0.0102624 585.929627 -0.0102624 C 568.689485 -0.0102624 554.279814 5.638984 542.95793 16.937477 C 531.636045 28.235969 525.717787 42.672932 524.945841 60.039134 Z M 971.902961 60.039134 C 971.902961 75.940716 977.563903 89.959216 988.885788 102.094634 C 1000.207672 114.020821 1014.617343 120.08853 1032.114801 120.08853 C 1048.068366 120.08853 1061.963406 114.648515 1074.057237 103.977716 C 1085.893752 93.306918 1092.326641 79.079186 1093.098588 61.08529 C 1093.098588 44.346783 1087.437646 29.90982 1076.115761 17.983633 C 1064.793877 6.057447 1050.384206 -0.0102624 1032.886748 -0.0102624 C 1015.646606 -0.0102624 1001.236934 5.638984 989.91505 16.937477 C 978.593165 28.235969 972.674908 42.672932 971.902961 60.039134 Z M 971.902961 60.039134 "
     transform="matrix(0.0151808, 0, 0, -0.0186695, 106.855133, 237.476371)"
     id="path141" />
  <path
     fill="none"
     stroke-width="1"
     stroke-linecap="butt"
     stroke-linejoin="miter"
     stroke="rgb(0%, 0%, 0%)"
     stroke-opacity="1"
     stroke-miterlimit="10"
     d="M 115.000932 31.998858 L 115.000932 65.627566 "
     transform="matrix(0.746781, 0, 0, 0.746781, 0.373391, 0.373391)"
     id="path143" />
  <path
     fill-rule="nonzero"
     fill="rgb(0%, 0%, 0%)"
     fill-opacity="1"
     stroke-width="1"
     stroke-linecap="butt"
     stroke-linejoin="miter"
     stroke="rgb(0%, 0%, 0%)"
     stroke-opacity="1"
     stroke-miterlimit="10"
     d="M 115.000932 70.879273 L 111.501538 63.880484 L 115.000932 65.627566 L 118.500326 63.880484 Z M 115.000932 70.879273 "
     transform="matrix(0.746781, 0, 0, 0.746781, 0.373391, 0.373391)"
     id="path145" />
  <path
     fill="none"
     stroke-width="1"
     stroke-linecap="butt"
     stroke-linejoin="miter"
     stroke="rgb(0%, 0%, 0%)"
     stroke-opacity="1"
     stroke-miterlimit="10"
     d="M 114.498777 262.001643 L 114.838778 295.63035 "
     transform="matrix(0.746781, 0, 0, 0.746781, 0.373391, 0.373391)"
     id="path147" />
  <path
     fill-rule="nonzero"
     fill="rgb(0%, 0%, 0%)"
     fill-opacity="1"
     stroke-width="1"
     stroke-linecap="butt"
     stroke-linejoin="miter"
     stroke="rgb(0%, 0%, 0%)"
     stroke-opacity="1"
     stroke-miterlimit="10"
     d="M 114.891086 300.882057 L 111.31846 293.919884 L 114.838778 295.63035 L 118.32248 293.851884 Z M 114.891086 300.882057 "
     transform="matrix(0.746781, 0, 0, 0.746781, 0.373391, 0.373391)"
     id="path149" />
  <path
     fill="none"
     stroke-width="1"
     stroke-linecap="butt"
     stroke-linejoin="miter"
     stroke="rgb(0%, 0%, 0%)"
     stroke-opacity="1"
     stroke-miterlimit="10"
     d="M 115.000932 262.001643 L 189.298982 299.150668 "
     transform="matrix(0.746781, 0, 0, 0.746781, 0.373391, 0.373391)"
     id="path151" />
  <path
     fill-rule="nonzero"
     fill="rgb(0%, 0%, 0%)"
     fill-opacity="1"
     stroke-width="1"
     stroke-linecap="butt"
     stroke-linejoin="miter"
     stroke="rgb(0%, 0%, 0%)"
     stroke-opacity="1"
     stroke-miterlimit="10"
     d="M 194.001456 301.499289 L 186.170973 301.499289 L 189.298982 299.150668 L 189.298982 295.238042 Z M 194.001456 301.499289 "
     transform="matrix(0.746781, 0, 0, 0.746781, 0.373391, 0.373391)"
     id="path153" />
  <path
     fill="none"
     stroke-width="1"
     stroke-linecap="butt"
     stroke-linejoin="miter"
     stroke="rgb(0%, 0%, 0%)"
     stroke-opacity="1"
     stroke-miterlimit="10"
     d="M 115.000932 262.001643 L 40.697651 299.150668 "
     transform="matrix(0.746781, 0, 0, 0.746781, 0.373391, 0.373391)"
     id="path155" />
  <path
     fill-rule="nonzero"
     fill="rgb(0%, 0%, 0%)"
     fill-opacity="1"
     stroke-width="1"
     stroke-linecap="butt"
     stroke-linejoin="miter"
     stroke="rgb(0%, 0%, 0%)"
     stroke-opacity="1"
     stroke-miterlimit="10"
     d="M 36.000408 301.499289 L 40.697651 295.238042 L 40.697651 299.150668 L 43.830891 301.499289 Z M 36.000408 301.499289 "
     transform="matrix(0.746781, 0, 0, 0.746781, 0.373391, 0.373391)"
     id="path157" />
  <path
     fill-rule="nonzero"
     fill="rgb(100%, 100%, 100%)"
     fill-opacity="1"
     d="M 30.246094 54.140625 L 142.261719 54.140625 L 142.261719 196.03125 L 30.246094 196.03125 Z M 30.246094 54.140625 "
     id="path159" />
  <path
     fill="none"
     stroke-width="1"
     stroke-linecap="square"
     stroke-linejoin="miter"
     stroke="rgb(0%, 0%, 0%)"
     stroke-opacity="1"
     stroke-miterlimit="10"
     d="M 40.001957 71.99866 L 189.999907 71.99866 L 189.999907 262.001643 L 40.001957 262.001643 L 40.001957 71.99866 "
     transform="matrix(0.746781, 0, 0, 0.746781, 0.373391, 0.373391)"
     id="path161" />
  <path
     fill="none"
     stroke-width="1"
     stroke-linecap="butt"
     stroke-linejoin="miter"
     stroke="rgb(0%, 0%, 0%)"
     stroke-opacity="1"
     stroke-miterlimit="10"
     d="M 77.998369 71.99866 L 77.998369 262.001643 "
     transform="matrix(0.746781, 0, 0, 0.746781, 0.373391, 0.373391)"
     id="path163" />
  <path
     fill="none"
     stroke-width="1"
     stroke-linecap="butt"
     stroke-linejoin="miter"
     stroke="rgb(0%, 0%, 0%)"
     stroke-opacity="1"
     stroke-miterlimit="10"
     d="M 115.000932 71.99866 L 115.000932 262.001643 "
     transform="matrix(0.746781, 0, 0, 0.746781, 0.373391, 0.373391)"
     id="path165" />
  <path
     fill="none"
     stroke-width="1"
     stroke-linecap="butt"
     stroke-linejoin="miter"
     stroke="rgb(0%, 0%, 0%)"
     stroke-opacity="1"
     stroke-miterlimit="10"
     d="M 153.002575 71.99866 L 153.002575 262.001643 "
     transform="matrix(0.746781, 0, 0, 0.746781, 0.373391, 0.373391)"
     id="path167" />
  <g
     fill="#000000"
     fill-opacity="1"
     id="g181">
    <use
       xlink:href="#glyph-1-1"
       x="48.540768"
       y="187.30202"
       id="use169" />
    <use
       xlink:href="#glyph-1-2"
       x="48.540768"
       y="178.33626"
       id="use171" />
    <use
       xlink:href="#glyph-1-3"
       x="48.540768"
       y="175.34987"
       id="use173" />
    <use
       xlink:href="#glyph-1-4"
       x="48.540768"
       y="167.87404"
       id="use175" />
    <use
       xlink:href="#glyph-1-5"
       x="48.540768"
       y="160.39821"
       id="use177" />
    <use
       xlink:href="#glyph-1-6"
       x="48.540768"
       y="155.92189"
       id="use179" />
  </g>
  <g
     fill="#000000"
     fill-opacity="1"
     id="g185">
    <use
       xlink:href="#glyph-2-1"
       x="48.540768"
       y="149.20087"
       id="use183" />
  </g>
  <g
     fill="#000000"
     fill-opacity="1"
     id="g207">
    <use
       xlink:href="#glyph-1-7"
       x="48.540768"
       y="135.7588"
       id="use187" />
    <use
       xlink:href="#glyph-1-8"
       x="48.540768"
       y="126.05138"
       id="use189" />
    <use
       xlink:href="#glyph-1-4"
       x="48.540768"
       y="123.06499"
       id="use191" />
    <use
       xlink:href="#glyph-1-9"
       x="48.540768"
       y="115.58916"
       id="use193" />
    <use
       xlink:href="#glyph-1-9"
       x="48.540768"
       y="108.86813"
       id="use195" />
    <use
       xlink:href="#glyph-1-2"
       x="48.540768"
       y="102.14709"
       id="use197" />
    <use
       xlink:href="#glyph-1-10"
       x="48.540768"
       y="99.160698"
       id="use199" />
    <use
       xlink:href="#glyph-1-2"
       x="48.540768"
       y="95.426064"
       id="use201" />
    <use
       xlink:href="#glyph-1-11"
       x="48.540768"
       y="92.439674"
       id="use203" />
    <use
       xlink:href="#glyph-1-5"
       x="48.540768"
       y="84.963837"
       id="use205" />
  </g>
  <g
     fill="#000000"
     fill-opacity="1"
     id="g211">
    <use
       xlink:href="#glyph-1-12"
       x="48.540768"
       y="80.487526"
       id="use209" />
  </g>
  <path
     fill-rule="nonzero"
     fill="rgb(19.999695%, 19.999695%, 19.999695%)"
     fill-opacity="1"
     d="M 50.859375 75.015625 C 50.859375 74.992188 50.867188 74.960938 50.886719 74.917969 C 50.910156 74.875 50.925781 74.816406 50.933594 74.738281 C 50.945313 74.664063 50.949219 74.601563 50.949219 74.546875 C 50.949219 74.40625 50.882813 74.277344 50.75 74.160156 C 50.613281 74.042969 50.460938 73.957031 50.296875 73.902344 C 50.015625 73.792969 49.21875 73.613281 47.910156 73.355469 C 46.601563 73.097656 45.351563 72.847656 44.167969 72.613281 C 42.984375 72.378906 42.386719 72.257813 42.375 72.257813 L 42.328125 72.257813 L 42.328125 73.015625 C 42.328125 73.519531 42.316406 73.789063 42.296875 73.820313 C 42.265625 73.863281 42.214844 73.886719 42.140625 73.886719 L 41.703125 73.773438 C 41.652344 73.75 41.625 73.707031 41.625 73.644531 C 41.625 73.578125 41.621094 73.328125 41.609375 72.886719 C 41.609375 72.371094 41.605469 72.113281 41.597656 72.113281 C 41.574219 72.113281 41.316406 72.066406 40.816406 71.96875 C 40.316406 71.871094 40.015625 71.808594 39.910156 71.777344 C 38.195313 71.378906 37.339844 70.59375 37.339844 69.421875 C 37.359375 69.027344 37.472656 68.699219 37.683594 68.441406 C 37.890625 68.183594 38.164063 68.054688 38.507813 68.054688 C 38.882813 68.054688 39.152344 68.167969 39.320313 68.390625 C 39.484375 68.617188 39.574219 68.84375 39.585938 69.070313 C 39.585938 69.542969 39.367188 69.777344 38.929688 69.777344 C 38.730469 69.777344 38.558594 69.71875 38.414063 69.601563 C 38.269531 69.480469 38.160156 69.351563 38.085938 69.214844 L 38.007813 69.070313 C 37.945313 69.242188 37.914063 69.402344 37.914063 69.550781 C 37.914063 69.679688 37.96875 69.804688 38.070313 69.921875 C 38.175781 70.039063 38.320313 70.121094 38.507813 70.164063 C 38.808594 70.238281 39.214844 70.324219 39.726563 70.421875 C 40.234375 70.519531 40.664063 70.605469 41.019531 70.679688 C 41.371094 70.753906 41.558594 70.792969 41.582031 70.792969 C 41.601563 70.792969 41.609375 70.496094 41.609375 69.90625 C 41.609375 69.421875 41.617188 69.144531 41.625 69.070313 C 41.636719 68.992188 41.667969 68.933594 41.71875 68.890625 C 41.761719 68.878906 41.851563 68.890625 41.984375 68.921875 C 42.121094 68.957031 42.203125 68.984375 42.234375 69.003906 C 42.285156 69.027344 42.3125 69.074219 42.3125 69.148438 C 42.3125 69.222656 42.316406 69.515625 42.328125 70.019531 L 42.328125 70.921875 L 44.230469 71.292969 C 46.808594 71.808594 48.417969 72.167969 49.0625 72.371094 C 49.949219 72.660156 50.601563 73.039063 51.027344 73.5 C 51.363281 73.898438 51.527344 74.289063 51.527344 74.675781 C 51.527344 75.019531 51.429688 75.332031 51.230469 75.609375 C 51.035156 75.890625 50.753906 76.027344 50.390625 76.027344 C 50.003906 76.027344 49.722656 75.917969 49.546875 75.691406 C 49.371094 75.464844 49.28125 75.238281 49.28125 75.015625 C 49.28125 74.542969 49.5 74.304688 49.9375 74.304688 C 50.136719 74.304688 50.304688 74.363281 50.453125 74.480469 C 50.597656 74.601563 50.707031 74.730469 50.78125 74.867188 Z M 50.859375 75.015625 "
     id="path213" />
  <g
     clip-path="url(#clip-1)"
     id="g217">
    <path
       fill="none"
       stroke-width="7.44821"
       stroke-linecap="butt"
       stroke-linejoin="miter"
       stroke="#333333"
       stroke-opacity="0.2"
       stroke-miterlimit="4"
       d="m 117.88997,-162.12408 c 1.45473,0 3.39437,-0.50105 6.06137,-1.75369 2.667,-1.50316 6.30382,-2.50527 11.15292,-3.00632 4.60663,-0.75158 8.48591,-1.00211 11.88028,-1.00211 8.72836,0 16.72937,4.25896 24.00301,12.77687 7.27364,8.76845 12.60764,18.539 16.00201,29.06113 6.78873,18.03795 17.94164,69.145452 33.94365,153.071991 16.00201,83.926539 31.51911,164.095169 46.06639,240.004849 14.54728,75.90968 22.06338,114.2403 22.06338,114.99189 v 3.00632 h -47.03621 c -31.27665,0 -48.00603,0.75158 -49.94566,2.00421 -2.66701,2.00422 -4.12173,5.26107 -4.12173,10.02108 l 7.03118,28.05903 c 1.45473,3.25685 4.12173,5.01054 8.00101,5.01054 4.12173,0 19.63883,0.25052 47.03621,1.0021 32.00401,0 48.00602,0.25053 48.00602,0.75159 0,1.50316 2.90946,18.03794 8.97083,50.10539 6.06136,32.06745 9.94064,51.35803 11.88028,58.12226 24.73037,109.98135 73.46377,164.84676 146.20017,164.84676 24.48792,-1.25264 44.85412,-8.51792 60.85613,-22.04638 16.00201,-13.27793 24.00301,-30.81482 24.00301,-52.86119 0,-24.05059 -7.03118,-41.33695 -20.8511,-52.10961 -14.06237,-10.52214 -28.12475,-16.28426 -42.18712,-17.03584 -29.33701,0 -43.8843,14.02951 -43.8843,42.08853 0,12.77688 3.63682,23.80007 10.91047,33.06957 7.51609,9.26949 15.5171,16.28425 24.00301,21.04426 l 8.97082,5.01054 c -10.668,4.00843 -20.60865,6.01265 -29.82192,6.01265 -8.00101,0 -15.75956,-3.50738 -23.0332,-10.02108 -7.27364,-6.76423 -12.36519,-16.03373 -15.03219,-28.05902 -4.60664,-19.29058 -9.94064,-45.34539 -16.00201,-78.16442 -6.06137,-32.56851 -11.39537,-60.12648 -16.00201,-82.92443 -4.60664,-22.54743 -7.03118,-34.57273 -7.03118,-36.07589 0,-1.25263 18.42655,-1.75369 55.03721,-1.75369 30.06438,0 47.27866,-0.50105 51.8853,-1.0021 4.8491,-0.75159 8.48592,-2.7558 11.15292,-6.01265 0.72736,-2.7558 0,-8.51792 -1.93964,-17.03584 -2.18209,-8.76844 -3.87927,-14.02951 -5.09155,-16.03372 -1.45473,-3.25685 -4.36418,-5.01054 -8.97082,-5.01054 -4.60664,0 -22.79074,-0.25053 -54.0674,-1.00211 H 371.98248 L 348.94929,263.02021 C 316.94527,97.6724 294.63944,-5.544717 282.03179,-46.881669 264.09015,-103.75129 240.57204,-145.5893 211.96239,-172.89674 c -24.73038,-21.54532 -48.97585,-32.06745 -72.97886,-32.06745 -21.33601,0 -40.732386,6.26317 -57.946668,19.04005 -17.456738,12.52635 -25.942652,30.56429 -25.942652,53.8633 0,24.80217 6.788732,42.840111 20.851103,54.113825 14.062372,11.273714 28.124747,17.035835 41.944657,17.035835 29.33702,0 44.12676,-14.029511 44.12676,-42.08853 0,-12.77688 -3.63682,-23.54954 -10.91047,-33.06956 -7.51609,-9.2695 -15.51709,-16.28426 -24.00301,-21.04427 z m 0,0"
       transform="matrix(0,-0.0161113,-0.0155921,0,48.331515,76.914981)"
       id="path215" />
  </g>
  <path
     fill-rule="nonzero"
     fill="rgb(19.999695%, 19.999695%, 19.999695%)"
     fill-opacity="1"
     stroke-width="10.534948"
     stroke-linecap="butt"
     stroke-linejoin="miter"
     stroke="rgb(19.999695%, 19.999695%, 19.999695%)"
     stroke-opacity="0.1412"
     stroke-miterlimit="4"
     d="M 213.006776 578.162317 L 199.975265 572.847035 C 190.716033 569.657865 177.341588 566.468695 159.851928 562.925173 C 142.705203 559.736004 123.50087 557.255538 101.895997 555.83813 L 83.034599 555.83813 L 83.034599 601.903914 L 101.895997 601.903914 C 133.445971 603.321323 162.252469 608.282253 189.001361 617.141058 C 215.750252 625.645511 234.268716 633.795611 244.899685 640.882655 C 255.530655 648.324051 265.132821 655.765447 273.020315 662.85249 C 274.392053 664.978604 278.164332 666.04166 285.023022 666.04166 C 290.852909 666.04166 296.682796 663.915547 302.169748 660.017673 L 302.169748 360.944426 L 302.855617 61.162475 C 307.6567 56.201544 311.771914 53.366727 314.858324 51.949318 C 318.28767 50.531909 326.175163 49.468853 338.86374 48.051444 C 351.552317 46.634035 372.471321 45.925331 400.934885 45.925331 L 426.997908 45.925331 L 426.997908 -0.140454 L 416.024004 -0.140454 C 401.963689 1.985659 349.151775 3.048716 256.902393 3.048716 C 166.367684 3.048716 113.898704 1.985659 99.838389 -0.140454 L 87.835682 -0.140454 L 87.835682 45.925331 L 113.898704 45.925331 C 128.644888 45.925331 141.333465 45.925331 151.964434 45.925331 C 162.595404 45.925331 171.168767 46.279683 176.998653 46.988387 C 182.82854 47.697092 188.315492 48.760148 193.116575 49.823205 C 197.574724 51.240614 200.3182 51.949318 201.004069 51.949318 C 201.689938 51.949318 203.747545 53.721079 206.833955 56.910249 C 210.2633 60.45377 212.320907 61.516827 213.006776 61.162475 Z M 213.006776 578.162317 "
     transform="matrix(0.000000000000000001, -0.0113907, -0.0110236, -0.000000000000000001, 50.670327, 68.488788)"
     id="path219" />
  <g
     fill="#000000"
     fill-opacity="1"
     id="g223">
    <use
       xlink:href="#glyph-1-12"
       x="48.540768"
       y="62.146175"
       id="use221" />
  </g>
  <path
     fill-rule="nonzero"
     fill="rgb(96.078491%, 96.078491%, 96.078491%)"
     fill-opacity="1"
     d="M 58.621094 54.140625 L 86.253906 54.140625 L 86.253906 196.03125 L 58.621094 196.03125 Z M 58.621094 54.140625 "
     id="path225" />
  <g
     clip-path="url(#clip-2)"
     id="g229">
    <path
       fill-rule="nonzero"
       fill="#f8f9fa"
       fill-opacity="1"
       d="M 64.597656,187.07031 V 76.546875 H 79.53125 V 187.07031 Z m 0,0"
       id="path227" />
  </g>
  <g
     fill="#000000"
     fill-opacity="1"
     id="g243">
    <use
       xlink:href="#glyph-1-1"
       x="76.545059"
       y="186.92863"
       id="use231" />
    <use
       xlink:href="#glyph-1-2"
       x="76.545059"
       y="177.96288"
       id="use233" />
    <use
       xlink:href="#glyph-1-3"
       x="76.545059"
       y="174.97649"
       id="use235" />
    <use
       xlink:href="#glyph-1-4"
       x="76.545059"
       y="167.50066"
       id="use237" />
    <use
       xlink:href="#glyph-1-5"
       x="76.545059"
       y="160.02483"
       id="use239" />
    <use
       xlink:href="#glyph-1-6"
       x="76.545059"
       y="155.54851"
       id="use241" />
  </g>
  <g
     fill="#000000"
     fill-opacity="1"
     id="g247">
    <use
       xlink:href="#glyph-2-1"
       x="76.545059"
       y="148.82748"
       id="use245" />
  </g>
  <g
     fill="#000000"
     fill-opacity="1"
     id="g269">
    <use
       xlink:href="#glyph-1-7"
       x="76.545059"
       y="135.38542"
       id="use249" />
    <use
       xlink:href="#glyph-1-8"
       x="76.545059"
       y="125.67799"
       id="use251" />
    <use
       xlink:href="#glyph-1-4"
       x="76.545059"
       y="122.6916"
       id="use253" />
    <use
       xlink:href="#glyph-1-9"
       x="76.545059"
       y="115.21577"
       id="use255" />
    <use
       xlink:href="#glyph-1-9"
       x="76.545059"
       y="108.49474"
       id="use257" />
    <use
       xlink:href="#glyph-1-2"
       x="76.545059"
       y="101.77371"
       id="use259" />
    <use
       xlink:href="#glyph-1-10"
       x="76.545059"
       y="98.787315"
       id="use261" />
    <use
       xlink:href="#glyph-1-2"
       x="76.545059"
       y="95.052681"
       id="use263" />
    <use
       xlink:href="#glyph-1-11"
       x="76.545059"
       y="92.066284"
       id="use265" />
    <use
       xlink:href="#glyph-1-5"
       x="76.545059"
       y="84.590454"
       id="use267" />
  </g>
  <g
     fill="#000000"
     fill-opacity="1"
     id="g273">
    <use
       xlink:href="#glyph-1-12"
       x="76.545059"
       y="80.114143"
       id="use271" />
  </g>
  <path
     fill-rule="nonzero"
     fill="rgb(19.999695%, 19.999695%, 19.999695%)"
     fill-opacity="1"
     d="M 78.863281 74.640625 C 78.863281 74.617188 78.871094 74.585938 78.894531 74.542969 C 78.914063 74.5 78.929688 74.441406 78.941406 74.367188 C 78.949219 74.292969 78.957031 74.226563 78.957031 74.171875 C 78.957031 74.035156 78.886719 73.90625 78.753906 73.785156 C 78.617188 73.667969 78.464844 73.582031 78.300781 73.527344 C 78.019531 73.421875 77.222656 73.238281 75.914063 72.980469 C 74.605469 72.722656 73.359375 72.476563 72.171875 72.238281 C 70.988281 72.003906 70.390625 71.886719 70.378906 71.886719 L 70.332031 71.886719 L 70.332031 72.644531 C 70.332031 73.148438 70.324219 73.414063 70.300781 73.449219 C 70.269531 73.492188 70.21875 73.511719 70.144531 73.511719 L 69.710938 73.398438 C 69.65625 73.378906 69.632813 73.335938 69.632813 73.269531 C 69.632813 73.207031 69.625 72.953125 69.617188 72.515625 C 69.617188 72 69.609375 71.742188 69.601563 71.742188 C 69.578125 71.742188 69.320313 71.691406 68.820313 71.59375 C 68.320313 71.5 68.019531 71.433594 67.917969 71.402344 C 66.199219 71.003906 65.34375 70.21875 65.34375 69.050781 C 65.363281 68.652344 65.476563 68.324219 65.6875 68.066406 C 65.894531 67.808594 66.167969 67.679688 66.511719 67.679688 C 66.886719 67.679688 67.15625 67.792969 67.324219 68.019531 C 67.488281 68.246094 67.578125 68.46875 67.589844 68.695313 C 67.589844 69.167969 67.371094 69.40625 66.933594 69.40625 C 66.734375 69.40625 66.566406 69.34375 66.417969 69.226563 C 66.273438 69.109375 66.164063 68.980469 66.089844 68.839844 L 66.015625 68.695313 C 65.953125 68.867188 65.921875 69.027344 65.921875 69.179688 C 65.921875 69.308594 65.972656 69.429688 66.078125 69.550781 C 66.179688 69.667969 66.324219 69.746094 66.511719 69.789063 C 66.8125 69.867188 67.21875 69.953125 67.730469 70.046875 C 68.238281 70.144531 68.667969 70.230469 69.023438 70.304688 C 69.375 70.382813 69.5625 70.417969 69.585938 70.417969 C 69.605469 70.417969 69.617188 70.125 69.617188 69.53125 C 69.617188 69.050781 69.621094 68.769531 69.632813 68.695313 C 69.640625 68.621094 69.671875 68.5625 69.726563 68.519531 C 69.765625 68.507813 69.855469 68.519531 69.988281 68.550781 C 70.125 68.582031 70.207031 68.609375 70.238281 68.632813 C 70.292969 68.652344 70.316406 68.699219 70.316406 68.777344 C 70.316406 68.851563 70.324219 69.140625 70.332031 69.644531 L 70.332031 70.546875 L 72.234375 70.917969 C 74.8125 71.433594 76.425781 71.792969 77.070313 72 C 77.953125 72.289063 78.605469 72.664063 79.035156 73.125 C 79.367188 73.523438 79.53125 73.914063 79.53125 74.300781 C 79.53125 74.644531 79.433594 74.957031 79.234375 75.238281 C 79.039063 75.515625 78.757813 75.65625 78.394531 75.65625 C 78.007813 75.65625 77.730469 75.542969 77.550781 75.316406 C 77.375 75.089844 77.285156 74.867188 77.285156 74.640625 C 77.285156 74.167969 77.503906 73.929688 77.941406 73.929688 C 78.140625 73.929688 78.3125 73.992188 78.457031 74.109375 C 78.601563 74.226563 78.710938 74.355469 78.785156 74.496094 Z M 78.863281 74.640625 "
     id="path275" />
  <g
     clip-path="url(#clip-3)"
     id="g279">
    <path
       fill="none"
       stroke-width="7.44821"
       stroke-linecap="butt"
       stroke-linejoin="miter"
       stroke="#333333"
       stroke-opacity="0.2"
       stroke-miterlimit="4"
       d="m 117.98993,-162.09957 c 1.45473,0 3.39436,-0.50105 6.06137,-2.00422 2.667,-1.25263 6.30382,-2.25474 10.91046,-3.00632 4.60664,-0.50105 8.72837,-1.00211 12.12273,-1.00211 8.48592,0 16.48692,4.50949 24.00301,13.02741 7.27365,8.76844 12.60765,18.53899 16.00201,29.06113 6.54628,18.03794 17.94165,69.145443 33.94366,153.071982 16.00201,83.926538 31.27665,163.844648 46.06639,240.004848 14.54728,75.90968 21.82092,114.2403 21.82092,114.99189 v 3.00632 h -47.03621 c -31.27665,0 -47.76357,0.50105 -49.94566,2.00422 -2.667,2.00421 -3.87928,5.26106 -3.87928,10.02108 l 7.03119,27.80849 c 1.21227,3.50738 3.87927,5.01054 8.001,5.01054 3.87928,0 19.63883,0.50105 46.79376,1.00211 32.00402,0 48.00602,0.50105 48.00602,1.00211 0,1.50316 3.15192,18.03794 9.21328,50.10539 5.81892,32.06746 9.94065,51.35803 11.88028,57.87173 24.73038,110.23188 73.46377,165.09729 145.95772,165.09729 24.73038,-1.25264 45.09657,-8.51792 61.09858,-22.04638 16.00201,-13.27793 24.00302,-30.81482 24.00302,-52.86119 0,-24.05059 -7.03119,-41.33695 -21.09356,-52.10961 -14.06237,-10.52214 -27.88229,-16.28426 -41.94466,-17.03584 -29.33702,0 -44.12675,14.02951 -44.12675,42.08853 0,12.77688 3.87927,23.54954 11.15291,33.06957 7.27364,9.26949 15.27465,16.28425 24.00302,21.04426 l 8.97082,4.76002 c -10.66801,4.00843 -20.60865,6.01264 -30.06438,6.01264 -8.00101,0 -15.5171,-3.25685 -23.0332,-10.02108 -7.27364,-6.5137 -12.12273,-15.7832 -14.78973,-27.80849 -4.8491,-19.29058 -10.1831,-45.34539 -16.00201,-78.16442 -6.06137,-32.56851 -11.39537,-60.12648 -16.00201,-82.92443 -4.8491,-22.54743 -7.03119,-34.57272 -7.03119,-36.07589 0,-1.25263 18.1841,-2.00421 55.03722,-2.00421 29.82192,0 47.27866,-0.25053 51.8853,-1.00211 4.60664,-0.50105 8.24346,-2.50527 10.91046,-6.01265 0.72736,-2.50527 0,-8.26739 -1.93964,-16.78531 -1.93964,-8.76844 -3.63682,-14.02951 -5.09155,-16.03372 -1.21227,-3.50738 -4.12173,-5.01054 -8.97082,-5.01054 -4.60664,0 -22.54829,-0.50106 -53.82494,-1.00211 H 372.08244 L 349.04924,263.04472 C 317.04523,97.696911 294.73939,-5.770733 281.8893,-47.107685 263.94765,-103.72678 240.672,-145.56479 212.06235,-173.12276 c -24.73038,-21.29479 -48.97585,-31.81692 -72.97886,-31.81692 -21.33602,0 -40.73239,6.26317 -58.189127,19.04005 -17.214283,12.52635 -25.942651,30.56429 -25.942651,53.8633 0,24.80217 7.031185,42.589585 21.093557,54.113826 14.062372,11.273715 27.882291,17.035835 41.944661,17.035835 29.33702,0 44.12675,-14.029511 44.12675,-42.088531 0,-12.77688 -3.87927,-23.80007 -11.15291,-33.06956 -7.27364,-9.2695 -15.27465,-16.28426 -24.00302,-21.04427 z m 0,0"
       transform="matrix(0,-0.0161113,-0.0155921,0,76.335803,76.541591)"
       id="path277" />
  </g>
  <path
     fill-rule="nonzero"
     fill="rgb(19.999695%, 19.999695%, 19.999695%)"
     fill-opacity="1"
     stroke-width="10.534948"
     stroke-linecap="butt"
     stroke-linejoin="miter"
     stroke="rgb(19.999695%, 19.999695%, 19.999695%)"
     stroke-opacity="0.1412"
     stroke-miterlimit="4"
     d="M 108.89691 429.014716 C 91.064316 429.014716 76.661066 435.038703 66.030097 447.086677 C 55.399127 459.134652 49.912175 473.663091 49.912175 491.026349 C 49.912175 538.509542 67.744769 579.260043 103.067023 613.986558 C 138.389277 648.713072 182.284894 666.07633 235.096808 666.07633 C 295.796215 666.07633 346.207588 647.295664 387.016794 610.088684 C 427.826 572.527352 448.40207 524.335454 449.087939 465.158639 C 449.087939 436.456112 442.229249 409.170993 428.854803 382.948931 C 415.823292 357.081221 399.70537 334.402681 380.843973 314.913311 C 362.325509 295.778293 335.576618 270.97364 300.940233 240.853704 C 276.934818 220.301277 243.67017 189.826989 201.146292 149.076487 L 142.161557 93.088841 L 217.950083 92.025785 C 322.545107 92.025785 378.443431 93.797546 384.959187 96.986715 C 389.76027 98.404124 397.647763 128.169708 408.964602 185.929115 L 408.964602 189.118284 L 449.087939 189.118284 L 449.087939 185.929115 C 448.40207 184.157354 443.943922 153.683065 436.056428 94.860602 C 428.168934 36.392491 423.024917 5.563851 420.96731 3.083385 L 420.96731 -0.105784 L 49.912175 -0.105784 L 49.912175 31.077208 C 49.912175 35.683787 51.969782 40.644717 56.084996 45.96 C 59.857276 51.275283 70.145311 62.968905 85.920298 81.040867 C 105.467565 102.301998 121.928421 121.082664 135.988736 137.028513 C 142.161557 143.761204 153.478396 156.163531 169.939252 173.88114 C 186.743043 191.953102 198.059881 204.355428 203.889768 211.08812 C 210.062589 217.820811 219.664755 228.805729 233.039201 244.042873 C 246.413647 259.280017 255.672878 270.619287 261.15983 278.060683 C 266.303848 285.502079 273.848407 295.423941 284.136442 307.826267 C 294.081543 320.582946 300.940233 331.213512 305.055447 340.072316 C 309.170661 348.576769 313.971744 358.49863 320.144565 369.129196 C 325.974452 379.759761 330.4326 390.390327 332.833142 401.020893 C 335.576618 411.651458 337.977159 421.57332 340.034767 431.140829 C 342.092374 440.353986 343.121177 451.338904 343.121177 464.095582 C 343.121177 505.90914 331.804338 542.407416 309.170661 572.881704 C 286.194049 603.710344 253.958206 618.947489 212.120196 618.947489 C 189.829453 618.947489 170.625121 613.277854 154.164265 601.938584 C 137.360474 590.599313 125.700701 579.614396 118.84201 568.98383 C 112.326255 558.353264 108.89691 551.974925 108.89691 549.848812 C 108.89691 549.49446 110.611582 549.140107 114.040927 549.140107 C 126.043635 549.140107 138.389277 544.179177 151.077854 534.96602 C 163.766431 525.752863 169.939252 510.161367 169.939252 488.900235 C 169.939252 472.245683 164.795234 458.425947 154.164265 447.086677 C 143.19036 435.747407 128.444177 429.72342 108.89691 429.014716 Z M 108.89691 429.014716 "
     transform="matrix(0.000000000000000001, -0.0113907, -0.0110236, -0.000000000000000001, 78.674615, 68.115408)"
     id="path281" />
  <g
     clip-path="url(#clip-4)"
     id="g287">
    <g
       fill="#333333"
       fill-opacity="1"
       id="g285">
      <use
         xlink:href="#glyph-1-12"
         x="76.545059"
         y="61.772793"
         id="use283" />
    </g>
  </g>
  <path
     fill-rule="nonzero"
     fill="rgb(0%, 0%, 0%)"
     fill-opacity="1"
     d="M 92.355469 125.085938 C 92.355469 124.789063 92.441406 124.527344 92.613281 124.300781 C 92.785156 124.078125 93.003906 123.964844 93.269531 123.964844 C 93.511719 123.964844 93.722656 124.066406 93.90625 124.265625 C 94.085938 124.464844 94.183594 124.730469 94.195313 125.066406 C 94.195313 125.378906 94.109375 125.644531 93.9375 125.871094 C 93.761719 126.09375 93.546875 126.207031 93.28125 126.207031 C 93.019531 126.207031 92.800781 126.101563 92.628906 125.886719 C 92.457031 125.675781 92.367188 125.410156 92.355469 125.085938 Z M 99.144531 125.085938 C 99.144531 124.789063 99.230469 124.527344 99.402344 124.300781 C 99.574219 124.078125 99.789063 123.964844 100.054688 123.964844 C 100.296875 123.964844 100.507813 124.066406 100.691406 124.265625 C 100.875 124.464844 100.96875 124.730469 100.980469 125.066406 C 100.980469 125.378906 100.894531 125.644531 100.722656 125.871094 C 100.550781 126.09375 100.332031 126.207031 100.070313 126.207031 C 99.804688 126.207031 99.589844 126.101563 99.414063 125.886719 C 99.242188 125.675781 99.152344 125.410156 99.144531 125.085938 Z M 105.929688 125.085938 C 105.929688 124.789063 106.015625 124.527344 106.1875 124.300781 C 106.359375 124.078125 106.574219 123.964844 106.839844 123.964844 C 107.082031 123.964844 107.292969 124.066406 107.476563 124.265625 C 107.660156 124.464844 107.753906 124.730469 107.765625 125.066406 C 107.765625 125.378906 107.679688 125.644531 107.507813 125.871094 C 107.335938 126.09375 107.117188 126.207031 106.855469 126.207031 C 106.589844 126.207031 106.375 126.101563 106.203125 125.886719 C 106.03125 125.675781 105.9375 125.410156 105.929688 125.085938 Z M 105.929688 125.085938 "
     id="path289" />
  <g
     clip-path="url(#clip-5)"
     id="g293">
    <path
       fill="none"
       stroke-width="6.42759"
       stroke-linecap="butt"
       stroke-linejoin="miter"
       stroke="#000000"
       stroke-opacity="0.2118"
       stroke-miterlimit="4"
       d="m 77.910938,249.99381 c 0,15.90158 5.660942,29.92008 16.982826,42.0555 11.321886,11.92619 25.731556,17.9939 43.229016,17.9939 15.95356,0 29.8486,-5.44002 41.94243,-16.11082 11.83652,-10.6708 18.26941,-24.89853 19.04135,-42.89242 0,-16.73851 -5.66094,-30.96624 -16.98282,-43.10166 -11.5792,-11.92619 -25.73156,-17.9939 -43.22902,-17.9939 -17.24014,0 -31.64981,5.64925 -42.971693,17.15697 -11.321885,11.2985 -17.240143,25.52623 -18.012089,42.89243 z m 447.214432,0 c 0,15.90158 5.66095,29.92008 16.98283,42.0555 11.32188,11.92619 25.47424,17.9939 42.9717,17.9939 15.95356,0 29.8486,-5.44002 41.94243,-16.11082 12.09384,-10.6708 18.26941,-24.89853 19.04135,-42.89242 0,-16.73851 -5.66094,-30.96624 -16.98282,-43.10166 -11.32189,-11.92619 -25.73156,-17.9939 -42.9717,-17.9939 -17.49746,0 -31.64981,5.64925 -43.22901,17.15697 -11.32189,11.2985 -17.24015,25.52623 -17.75478,42.89243 z m 446.95712,0 c 0,15.90158 5.66095,29.92008 16.98283,42.0555 11.32188,11.92619 25.47428,17.9939 42.97168,17.9939 15.9536,0 29.8486,-5.44002 41.9425,-16.11082 12.0938,-10.6708 18.2694,-24.89853 19.0413,-42.89242 0,-16.73851 -5.6609,-30.96624 -16.9828,-43.10166 -11.3219,-11.92619 -25.7316,-17.9939 -42.9717,-17.9939 -17.4975,0 -31.6498,5.64925 -42.97172,17.15697 -11.32188,11.2985 -17.49746,25.52623 -18.01209,42.89243 z m 0,0"
       transform="matrix(0.0151808,0,0,-0.0186695,91.17272,129.7532)"
       id="path291" />
  </g>
  <path
     fill-rule="nonzero"
     fill="rgb(96.078491%, 96.078491%, 96.078491%)"
     fill-opacity="1"
     d="M 114.632813 54.140625 L 142.261719 54.140625 L 142.261719 196.03125 L 114.632813 196.03125 Z M 114.632813 54.140625 "
     id="path295" />
  <g
     fill="#000000"
     fill-opacity="1"
     id="g309">
    <use
       xlink:href="#glyph-1-1"
       x="132.55363"
       y="189.0873"
       id="use297" />
    <use
       xlink:href="#glyph-1-2"
       x="132.55363"
       y="180.12154"
       id="use299" />
    <use
       xlink:href="#glyph-1-3"
       x="132.55363"
       y="177.13515"
       id="use301" />
    <use
       xlink:href="#glyph-1-4"
       x="132.55363"
       y="169.65932"
       id="use303" />
    <use
       xlink:href="#glyph-1-5"
       x="132.55363"
       y="162.18349"
       id="use305" />
    <use
       xlink:href="#glyph-1-6"
       x="132.55363"
       y="157.70717"
       id="use307" />
  </g>
  <g
     fill="#000000"
     fill-opacity="1"
     id="g313">
    <use
       xlink:href="#glyph-2-1"
       x="132.55363"
       y="150.98615"
       id="use311" />
  </g>
  <g
     fill="#000000"
     fill-opacity="1"
     id="g335">
    <use
       xlink:href="#glyph-1-7"
       x="132.55363"
       y="137.54408"
       id="use315" />
    <use
       xlink:href="#glyph-1-8"
       x="132.55363"
       y="127.83666"
       id="use317" />
    <use
       xlink:href="#glyph-1-4"
       x="132.55363"
       y="124.85027"
       id="use319" />
    <use
       xlink:href="#glyph-1-9"
       x="132.55363"
       y="117.37444"
       id="use321" />
    <use
       xlink:href="#glyph-1-9"
       x="132.55363"
       y="110.6534"
       id="use323" />
    <use
       xlink:href="#glyph-1-2"
       x="132.55363"
       y="103.93237"
       id="use325" />
    <use
       xlink:href="#glyph-1-10"
       x="132.55363"
       y="100.94598"
       id="use327" />
    <use
       xlink:href="#glyph-1-2"
       x="132.55363"
       y="97.211342"
       id="use329" />
    <use
       xlink:href="#glyph-1-11"
       x="132.55363"
       y="94.224953"
       id="use331" />
    <use
       xlink:href="#glyph-1-5"
       x="132.55363"
       y="86.749115"
       id="use333" />
  </g>
  <g
     fill="#000000"
     fill-opacity="1"
     id="g339">
    <use
       xlink:href="#glyph-1-12"
       x="132.55363"
       y="82.272804"
       id="use337" />
  </g>
  <path
     fill-rule="nonzero"
     fill="rgb(19.999695%, 19.999695%, 19.999695%)"
     fill-opacity="1"
     d="M 134.871094 76.871094 C 134.871094 76.851563 134.878906 76.816406 134.902344 76.773438 C 134.921875 76.730469 134.9375 76.671875 134.949219 76.597656 C 134.957031 76.523438 134.964844 76.457031 134.964844 76.402344 C 134.964844 76.261719 134.894531 76.132813 134.761719 76.015625 C 134.625 75.898438 134.476563 75.8125 134.308594 75.757813 C 134.027344 75.648438 133.234375 75.464844 131.921875 75.207031 C 130.613281 74.949219 129.367188 74.703125 128.179688 74.464844 C 126.996094 74.226563 126.398438 74.109375 126.386719 74.109375 L 126.339844 74.109375 L 126.339844 74.867188 C 126.339844 75.375 126.332031 75.644531 126.308594 75.675781 C 126.277344 75.71875 126.226563 75.742188 126.15625 75.742188 L 125.71875 75.628906 C 125.664063 75.605469 125.640625 75.5625 125.640625 75.5 C 125.640625 75.433594 125.632813 75.179688 125.625 74.738281 C 125.625 74.222656 125.617188 73.964844 125.609375 73.964844 C 125.585938 73.964844 125.328125 73.914063 124.828125 73.820313 C 124.328125 73.722656 124.027344 73.65625 123.925781 73.625 C 122.210938 73.226563 121.351563 72.441406 121.351563 71.265625 C 121.371094 70.867188 121.488281 70.539063 121.695313 70.28125 C 121.902344 70.023438 122.179688 69.890625 122.519531 69.890625 C 122.894531 69.890625 123.164063 70.003906 123.332031 70.230469 C 123.5 70.457031 123.585938 70.683594 123.597656 70.910156 C 123.597656 71.382813 123.378906 71.621094 122.941406 71.621094 C 122.746094 71.621094 122.574219 71.5625 122.429688 71.445313 C 122.28125 71.324219 122.171875 71.195313 122.101563 71.054688 L 122.023438 70.910156 C 121.960938 71.082031 121.929688 71.246094 121.929688 71.394531 C 121.929688 71.523438 121.980469 71.648438 122.085938 71.765625 C 122.1875 71.886719 122.335938 71.964844 122.519531 72.007813 C 122.824219 72.085938 123.226563 72.171875 123.738281 72.265625 C 124.246094 72.363281 124.679688 72.449219 125.03125 72.527344 C 125.386719 72.601563 125.570313 72.640625 125.59375 72.640625 C 125.613281 72.640625 125.625 72.34375 125.625 71.75 C 125.625 71.265625 125.628906 70.984375 125.640625 70.910156 C 125.648438 70.835938 125.679688 70.777344 125.734375 70.734375 C 125.773438 70.722656 125.863281 70.734375 126 70.765625 C 126.132813 70.796875 126.214844 70.824219 126.246094 70.84375 C 126.300781 70.867188 126.324219 70.914063 126.324219 70.992188 C 126.324219 71.066406 126.332031 71.355469 126.339844 71.863281 L 126.339844 72.769531 L 128.242188 73.140625 C 130.820313 73.65625 132.433594 74.019531 133.078125 74.222656 C 133.960938 74.511719 134.617188 74.890625 135.042969 75.351563 C 135.375 75.75 135.539063 76.144531 135.539063 76.53125 C 135.539063 76.878906 135.441406 77.191406 135.246094 77.46875 C 135.046875 77.75 134.765625 77.890625 134.402344 77.890625 C 134.019531 77.890625 133.738281 77.777344 133.5625 77.550781 C 133.382813 77.324219 133.296875 77.097656 133.296875 76.871094 C 133.296875 76.398438 133.515625 76.160156 133.949219 76.160156 C 134.148438 76.160156 134.320313 76.21875 134.464844 76.339844 C 134.609375 76.457031 134.71875 76.585938 134.792969 76.726563 Z M 134.871094 76.871094 "
     id="path341" />
  <g
     clip-path="url(#clip-6)"
     id="g345">
    <path
       fill="none"
       stroke-width="7.42716"
       stroke-linecap="butt"
       stroke-linejoin="miter"
       stroke="#333333"
       stroke-opacity="0.2"
       stroke-miterlimit="4"
       d="m 118.06525,-162.05055 c 1.20884,0 3.38477,-0.50105 6.04423,-2.00421 2.65947,-1.25264 6.28601,-2.25475 10.87963,-3.00633 4.59362,-0.50105 8.7037,-1.0021 12.08847,-1.0021 8.7037,0 16.68209,4.50948 23.93517,13.0274 7.25309,8.76844 12.57201,18.28847 15.95679,29.06113 6.76954,18.03794 18.1327,68.894918 34.08949,153.071985 15.95678,83.926535 31.18826,163.844645 45.93619,240.004845 14.74794,75.90968 22.00102,114.24031 22.00102,114.99189 v 3.00632 h -46.90327 c -31.43003,0 -48.11212,0.50106 -50.04628,2.00422 -2.65946,2.00421 -4.11008,5.26106 -4.11008,9.77055 l 7.01132,28.05902 c 1.45062,3.50738 4.11008,5.01054 7.97839,5.01054 4.11008,0 19.82509,0.50106 47.14504,1.00211 31.91357,0 47.87035,0.50105 47.87035,1.00211 0,1.50316 3.143,18.03794 8.94547,50.10539 6.04424,32.06746 10.15432,51.35804 12.08847,57.87174 24.66049,109.98134 73.25614,165.09728 146.02874,165.09728 24.66049,-1.25263 44.96912,-8.76844 60.9259,-22.04638 15.95679,-13.27793 24.17695,-31.06534 24.17695,-52.86119 0,-24.05059 -7.01132,-41.33695 -21.03394,-52.10961 -14.02263,-10.77266 -28.04526,-16.28426 -42.06789,-17.03584 -29.2541,0 -44.00204,14.02952 -44.00204,42.08854 0,12.52635 3.62655,23.54953 10.87963,32.81903 7.49485,9.52003 15.47324,16.53478 24.17694,21.04427 l 8.94547,5.01054 c -10.63785,4.00843 -20.79217,6.01265 -29.97941,6.01265 -7.97839,0 -15.71501,-3.25686 -22.96809,-10.02108 -7.49486,-6.5137 -12.33025,-16.03373 -14.98971,-27.8085 -4.83539,-19.5411 -10.15432,-45.34538 -15.95678,-78.16442 -6.04424,-32.56851 -11.36317,-60.377 -16.19856,-82.92443 -4.59361,-22.79795 -7.01131,-34.57272 -7.01131,-36.07588 0,-1.25264 18.37448,-2.00422 55.12343,-2.00422 29.97941,0 47.38681,-0.25053 51.98043,-1.00211 4.59362,-0.50105 8.22016,-2.50527 10.87963,-6.01264 0.72531,-2.50527 0,-8.2674 -1.93416,-17.03584 -1.93415,-8.51792 -3.62654,-13.77898 -4.83539,-15.7832 -1.45061,-3.50738 -4.35185,-5.01054 -9.18724,-5.01054 -4.59361,0 -22.48455,-0.50105 -53.91458,-1.00211 H 371.92316 L 348.95506,263.09374 C 317.0415,97.745934 294.55694,-5.72171 281.98493,-47.058662 264.09399,-103.67776 240.64235,-145.76629 212.11356,-173.07373 c -24.66048,-21.2948 -49.0792,-31.81693 -73.01437,-31.81693 -21.51748,0 -40.859038,6.26317 -58.024668,18.78952 -17.4074,12.77688 -26.1111,30.81482 -26.1111,54.11383 0,24.55164 7.011314,42.589588 21.033941,53.863302 14.022628,11.524241 28.045257,17.035835 42.067887,17.035835 29.2541,0 44.00203,-14.029511 44.00203,-41.838007 0,-12.77688 -3.62654,-23.80006 -11.12139,-33.06956 -7.25308,-9.2695 -15.23148,-16.28426 -23.93517,-21.04427 z m 0,0"
       transform="matrix(0,-0.0161569,-0.0155921,0,132.34438,78.778665)"
       id="path343" />
  </g>
  <path
     fill-rule="nonzero"
     fill="rgb(19.999695%, 19.999695%, 19.999695%)"
     fill-opacity="1"
     d="M 127.660156 67.65625 C 127.660156 67.679688 127.660156 67.707031 127.660156 67.746094 C 127.660156 67.9375 127.65625 68.050781 127.648438 68.089844 C 127.644531 68.128906 127.601563 68.148438 127.527344 68.148438 C 127.332031 68.148438 127.210938 68.105469 127.164063 68.019531 C 127.15625 68.007813 127.152344 67.636719 127.152344 66.914063 C 127.152344 66.328125 127.152344 65.992188 127.152344 65.90625 C 127.152344 65.824219 127.175781 65.769531 127.21875 65.746094 C 130.867188 64.140625 132.734375 63.324219 132.832031 63.292969 L 130.484375 62.675781 C 128.933594 62.273438 128.105469 62.070313 128.003906 62.070313 C 127.804688 62.070313 127.691406 62.3125 127.660156 62.800781 C 127.660156 62.984375 127.621094 63.074219 127.539063 63.074219 C 127.523438 63.074219 127.480469 63.066406 127.40625 63.050781 C 127.289063 63.023438 127.21875 63 127.199219 62.984375 C 127.175781 62.96875 127.160156 62.929688 127.152344 62.871094 C 127.152344 62.847656 127.15625 62.730469 127.164063 62.515625 C 127.171875 62.300781 127.179688 61.984375 127.1875 61.566406 C 127.1875 61.1875 127.183594 60.898438 127.175781 60.699219 C 127.167969 60.5 127.164063 60.386719 127.164063 60.355469 C 127.164063 60.242188 127.203125 60.183594 127.273438 60.183594 C 127.4375 60.183594 127.546875 60.214844 127.605469 60.277344 C 127.644531 60.292969 127.660156 60.375 127.660156 60.527344 C 127.691406 61.070313 127.835938 61.40625 128.101563 61.542969 L 134.605469 63.246094 C 134.65625 63.261719 134.683594 63.339844 134.683594 63.484375 C 134.683594 63.59375 134.675781 63.65625 134.660156 63.679688 C 134.640625 63.703125 133.527344 64.195313 131.320313 65.152344 L 128.023438 66.605469 L 130.890625 67.347656 C 132.773438 67.84375 133.746094 68.089844 133.8125 68.089844 C 134.054688 68.050781 134.175781 67.777344 134.175781 67.265625 L 134.175781 67.152344 C 134.210938 67.105469 134.242188 67.085938 134.265625 67.085938 C 134.285156 67.085938 134.355469 67.09375 134.472656 67.105469 C 134.570313 67.136719 134.640625 67.175781 134.683594 67.222656 L 134.683594 67.371094 C 134.667969 67.605469 134.660156 68.015625 134.660156 68.605469 C 134.660156 68.816406 134.660156 69.011719 134.660156 69.1875 C 134.660156 69.363281 134.660156 69.503906 134.660156 69.609375 C 134.660156 69.714844 134.664063 69.78125 134.671875 69.804688 C 134.671875 69.917969 134.640625 69.972656 134.574219 69.972656 C 134.542969 69.972656 134.484375 69.964844 134.398438 69.941406 C 134.308594 69.917969 134.257813 69.898438 134.242188 69.882813 C 134.199219 69.867188 134.175781 69.78125 134.175781 69.621094 C 134.152344 69.101563 134.011719 68.765625 133.746094 68.613281 C 133.703125 68.585938 132.683594 68.3125 130.691406 67.804688 L 127.695313 67.027344 C 127.6875 67.042969 127.675781 67.253906 127.660156 67.65625 Z M 127.660156 67.65625 "
     id="path347" />
  <g
     clip-path="url(#clip-7)"
     id="g351">
    <path
       fill="none"
       stroke-width="10.5052"
       stroke-linecap="butt"
       stroke-linejoin="miter"
       stroke="#333333"
       stroke-opacity="0.1412"
       stroke-miterlimit="4"
       d="m 233.94549,637.08879 c -2.05179,0 -4.44555,0 -7.8652,0 -16.7563,0 -26.67329,0.35435 -30.09294,1.06306 -3.41965,0.35435 -5.12948,4.25222 -5.12948,10.98491 0,17.71761 3.76162,28.70253 11.28485,32.95476 1.0259,0.7087 33.5126,1.06305 96.77617,1.06305 51.29479,0 80.7038,0 88.22704,0 7.18127,0 11.96878,-2.12611 14.02057,-6.02398 C 541.71423,346.16564 613.18497,176.7853 615.92069,167.92649 l 54.03051,212.96567 c 35.22242,140.67782 53.00461,215.80048 53.00461,225.01364 0,18.07196 -21.20184,28.34817 -63.9475,31.18299 -16.07237,0 -23.93757,3.54352 -23.93757,10.98492 0,1.41741 0.68393,5.31528 2.05179,12.04797 2.39376,10.63057 4.44555,17.00891 5.81341,18.78067 1.36786,2.12611 4.78752,3.54352 9.91699,4.25222 2.0518,0 12.31075,-0.35435 31.11884,-1.06305 18.80809,-0.70871 46.50728,-1.41741 83.09756,-2.12612 33.17063,0 58.47606,0.35436 75.91629,1.06306 17.44023,0.7087 27.35722,1.06306 30.09294,1.06306 9.91699,0 15.04647,-3.54352 15.04647,-9.92186 0,-14.8828 -2.73572,-24.80466 -8.20716,-30.11994 -1.36786,-3.54352 -8.54913,-4.96093 -21.88578,-4.96093 -47.53317,-2.83482 -76.94218,-15.94585 -88.91097,-40.0418 L 620.02427,7.050598 c -1.36786,-4.606578 -8.20717,-7.0870435 -20.85988,-7.0870435 -9.57503,0 -15.04647,0.7087045 -17.09826,2.1261135 C 580.01433,3.861429 536.92671,104.8518 453.14522,305.06079 L 325.93415,604.13404 260.96075,344.03953 C 217.53116,173.24177 195.98735,85.00808 195.98735,78.984092 199.407,57.014257 223.34457,46.029339 268.14202,46.029339 h 9.91699 c 4.10358,-3.18917 5.81341,-6.023987 5.81341,-8.1501 0,-1.771761 -0.68393,-8.150101 -1.70983,-18.780666 -2.73572,-8.858805 -6.15537,-15.237144 -10.25895,-19.1350185 H 258.90896 C 238.39104,1.380963 202.48469,2.089668 150.84793,2.089668 c -18.46612,0 -35.56438,0 -50.952818,0 -15.388437,0 -27.699186,0 -36.932248,0 -9.233062,0 -15.046471,-0.354353 -17.098263,-1.063057 -9.916992,0 -14.704506,2.834818 -14.704506,8.858805 0,2.834817 0.68393,8.1501 2.735722,15.945848 2.051792,8.150101 3.761618,12.756679 5.129479,14.174088 1.367861,3.897874 8.891097,6.023987 22.911672,6.023987 45.481382,2.126113 74.890392,14.882792 88.227032,38.978741 2.39376,3.897874 26.33133,96.38379 70.78681,277.10341 l 68.05109,271.78813 c -1.36786,0.7087 -19.83399,1.77176 -55.05641,3.18917 z m 0,0"
       transform="matrix(0,-0.0114229,-0.0110236,0,134.68319,70.328596)"
       id="path349" />
  </g>
  <g
     clip-path="url(#clip-8)"
     id="g357">
    <g
       fill="#333333"
       fill-opacity="1"
       id="g355">
      <use
         xlink:href="#glyph-1-12"
         x="132.55363"
         y="59.602459"
         id="use353" />
    </g>
  </g>
  <path
     fill="none"
     stroke-width="1"
     stroke-linecap="butt"
     stroke-linejoin="miter"
     stroke="rgb(0%, 0%, 0%)"
     stroke-opacity="1"
     stroke-miterlimit="4"
     d="M 40.001957 71.99866 L 189.999907 71.99866 L 189.999907 262.001643 L 40.001957 262.001643 Z M 40.001957 71.99866 "
     transform="matrix(0.746781, 0, 0, 0.746781, 0.373391, 0.373391)"
     id="path359" />
</svg>
