<?xml version="1.0" encoding="utf-8" standalone="no"?>
<!DOCTYPE svg PUBLIC "-//W3C//DTD SVG 1.1//EN"
  "http://www.w3.org/Graphics/SVG/1.1/DTD/svg11.dtd">
<!-- Created with matplotlib (https://matplotlib.org/) -->
<svg height="432pt" version="1.1" viewBox="0 0 648 432" width="648pt" xmlns="http://www.w3.org/2000/svg" xmlns:xlink="http://www.w3.org/1999/xlink">
 <defs>
  <style type="text/css">
*{stroke-linecap:butt;stroke-linejoin:round;}
  </style>
 </defs>
 <g id="figure_1">
  <g id="patch_1">
   <path d="M 0 432 
L 648 432 
L 648 0 
L 0 0 
z
" style="fill:#ffffff;"/>
  </g>
  <g id="axes_1">
   <g id="patch_2">
    <path d="M 81 378 
L 583.2 378 
L 583.2 51.84 
L 81 51.84 
z
" style="fill:#ffffff;"/>
   </g>
   <g id="PolyCollection_1">
    <defs>
     <path d="M 103.827273 -365.334545 
L 103.827273 -314.81718 
L 154.554545 -219.205835 
L 256.009091 -149.187277 
L 357.463636 -119.638009 
L 458.918182 -103.648039 
L 560.372727 -92.414088 
L 560.372727 -103.882771 
L 560.372727 -103.882771 
L 458.918182 -117.955463 
L 357.463636 -138.933904 
L 256.009091 -173.890318 
L 154.554545 -254.425619 
L 103.827273 -365.334545 
z
" id="mb12d198ceb" style="stroke:#1f77b4;stroke-opacity:0.2;"/>
    </defs>
    <g clip-path="url(#p0a99ca71e2)">
     <use style="fill:#1f77b4;fill-opacity:0.2;stroke:#1f77b4;stroke-opacity:0.2;" x="0" xlink:href="#mb12d198ceb" y="432"/>
    </g>
   </g>
   <g id="PolyCollection_2">
    <defs>
     <path d="M 103.827273 -328.45645 
L 103.827273 -284.534274 
L 154.554545 -189.977162 
L 256.009091 -123.186542 
L 357.463636 -97.219481 
L 458.918182 -83.791478 
L 560.372727 -74.490058 
L 560.372727 -85.428571 
L 560.372727 -85.428571 
L 458.918182 -97.09923 
L 357.463636 -116.848585 
L 256.009091 -147.119738 
L 154.554545 -222.66178 
L 103.827273 -328.45645 
z
" id="m45bb2063d5" style="stroke:#ff7f0e;stroke-opacity:0.2;"/>
    </defs>
    <g clip-path="url(#p0a99ca71e2)">
     <use style="fill:#ff7f0e;fill-opacity:0.2;stroke:#ff7f0e;stroke-opacity:0.2;" x="0" xlink:href="#m45bb2063d5" y="432"/>
    </g>
   </g>
   <g id="PolyCollection_3">
    <defs>
     <path d="M 103.827273 -315.66782 
L 103.827273 -273.011021 
L 154.554545 -181.05013 
L 256.009091 -117.083261 
L 357.463636 -91.622675 
L 458.918182 -78.6573 
L 560.372727 -69.453967 
L 560.372727 -81.563044 
L 560.372727 -81.563044 
L 458.918182 -92.323261 
L 357.463636 -111.775423 
L 256.009091 -140.228019 
L 154.554545 -212.371702 
L 103.827273 -315.66782 
z
" id="m9eab7e5cd9" style="stroke:#2ca02c;stroke-opacity:0.2;"/>
    </defs>
    <g clip-path="url(#p0a99ca71e2)">
     <use style="fill:#2ca02c;fill-opacity:0.2;stroke:#2ca02c;stroke-opacity:0.2;" x="0" xlink:href="#m9eab7e5cd9" y="432"/>
    </g>
   </g>
   <g id="PolyCollection_4">
    <defs>
     <path d="M 103.827273 -312.64381 
L 103.827273 -269.828137 
L 154.554545 -178.499849 
L 256.009091 -114.873908 
L 357.463636 -89.680334 
L 458.918182 -78.158862 
L 560.372727 -68.825455 
L 560.372727 -80.904706 
L 560.372727 -80.904706 
L 458.918182 -91.378016 
L 357.463636 -110.916575 
L 256.009091 -137.967687 
L 154.554545 -210.89279 
L 103.827273 -312.64381 
z
" id="m32ae899af0" style="stroke:#d62728;stroke-opacity:0.2;"/>
    </defs>
    <g clip-path="url(#p0a99ca71e2)">
     <use style="fill:#d62728;fill-opacity:0.2;stroke:#d62728;stroke-opacity:0.2;" x="0" xlink:href="#m32ae899af0" y="432"/>
    </g>
   </g>
   <g id="PolyCollection_5">
    <defs>
     <path d="M 103.827273 -312.64381 
L 103.827273 -269.828137 
L 154.554545 -178.499849 
L 256.009091 -114.873908 
L 357.463636 -89.680334 
L 458.918182 -78.158862 
L 560.372727 -68.825455 
L 560.372727 -80.904706 
L 560.372727 -80.904706 
L 458.918182 -91.378016 
L 357.463636 -110.916575 
L 256.009091 -137.967687 
L 154.554545 -210.89279 
L 103.827273 -312.64381 
z
" id="m5fe937ed8c" style="stroke:#000000;stroke-opacity:0.1;"/>
    </defs>
    <g clip-path="url(#p0a99ca71e2)">
     <use style="fill-opacity:0.1;stroke:#000000;stroke-opacity:0.1;" x="0" xlink:href="#m5fe937ed8c" y="432"/>
    </g>
   </g>
   <g id="matplotlib.axis_1">
    <g id="xtick_1">
     <g id="line2d_1">
      <defs>
       <path d="M 0 0 
L 0 3.5 
" id="mbe1e12758c" style="stroke:#000000;stroke-width:0.8;"/>
      </defs>
      <g>
       <use style="stroke:#000000;stroke-width:0.8;" x="154.554545" xlink:href="#mbe1e12758c" y="378"/>
      </g>
     </g>
     <g id="text_1">
      <!-- $\mathdefault{100}$ -->
      <defs>
       <path d="M 26.59375 63.40625 
C 26.59375 65.5 26.5 65.5 25.09375 65.5 
C 21.203125 61.1875 15.296875 59.796875 9.703125 59.796875 
C 9.40625 59.796875 8.90625 59.796875 8.796875 59.5 
C 8.703125 59.296875 8.703125 59.09375 8.703125 57 
C 11.796875 57 17 57.59375 21 59.984375 
L 21 7.203125 
C 21 3.6875 20.796875 2.5 12.203125 2.5 
L 9.203125 2.5 
L 9.203125 0 
C 14 0 19 0 23.796875 0 
C 28.59375 0 33.59375 0 38.40625 0 
L 38.40625 2.5 
L 35.40625 2.5 
C 26.796875 2.5 26.59375 3.59375 26.59375 7.15625 
z
" id="CMR17-49"/>
       <path d="M 42 31.640625 
C 42 37.75 41.90625 48.125 37.703125 56.109375 
C 34 63.109375 28.09375 65.59375 22.90625 65.59375 
C 18.09375 65.59375 12 63.40625 8.203125 56.203125 
C 4.203125 48.71875 3.796875 39.4375 3.796875 31.640625 
C 3.796875 25.953125 3.90625 17.28125 7 9.671875 
C 11.296875 -0.609375 19 -2 22.90625 -2 
C 27.5 -2 34.5 -0.109375 38.59375 9.375 
C 41.59375 16.28125 42 24.359375 42 31.640625 
z
M 22.90625 -0.40625 
C 16.5 -0.40625 12.703125 5.078125 11.296875 12.6875 
C 10.203125 18.5625 10.203125 27.15625 10.203125 32.75 
C 10.203125 40.4375 10.203125 46.828125 11.5 52.921875 
C 13.40625 61.390625 19 64 22.90625 64 
C 27 64 32.296875 61.296875 34.203125 53.125 
C 35.5 47.4375 35.59375 40.734375 35.59375 32.75 
C 35.59375 26.25 35.59375 18.265625 34.40625 12.375 
C 32.296875 1.484375 26.40625 -0.40625 22.90625 -0.40625 
z
" id="CMR17-48"/>
      </defs>
      <g transform="translate(144.311813 394.685876)scale(0.14 -0.14)">
       <use transform="scale(0.996264)" xlink:href="#CMR17-49"/>
       <use transform="translate(45.690477 0)scale(0.996264)" xlink:href="#CMR17-48"/>
       <use transform="translate(91.380954 0)scale(0.996264)" xlink:href="#CMR17-48"/>
      </g>
     </g>
    </g>
    <g id="xtick_2">
     <g id="line2d_2">
      <g>
       <use style="stroke:#000000;stroke-width:0.8;" x="256.009091" xlink:href="#mbe1e12758c" y="378"/>
      </g>
     </g>
     <g id="text_2">
      <!-- $\mathdefault{200}$ -->
      <defs>
       <path d="M 41.703125 15.453125 
L 39.90625 15.453125 
C 38.90625 8.375 38.09375 7.171875 37.703125 6.5625 
C 37.203125 5.765625 30 5.765625 28.59375 5.765625 
L 9.40625 5.765625 
C 13 9.671875 20 16.75 28.5 24.953125 
C 34.59375 30.734375 41.703125 37.53125 41.703125 47.421875 
C 41.703125 59.21875 32.296875 66 21.796875 66 
C 10.796875 66 4.09375 56.3125 4.09375 47.34375 
C 4.09375 43.4375 7 42.9375 8.203125 42.9375 
C 9.203125 42.9375 12.203125 43.546875 12.203125 47.03125 
C 12.203125 50.109375 9.59375 51 8.203125 51 
C 7.59375 51 7 50.90625 6.59375 50.703125 
C 8.5 59.21875 14.296875 63.40625 20.40625 63.40625 
C 29.09375 63.40625 34.796875 56.515625 34.796875 47.421875 
C 34.796875 38.734375 29.703125 31.25 24 24.75 
L 4.09375 2.28125 
L 4.09375 0 
L 39.296875 0 
z
" id="CMR17-50"/>
      </defs>
      <g transform="translate(245.766358 394.685876)scale(0.14 -0.14)">
       <use transform="scale(0.996264)" xlink:href="#CMR17-50"/>
       <use transform="translate(45.690477 0)scale(0.996264)" xlink:href="#CMR17-48"/>
       <use transform="translate(91.380954 0)scale(0.996264)" xlink:href="#CMR17-48"/>
      </g>
     </g>
    </g>
    <g id="xtick_3">
     <g id="line2d_3">
      <g>
       <use style="stroke:#000000;stroke-width:0.8;" x="357.463636" xlink:href="#mbe1e12758c" y="378"/>
      </g>
     </g>
     <g id="text_3">
      <!-- $\mathdefault{300}$ -->
      <defs>
       <path d="M 22.09375 33.703125 
C 31 33.703125 34.90625 25.96875 34.90625 17.03125 
C 34.90625 5 28.5 0.390625 22.703125 0.390625 
C 17.40625 0.390625 8.796875 3.03125 6.09375 10.828125 
C 6.59375 10.625 7.09375 10.625 7.59375 10.625 
C 10 10.625 11.796875 12.21875 11.796875 14.8125 
C 11.796875 17.703125 9.59375 19 7.59375 19 
C 5.90625 19 3.296875 18.203125 3.296875 14.46875 
C 3.296875 5.234375 12.296875 -2 22.90625 -2 
C 34 -2 42.5 6.71875 42.5 16.953125 
C 42.5 26.671875 34.5 33.703125 25 34.796875 
C 32.59375 36.375 39.90625 43.0625 39.90625 52.015625 
C 39.90625 59.6875 32 65.296875 23 65.296875 
C 13.90625 65.296875 5.90625 59.828125 5.90625 52.015625 
C 5.90625 48.59375 8.5 48 9.796875 48 
C 11.90625 48 13.703125 49.296875 13.703125 51.890625 
C 13.703125 54.46875 11.90625 55.765625 9.796875 55.765625 
C 9.40625 55.765625 8.90625 55.765625 8.5 55.578125 
C 11.40625 61.859375 19.296875 63 22.796875 63 
C 26.296875 63 32.90625 61.328125 32.90625 51.875 
C 32.90625 49.109375 32.5 44.1875 29.09375 39.84375 
C 26.09375 36 22.703125 36 19.40625 35.6875 
C 18.90625 35.6875 16.59375 35.453125 16.203125 35.453125 
C 15.5 35.359375 15.09375 35.265625 15.09375 34.5 
C 15.09375 33.796875 15.203125 33.703125 17.203125 33.703125 
z
" id="CMR17-51"/>
      </defs>
      <g transform="translate(347.220903 394.685876)scale(0.14 -0.14)">
       <use transform="scale(0.996264)" xlink:href="#CMR17-51"/>
       <use transform="translate(45.690477 0)scale(0.996264)" xlink:href="#CMR17-48"/>
       <use transform="translate(91.380954 0)scale(0.996264)" xlink:href="#CMR17-48"/>
      </g>
     </g>
    </g>
    <g id="xtick_4">
     <g id="line2d_4">
      <g>
       <use style="stroke:#000000;stroke-width:0.8;" x="458.918182" xlink:href="#mbe1e12758c" y="378"/>
      </g>
     </g>
     <g id="text_4">
      <!-- $\mathdefault{400}$ -->
      <defs>
       <path d="M 33.59375 64.40625 
C 33.59375 66.5 33.5 66.5 31.703125 66.5 
L 2 19.59375 
L 2 17 
L 27.796875 17 
L 27.796875 7.140625 
C 27.796875 3.5 27.59375 2.5 20.59375 2.5 
L 18.703125 2.5 
L 18.703125 0 
C 21.90625 0 27.296875 0 30.703125 0 
C 34.09375 0 39.5 0 42.703125 0 
L 42.703125 2.5 
L 40.796875 2.5 
C 33.796875 2.5 33.59375 3.5 33.59375 7.140625 
L 33.59375 17 
L 43.796875 17 
L 43.796875 19.59375 
L 33.59375 19.59375 
z
M 28.09375 57.859375 
L 28.09375 19.59375 
L 4 19.59375 
z
" id="CMR17-52"/>
      </defs>
      <g transform="translate(448.675449 394.685876)scale(0.14 -0.14)">
       <use transform="scale(0.996264)" xlink:href="#CMR17-52"/>
       <use transform="translate(45.690477 0)scale(0.996264)" xlink:href="#CMR17-48"/>
       <use transform="translate(91.380954 0)scale(0.996264)" xlink:href="#CMR17-48"/>
      </g>
     </g>
    </g>
    <g id="xtick_5">
     <g id="line2d_5">
      <g>
       <use style="stroke:#000000;stroke-width:0.8;" x="560.372727" xlink:href="#mbe1e12758c" y="378"/>
      </g>
     </g>
     <g id="text_5">
      <!-- $\mathdefault{500}$ -->
      <defs>
       <path d="M 11.40625 57.6875 
C 12.40625 57.28125 16.5 56 20.703125 56 
C 30 56 35.09375 61.109375 38 64.0625 
C 38 64.953125 38 65.5 37.40625 65.5 
C 37.296875 65.5 37.09375 65.5 36.296875 65.046875 
C 32.796875 63.40625 28.703125 62.078125 23.703125 62.078125 
C 20.703125 62.078125 16.203125 62.484375 11.296875 64.671875 
C 10.203125 65.171875 10 65.171875 9.90625 65.171875 
C 9.40625 65.171875 9.296875 65.0625 9.296875 63.078125 
L 9.296875 34.421875 
C 9.296875 32.640625 9.296875 32.140625 10.296875 32.140625 
C 10.796875 32.140625 11 32.34375 11.5 33.03125 
C 14.703125 37.515625 19.09375 39.40625 24.09375 39.40625 
C 27.59375 39.40625 35.09375 37.21875 35.09375 20.140625 
C 35.09375 16.953125 35.09375 11.171875 32.09375 6.578125 
C 29.59375 2.484375 25.703125 0.390625 21.40625 0.390625 
C 14.796875 0.390625 8.09375 5 6.296875 12.71875 
C 6.703125 12.609375 7.5 12.421875 7.90625 12.421875 
C 9.203125 12.421875 11.703125 13.125 11.703125 16.21875 
C 11.703125 18.90625 9.796875 20 7.90625 20 
C 5.59375 20 4.09375 18.59375 4.09375 15.796875 
C 4.09375 7.09375 11 -2 21.59375 -2 
C 31.90625 -2 41.703125 6.875 41.703125 19.75 
C 41.703125 31.71875 33.90625 41 24.203125 41 
C 19.09375 41 14.796875 39.109375 11.40625 35.53125 
z
" id="CMR17-53"/>
      </defs>
      <g transform="translate(550.129994 394.685876)scale(0.14 -0.14)">
       <use transform="scale(0.996264)" xlink:href="#CMR17-53"/>
       <use transform="translate(45.690477 0)scale(0.996264)" xlink:href="#CMR17-48"/>
       <use transform="translate(91.380954 0)scale(0.996264)" xlink:href="#CMR17-48"/>
      </g>
     </g>
    </g>
    <g id="text_6">
     <!-- Number of training data per category -->
     <defs>
      <path d="M 22.90625 65.3125 
L 21.09375 69 
L 8.796875 69 
L 8.796875 0 
L 16.59375 0 
L 16.59375 61.34375 
L 16.703125 61.4375 
C 17.40625 59.640625 17.796875 58.75 21.90625 49.90625 
L 43.296875 3.6875 
L 45.09375 0 
L 57.40625 0 
L 57.40625 69 
L 49.59375 69 
L 49.59375 7.65625 
L 49.5 7.546875 
C 48.796875 9.34375 48.40625 10.234375 44.296875 19.078125 
z
" id="CMSS17-78"/>
      <path d="M 40.90625 42.796875 
L 33.296875 42.796875 
L 33.296875 15.1875 
C 33.296875 7.78125 27.90625 4.78125 22.203125 4.78125 
C 15.59375 4.78125 15 6.984375 15 11.078125 
L 15 42.796875 
L 7.40625 42.796875 
L 7.40625 10.59375 
C 7.40625 2.796875 10.09375 -1 17 -1 
C 20.40625 -1 28.09375 -0.203125 33.5 4.78125 
L 33.5 0 
L 40.90625 0 
z
" id="CMSS17-117"/>
      <path d="M 67 29.328125 
C 67 36.0625 65.296875 44 54.09375 44 
C 46.59375 44 42.09375 39.3125 40.09375 36.421875 
C 38.296875 41.71875 34.09375 44 28.09375 44 
C 21.296875 44 17 40.125 14.703125 37.328125 
L 14.703125 43.09375 
L 7.40625 43.09375 
L 7.40625 0 
L 15 0 
L 15 24.359375 
C 15 30.296875 17.203125 37.9375 24.296875 37.9375 
C 33.40625 37.9375 33.40625 31.5 33.40625 28.578125 
L 33.40625 0 
L 41 0 
L 41 24.359375 
C 41 30.296875 43.203125 37.9375 50.296875 37.9375 
C 59.40625 37.9375 59.40625 31.5 59.40625 28.578125 
L 59.40625 0 
L 67 0 
z
" id="CMSS17-109"/>
      <path d="M 14.90625 69 
L 7.5 69 
L 7.5 -0.203125 
L 15.09375 -0.203125 
L 15.09375 4.28125 
C 18.90625 0.59375 23.5 -1 27.59375 -1 
C 37.203125 -1 45 8.578125 45 21.125 
C 45 32.59375 39 43.0625 30.09375 43.0625 
C 23.796875 43.0625 18.203125 40.484375 14.90625 37.796875 
z
M 15.09375 31.96875 
C 17.296875 34.71875 20.40625 37 24.796875 37 
C 30.703125 37 37.40625 32.765625 37.40625 21.125 
C 37.40625 8.71875 29.40625 5.078125 23.90625 5.078125 
C 21.90625 5.078125 19.796875 5.5625 17.796875 7.25 
C 15.09375 9.609375 15.09375 11.078125 15.09375 12.453125 
z
" id="CMSS17-98"/>
      <path d="M 39.09375 21.515625 
C 39.09375 24.84375 38.90625 31.296875 35.703125 36.640625 
C 32.203125 42.390625 26.5 44 22.203125 44 
C 11.796875 44 3 34.1875 3 21.484375 
C 3 9.09375 12.09375 -1 23.59375 -1 
C 28.09375 -1 33.59375 0.296875 38.59375 3.875 
C 38.59375 4.28125 38.40625 6.46875 38.296875 6.5625 
C 38.296875 6.765625 38 9.84375 38 10.25 
C 33.203125 6.359375 27.703125 5.078125 23.703125 5.078125 
C 17.296875 5.078125 10.40625 10.421875 10.09375 21.515625 
z
M 10.90625 27 
C 12.203125 32.5625 16.59375 37.828125 22.203125 37.828125 
C 23.703125 37.828125 30.703125 37.828125 32.5 27 
z
" id="CMSS17-101"/>
      <path d="M 14.90625 21.296875 
C 14.90625 30.703125 21.796875 37 30.59375 37 
L 30.59375 43.578125 
C 24.203125 43.578125 18.203125 40.390625 14.59375 35.203125 
L 14.59375 43.09375 
L 7.5 43.09375 
L 7.5 0 
L 14.90625 0 
z
" id="CMSS17-114"/>
      <path d="M 44.203125 21.1875 
C 44.203125 34 34.703125 44 23.5 44 
C 12 44 2.703125 33.703125 2.703125 21.1875 
C 2.703125 8.5 12.296875 -1 23.40625 -1 
C 34.796875 -1 44.203125 8.796875 44.203125 21.1875 
z
M 23.5 5.265625 
C 16.40625 5.265625 10.296875 11.078125 10.296875 22 
C 10.296875 33.609375 17.40625 37.921875 23.40625 37.921875 
C 29.90625 37.921875 36.59375 33.21875 36.59375 22 
C 36.59375 10.671875 30.09375 5.265625 23.5 5.265625 
z
" id="CMSS17-111"/>
      <path d="M 16.796875 37 
L 26.90625 37 
L 26.90625 42.765625 
L 16.59375 42.765625 
L 16.59375 55.609375 
C 16.59375 62.71875 22 63.9375 25.09375 63.9375 
C 26.09375 63.9375 28.90625 63.9375 32.5 62.640625 
L 32.5 69.203125 
C 30.203125 69.703125 27.40625 70 25.203125 70 
C 15.90625 70 9.40625 62.390625 9.40625 52.484375 
L 9.40625 42.765625 
L 2.5 42.765625 
L 2.5 37 
L 9.40625 37 
L 9.40625 0 
L 16.796875 0 
z
" id="CMSS17-102"/>
      <path d="M 16.703125 37 
L 29.703125 37 
L 29.703125 42.765625 
L 16.703125 42.765625 
L 16.703125 55 
L 9.59375 55 
L 9.59375 42.765625 
L 1.703125 42.765625 
L 1.703125 37 
L 9.40625 37 
L 9.40625 11.703125 
C 9.40625 6 10.703125 -1 17.296875 -1 
C 22.296875 -1 26.90625 0.390625 31.296875 2.6875 
L 29.703125 8.5625 
C 27.296875 6.46875 24.40625 5.265625 21.296875 5.265625 
C 16.90625 5.265625 16.703125 10.875 16.703125 13.375 
z
" id="CMSS17-116"/>
      <path d="M 37.59375 27.984375 
C 37.59375 37.375 30.90625 43.875 21.90625 43.875 
C 17.5 43.875 12.703125 43.078125 7.203125 39.890625 
L 7.796875 33.359375 
C 10.296875 35.125 14.59375 38 21.796875 38 
C 26.90625 38 30 34.0625 30 27.84375 
L 30 24 
C 14 24 4 19.34375 4 11.34375 
C 4 7.203125 6.5 -1 14.796875 -1 
C 16.296875 -1 24.40625 -1 30.203125 3.390625 
L 30.203125 -0.296875 
L 37.59375 -0.296875 
z
M 30 12.75 
C 30 10.953125 30 8.5625 27 6.78125 
C 24.40625 5.078125 21.09375 5.078125 19.703125 5.078125 
C 14.703125 5.078125 11.296875 7.984375 11.296875 11.625 
C 11.296875 18.921875 26.90625 18.921875 30 18.921875 
z
" id="CMSS17-97"/>
      <path d="M 15.296875 65.359375 
L 6.90625 65.359375 
L 6.90625 57 
L 15.296875 57 
z
M 14.796875 42.796875 
L 7.40625 42.796875 
L 7.40625 0 
L 14.796875 0 
z
" id="CMSS17-105"/>
      <path d="M 40.90625 29.328125 
C 40.90625 35.671875 39.40625 44 28.09375 44 
C 21.703125 44 17.5 40.71875 14.703125 37.328125 
L 14.703125 43.09375 
L 7.40625 43.09375 
L 7.40625 0 
L 15 0 
L 15 24.359375 
C 15 30.6875 17.40625 37.9375 24.203125 37.9375 
C 33 37.9375 33.296875 32 33.296875 28.578125 
L 33.296875 0 
L 40.90625 0 
z
" id="CMSS17-110"/>
      <path d="M 44.5 43.875 
C 38.796875 43.875 33.90625 42.78125 29.90625 40.890625 
C 26.59375 43.390625 23.203125 43.875 20.90625 43.875 
C 12.203125 43.875 5.59375 36.703125 5.59375 28.34375 
C 5.59375 22.9375 8.59375 18.859375 8.796875 18.671875 
C 7 16.171875 6 13.484375 6 10.5 
C 6 7 7.40625 4.515625 8.5 3.125 
C 3.296875 -0.046875 2.59375 -4.90625 2.59375 -6.796875 
C 2.59375 -14.03125 11.703125 -20 23.40625 -20 
C 35.203125 -20 44.296875 -14.03125 44.296875 -6.6875 
C 44.296875 7 29 7 24.796875 7 
L 16.703125 7 
C 15.203125 7 11.203125 7 11.203125 12.359375 
C 11.203125 14.390625 12.09375 15.6875 12.203125 15.78125 
C 13.703125 14.6875 16.796875 13 20.90625 13 
C 29.203125 13 36.09375 19.96875 36.09375 28.546875 
C 36.09375 33.3125 33.90625 36.796875 33 38 
L 33.296875 38 
C 33.59375 38 37.796875 38 39.296875 38 
C 42.5 38 42.796875 37.953125 45.59375 37.796875 
z
M 20.90625 18.46875 
C 17.5 18.46875 12.703125 20.546875 12.703125 28.484375 
C 12.703125 37.109375 18.203125 38.5 20.796875 38.5 
C 24.203125 38.5 29 36.421875 29 28.484375 
C 29 19.859375 23.5 18.46875 20.90625 18.46875 
z
M 24.703125 -0.15625 
C 27.09375 -0.15625 37.203125 -0.15625 37.203125 -6.90625 
C 37.203125 -11.15625 31 -14.515625 23.5 -14.515625 
C 15.90625 -14.515625 9.703125 -11.25 9.703125 -6.796875 
C 9.703125 -6.296875 9.703125 -0.15625 16.59375 -0.15625 
z
" id="CMSS17-103"/>
      <path d="M 40.796875 69 
L 33.40625 69 
L 33.40625 38.09375 
C 30.296875 40.671875 25.203125 43.0625 19.59375 43.0625 
C 10.5 43.0625 3.296875 33.296875 3.296875 21.046875 
C 3.296875 8.78125 10.40625 -1 19.296875 -1 
C 26.203125 -1 30.796875 2.6875 33.203125 4.78125 
L 33.203125 -0.203125 
L 40.796875 -0.203125 
z
M 33.203125 13.0625 
C 33.203125 11.671875 33.203125 10.203125 30.09375 7.53125 
C 28.09375 5.859375 25.703125 5.078125 23.40625 5.078125 
C 18 5.078125 10.90625 9 10.90625 20.9375 
C 10.90625 33.34375 18.90625 37 24.40625 37 
C 28.09375 37 31.09375 35.21875 33.203125 32.265625 
z
" id="CMSS17-100"/>
      <path d="M 15.09375 5.203125 
C 18.40625 2.015625 22.90625 -0.078125 27.703125 -0.078125 
C 37 -0.078125 45 9.421875 45 22.0625 
C 45 33.734375 39 44 30.40625 44 
C 25.40625 44 19.40625 42.21875 14.90625 38.625 
L 14.90625 43.203125 
L 7.5 43.203125 
L 7.5 -19 
L 15.09375 -19 
z
M 15.09375 32.8125 
C 15.90625 34 19.296875 37.734375 24.796875 37.734375 
C 31.796875 37.734375 37.40625 30.625 37.40625 22.0625 
C 37.40625 12.296875 30.59375 6 23.90625 6 
C 21.90625 6 19.796875 6.484375 17.796875 8.171875 
C 15.09375 10.53125 15.09375 12 15.09375 13.390625 
z
" id="CMSS17-112"/>
      <path d="M 38.5 39.703125 
C 38.5 40.390625 33.90625 42.40625 32.703125 42.796875 
C 29.40625 44 25.203125 44 24.09375 44 
C 11.09375 44 3.296875 32.703125 3.296875 21.296875 
C 3.296875 9.296875 12 -1 23.703125 -1 
C 30.40625 -1 35.203125 1.1875 39.09375 3.78125 
L 38.5 10.375 
C 34.203125 7.078125 29.203125 5.265625 23.796875 5.265625 
C 16 5.265625 10.90625 12.09375 10.90625 21.390625 
C 10.90625 28.609375 14.203125 37.71875 24.203125 37.71875 
C 29.703125 37.71875 32.796875 36.609375 37.40625 33.515625 
z
" id="CMSS17-99"/>
      <path d="M 41.796875 43 
L 34 43 
C 25.5 20.21875 22.59375 10.96875 22.40625 5.984375 
L 22.296875 5.984375 
C 22 10.875 17.59375 22.8125 14.09375 31.359375 
L 9.40625 43 
L 1.296875 43 
L 19 0.203125 
C 17.90625 -2.78125 16.296875 -7.265625 15.796875 -8.265625 
C 13.59375 -13.828125 12.09375 -13.828125 10.5 -13.828125 
C 10.09375 -13.828125 6.90625 -13.828125 3.296875 -12.640625 
L 3.90625 -19.203125 
C 6.40625 -19.703125 8.90625 -20 10.703125 -20 
C 13.203125 -20 18.203125 -20 22.796875 -7.765625 
z
" id="CMSS17-121"/>
     </defs>
     <g transform="translate(225.3505 411.083781)scale(0.14 -0.14)">
      <use transform="scale(0.996264)" xlink:href="#CMSS17-78"/>
      <use transform="translate(66.061519 0)scale(0.996264)" xlink:href="#CMSS17-117"/>
      <use transform="translate(114.266462 0)scale(0.996264)" xlink:href="#CMSS17-109"/>
      <use transform="translate(188.495717 0)scale(0.996264)" xlink:href="#CMSS17-98"/>
      <use transform="translate(239.303099 0)scale(0.996264)" xlink:href="#CMSS17-101"/>
      <use transform="translate(280.941921 0)scale(0.996264)" xlink:href="#CMSS17-114"/>
      <use transform="translate(344.080806 0)scale(0.996264)" xlink:href="#CMSS17-111"/>
      <use transform="translate(390.92443 0)scale(0.996264)" xlink:href="#CMSS17-102"/>
      <use transform="translate(450.780201 0)scale(0.996264)" xlink:href="#CMSS17-116"/>
      <use transform="translate(484.611768 0)scale(0.996264)" xlink:href="#CMSS17-114"/>
      <use transform="translate(516.52154 0)scale(0.996264)" xlink:href="#CMSS17-97"/>
      <use transform="translate(561.443461 0)scale(0.996264)" xlink:href="#CMSS17-105"/>
      <use transform="translate(583.624184 0)scale(0.996264)" xlink:href="#CMSS17-110"/>
      <use transform="translate(631.829127 0)scale(0.996264)" xlink:href="#CMSS17-105"/>
      <use transform="translate(654.00985 0)scale(0.996264)" xlink:href="#CMSS17-110"/>
      <use transform="translate(702.214793 0)scale(0.996264)" xlink:href="#CMSS17-103"/>
      <use transform="translate(780.28753 0)scale(0.996264)" xlink:href="#CMSS17-100"/>
      <use transform="translate(828.492473 0)scale(0.996264)" xlink:href="#CMSS17-97"/>
      <use transform="translate(873.414393 0)scale(0.996264)" xlink:href="#CMSS17-116"/>
      <use transform="translate(907.24596 0)scale(0.996264)" xlink:href="#CMSS17-97"/>
      <use transform="translate(983.396993 0)scale(0.996264)" xlink:href="#CMSS17-112"/>
      <use transform="translate(1034.204375 0)scale(0.996264)" xlink:href="#CMSS17-101"/>
      <use transform="translate(1075.843197 0)scale(0.996264)" xlink:href="#CMSS17-114"/>
      <use transform="translate(1138.982083 0)scale(0.996264)" xlink:href="#CMSS17-99"/>
      <use transform="translate(1180.620905 0)scale(0.996264)" xlink:href="#CMSS17-97"/>
      <use transform="translate(1225.542825 0)scale(0.996264)" xlink:href="#CMSS17-116"/>
      <use transform="translate(1259.374392 0)scale(0.996264)" xlink:href="#CMSS17-101"/>
      <use transform="translate(1301.013214 0)scale(0.996264)" xlink:href="#CMSS17-103"/>
      <use transform="translate(1347.856838 0)scale(0.996264)" xlink:href="#CMSS17-111"/>
      <use transform="translate(1392.098007 0)scale(0.996264)" xlink:href="#CMSS17-114"/>
      <use transform="translate(1424.00778 0)scale(0.996264)" xlink:href="#CMSS17-121"/>
     </g>
    </g>
   </g>
   <g id="matplotlib.axis_2">
    <g id="ytick_1">
     <g id="line2d_6">
      <defs>
       <path d="M 0 0 
L -3.5 0 
" id="mad0b7f0722" style="stroke:#000000;stroke-width:0.8;"/>
      </defs>
      <g>
       <use style="stroke:#000000;stroke-width:0.8;" x="81" xlink:href="#mad0b7f0722" y="367.247256"/>
      </g>
     </g>
     <g id="text_7">
      <!-- $\mathdefault{0.01}$ -->
      <defs>
       <path d="M 18.40625 4.796875 
C 18.40625 7.6875 16 9.671875 13.59375 9.671875 
C 10.703125 9.671875 8.703125 7.28125 8.703125 4.890625 
C 8.703125 2 11.09375 0 13.5 0 
C 16.40625 0 18.40625 2.390625 18.40625 4.796875 
z
" id="CMMI12-58"/>
      </defs>
      <g transform="translate(49.720929 372.090194)scale(0.14 -0.14)">
       <use transform="scale(0.996264)" xlink:href="#CMR17-48"/>
       <use transform="translate(45.690477 0)scale(0.996264)" xlink:href="#CMMI12-58"/>
       <use transform="translate(72.787654 0)scale(0.996264)" xlink:href="#CMR17-48"/>
       <use transform="translate(118.478131 0)scale(0.996264)" xlink:href="#CMR17-49"/>
      </g>
     </g>
    </g>
    <g id="ytick_2">
     <g id="line2d_7">
      <g>
       <use style="stroke:#000000;stroke-width:0.8;" x="81" xlink:href="#mad0b7f0722" y="296.184297"/>
      </g>
     </g>
     <g id="text_8">
      <!-- $\mathdefault{0.02}$ -->
      <g transform="translate(49.720929 301.027235)scale(0.14 -0.14)">
       <use transform="scale(0.996264)" xlink:href="#CMR17-48"/>
       <use transform="translate(45.690477 0)scale(0.996264)" xlink:href="#CMMI12-58"/>
       <use transform="translate(72.787654 0)scale(0.996264)" xlink:href="#CMR17-48"/>
       <use transform="translate(118.478131 0)scale(0.996264)" xlink:href="#CMR17-50"/>
      </g>
     </g>
    </g>
    <g id="ytick_3">
     <g id="line2d_8">
      <g>
       <use style="stroke:#000000;stroke-width:0.8;" x="81" xlink:href="#mad0b7f0722" y="225.121338"/>
      </g>
     </g>
     <g id="text_9">
      <!-- $\mathdefault{0.03}$ -->
      <g transform="translate(49.720929 229.964276)scale(0.14 -0.14)">
       <use transform="scale(0.996264)" xlink:href="#CMR17-48"/>
       <use transform="translate(45.690477 0)scale(0.996264)" xlink:href="#CMMI12-58"/>
       <use transform="translate(72.787654 0)scale(0.996264)" xlink:href="#CMR17-48"/>
       <use transform="translate(118.478131 0)scale(0.996264)" xlink:href="#CMR17-51"/>
      </g>
     </g>
    </g>
    <g id="ytick_4">
     <g id="line2d_9">
      <g>
       <use style="stroke:#000000;stroke-width:0.8;" x="81" xlink:href="#mad0b7f0722" y="154.058379"/>
      </g>
     </g>
     <g id="text_10">
      <!-- $\mathdefault{0.04}$ -->
      <g transform="translate(49.720929 158.901317)scale(0.14 -0.14)">
       <use transform="scale(0.996264)" xlink:href="#CMR17-48"/>
       <use transform="translate(45.690477 0)scale(0.996264)" xlink:href="#CMMI12-58"/>
       <use transform="translate(72.787654 0)scale(0.996264)" xlink:href="#CMR17-48"/>
       <use transform="translate(118.478131 0)scale(0.996264)" xlink:href="#CMR17-52"/>
      </g>
     </g>
    </g>
    <g id="ytick_5">
     <g id="line2d_10">
      <g>
       <use style="stroke:#000000;stroke-width:0.8;" x="81" xlink:href="#mad0b7f0722" y="82.99542"/>
      </g>
     </g>
     <g id="text_11">
      <!-- $\mathdefault{0.05}$ -->
      <g transform="translate(49.720929 87.838358)scale(0.14 -0.14)">
       <use transform="scale(0.996264)" xlink:href="#CMR17-48"/>
       <use transform="translate(45.690477 0)scale(0.996264)" xlink:href="#CMMI12-58"/>
       <use transform="translate(72.787654 0)scale(0.996264)" xlink:href="#CMR17-48"/>
       <use transform="translate(118.478131 0)scale(0.996264)" xlink:href="#CMR17-53"/>
      </g>
     </g>
    </g>
    <g id="text_12">
     <!-- $P_e$ -->
     <defs>
      <path d="M 29.59375 31.609375 
L 46.40625 31.609375 
C 60.203125 31.609375 74 41.765625 74 53.140625 
C 74 60.90625 67.40625 68 54.796875 68 
L 23.90625 68 
C 22 68 21.09375 68 21.09375 66.109375 
C 21.09375 65.109375 22 65.109375 23.5 65.109375 
C 29.59375 65.109375 29.59375 64.3125 29.59375 63.21875 
C 29.59375 63.03125 29.59375 62.421875 29.203125 60.921875 
L 15.703125 7.375 
C 14.796875 3.890625 14.59375 2.890625 7.59375 2.890625 
C 5.703125 2.890625 4.703125 2.890625 4.703125 1.09375 
C 4.703125 0 5.59375 0 6.203125 0 
C 8.09375 0 10.09375 0 12 0 
L 23.703125 0 
C 25.59375 0 27.703125 0 29.59375 0 
C 30.40625 0 31.5 0 31.5 1.890625 
C 31.5 2.890625 30.59375 2.890625 29.09375 2.890625 
C 23.09375 2.890625 23 3.59375 23 4.578125 
C 23 5.078125 23.09375 5.765625 23.203125 6.265625 
z
M 36.796875 61.40625 
C 37.703125 65.109375 38.09375 65.109375 42 65.109375 
L 51.90625 65.109375 
C 59.40625 65.109375 65.59375 62.703125 65.59375 55.234375 
C 65.59375 52.640625 64.296875 44.171875 59.703125 39.59375 
C 58 37.796875 53.203125 34 44.09375 34 
L 30 34 
z
" id="CMMI12-80"/>
      <path d="M 17.90625 23.109375 
C 20.59375 23.109375 27.40625 23.109375 32.203125 24.921875 
C 39.796875 27.859375 40.5 33.71875 40.5 35.53125 
C 40.5 39.96875 36.703125 44 30.09375 44 
C 19.59375 44 4.5 34.53125 4.5 16.765625 
C 4.5 6.28125 10.5 -1 19.59375 -1 
C 33.203125 -1 41.796875 9.515625 41.796875 10.8125 
C 41.796875 11.40625 41.203125 11.90625 40.796875 11.90625 
C 40.5 11.90625 40.40625 11.8125 39.5 10.921875 
C 33.09375 2.484375 23.59375 1 19.796875 1 
C 14.09375 1 11.09375 5.46875 11.09375 12.84375 
C 11.09375 14.234375 11.09375 16.734375 12.59375 23.109375 
z
M 13.09375 25 
C 17.40625 40.5 26.90625 42.015625 30.09375 42.015625 
C 34.5 42.015625 37.5 39.40625 37.5 35.578125 
C 37.5 25 21.5 25 17.296875 25 
z
" id="CMMI12-101"/>
     </defs>
     <g transform="translate(42.232865 223.42729)rotate(-90)scale(0.18 -0.18)">
      <use transform="scale(0.996264)" xlink:href="#CMMI12-80"/>
      <use transform="translate(62.877232 -14.943915)scale(0.697382)" xlink:href="#CMMI12-101"/>
     </g>
    </g>
   </g>
   <g id="line2d_11">
    <path clip-path="url(#p0a99ca71e2)" d="M 103.827273 90.091976 
L 154.554545 194.153085 
L 256.009091 269.611754 
L 357.463636 302.541674 
L 458.918182 321.558856 
L 560.372727 334.345476 
" style="fill:none;stroke:#1f77b4;stroke-linecap:square;stroke-width:1.5;"/>
    <defs>
     <path d="M 0 3 
C 0.795609 3 1.55874 2.683901 2.12132 2.12132 
C 2.683901 1.55874 3 0.795609 3 0 
C 3 -0.795609 2.683901 -1.55874 2.12132 -2.12132 
C 1.55874 -2.683901 0.795609 -3 0 -3 
C -0.795609 -3 -1.55874 -2.683901 -2.12132 -2.12132 
C -2.683901 -1.55874 -3 -0.795609 -3 0 
C -3 0.795609 -2.683901 1.55874 -2.12132 2.12132 
C -1.55874 2.683901 -0.795609 3 0 3 
z
" id="m33dca4606f" style="stroke:#1f77b4;"/>
    </defs>
    <g clip-path="url(#p0a99ca71e2)">
     <use style="fill:#1f77b4;stroke:#1f77b4;" x="103.827273" xlink:href="#m33dca4606f" y="90.091976"/>
     <use style="fill:#1f77b4;stroke:#1f77b4;" x="154.554545" xlink:href="#m33dca4606f" y="194.153085"/>
     <use style="fill:#1f77b4;stroke:#1f77b4;" x="256.009091" xlink:href="#m33dca4606f" y="269.611754"/>
     <use style="fill:#1f77b4;stroke:#1f77b4;" x="357.463636" xlink:href="#m33dca4606f" y="302.541674"/>
     <use style="fill:#1f77b4;stroke:#1f77b4;" x="458.918182" xlink:href="#m33dca4606f" y="321.558856"/>
     <use style="fill:#1f77b4;stroke:#1f77b4;" x="560.372727" xlink:href="#m33dca4606f" y="334.345476"/>
    </g>
   </g>
   <g id="line2d_12">
    <path clip-path="url(#p0a99ca71e2)" d="M 103.827273 124.937082 
L 154.554545 226.231324 
L 256.009091 296.311056 
L 357.463636 325.04937 
L 458.918182 341.506977 
L 560.372727 351.80631 
" style="fill:none;stroke:#ff7f0e;stroke-linecap:square;stroke-width:1.5;"/>
    <defs>
     <path d="M 0 3 
C 0.795609 3 1.55874 2.683901 2.12132 2.12132 
C 2.683901 1.55874 3 0.795609 3 0 
C 3 -0.795609 2.683901 -1.55874 2.12132 -2.12132 
C 1.55874 -2.683901 0.795609 -3 0 -3 
C -0.795609 -3 -1.55874 -2.683901 -2.12132 -2.12132 
C -2.683901 -1.55874 -3 -0.795609 -3 0 
C -3 0.795609 -2.683901 1.55874 -2.12132 2.12132 
C -1.55874 2.683901 -0.795609 3 0 3 
z
" id="m35859d1c92" style="stroke:#ff7f0e;"/>
    </defs>
    <g clip-path="url(#p0a99ca71e2)">
     <use style="fill:#ff7f0e;stroke:#ff7f0e;" x="103.827273" xlink:href="#m35859d1c92" y="124.937082"/>
     <use style="fill:#ff7f0e;stroke:#ff7f0e;" x="154.554545" xlink:href="#m35859d1c92" y="226.231324"/>
     <use style="fill:#ff7f0e;stroke:#ff7f0e;" x="256.009091" xlink:href="#m35859d1c92" y="296.311056"/>
     <use style="fill:#ff7f0e;stroke:#ff7f0e;" x="357.463636" xlink:href="#m35859d1c92" y="325.04937"/>
     <use style="fill:#ff7f0e;stroke:#ff7f0e;" x="458.918182" xlink:href="#m35859d1c92" y="341.506977"/>
     <use style="fill:#ff7f0e;stroke:#ff7f0e;" x="560.372727" xlink:href="#m35859d1c92" y="351.80631"/>
    </g>
   </g>
   <g id="line2d_13">
    <path clip-path="url(#p0a99ca71e2)" d="M 103.827273 136.591852 
L 154.554545 236.165414 
L 256.009091 303.654699 
L 357.463636 331.092518 
L 458.918182 346.28885 
L 560.372727 356.117196 
" style="fill:none;stroke:#2ca02c;stroke-linecap:square;stroke-width:1.5;"/>
    <defs>
     <path d="M 0 3 
C 0.795609 3 1.55874 2.683901 2.12132 2.12132 
C 2.683901 1.55874 3 0.795609 3 0 
C 3 -0.795609 2.683901 -1.55874 2.12132 -2.12132 
C 1.55874 -2.683901 0.795609 -3 0 -3 
C -0.795609 -3 -1.55874 -2.683901 -2.12132 -2.12132 
C -2.683901 -1.55874 -3 -0.795609 -3 0 
C -3 0.795609 -2.683901 1.55874 -2.12132 2.12132 
C -1.55874 2.683901 -0.795609 3 0 3 
z
" id="m6a18007f65" style="stroke:#2ca02c;"/>
    </defs>
    <g clip-path="url(#p0a99ca71e2)">
     <use style="fill:#2ca02c;stroke:#2ca02c;" x="103.827273" xlink:href="#m6a18007f65" y="136.591852"/>
     <use style="fill:#2ca02c;stroke:#2ca02c;" x="154.554545" xlink:href="#m6a18007f65" y="236.165414"/>
     <use style="fill:#2ca02c;stroke:#2ca02c;" x="256.009091" xlink:href="#m6a18007f65" y="303.654699"/>
     <use style="fill:#2ca02c;stroke:#2ca02c;" x="357.463636" xlink:href="#m6a18007f65" y="331.092518"/>
     <use style="fill:#2ca02c;stroke:#2ca02c;" x="458.918182" xlink:href="#m6a18007f65" y="346.28885"/>
     <use style="fill:#2ca02c;stroke:#2ca02c;" x="560.372727" xlink:href="#m6a18007f65" y="356.117196"/>
    </g>
   </g>
   <g id="line2d_14">
    <path clip-path="url(#p0a99ca71e2)" d="M 103.827273 139.885728 
L 154.554545 238.710908 
L 256.009091 305.618111 
L 357.463636 332.624783 
L 458.918182 347.558546 
L 560.372727 357.386261 
" style="fill:none;stroke:#d62728;stroke-linecap:square;stroke-width:1.5;"/>
    <defs>
     <path d="M 0 3 
C 0.795609 3 1.55874 2.683901 2.12132 2.12132 
C 2.683901 1.55874 3 0.795609 3 0 
C 3 -0.795609 2.683901 -1.55874 2.12132 -2.12132 
C 1.55874 -2.683901 0.795609 -3 0 -3 
C -0.795609 -3 -1.55874 -2.683901 -2.12132 -2.12132 
C -2.683901 -1.55874 -3 -0.795609 -3 0 
C -3 0.795609 -2.683901 1.55874 -2.12132 2.12132 
C -1.55874 2.683901 -0.795609 3 0 3 
z
" id="m51d0199870" style="stroke:#d62728;"/>
    </defs>
    <g clip-path="url(#p0a99ca71e2)">
     <use style="fill:#d62728;stroke:#d62728;" x="103.827273" xlink:href="#m51d0199870" y="139.885728"/>
     <use style="fill:#d62728;stroke:#d62728;" x="154.554545" xlink:href="#m51d0199870" y="238.710908"/>
     <use style="fill:#d62728;stroke:#d62728;" x="256.009091" xlink:href="#m51d0199870" y="305.618111"/>
     <use style="fill:#d62728;stroke:#d62728;" x="357.463636" xlink:href="#m51d0199870" y="332.624783"/>
     <use style="fill:#d62728;stroke:#d62728;" x="458.918182" xlink:href="#m51d0199870" y="347.558546"/>
     <use style="fill:#d62728;stroke:#d62728;" x="560.372727" xlink:href="#m51d0199870" y="357.386261"/>
    </g>
   </g>
   <g id="line2d_15">
    <path clip-path="url(#p0a99ca71e2)" d="M 103.827273 135.270343 
L 154.554545 235.000196 
L 256.009091 302.706599 
L 357.463636 330.417113 
L 458.918182 345.811554 
L 560.372727 355.600824 
" style="fill:none;stroke:#000000;stroke-linecap:square;stroke-width:1.5;"/>
    <defs>
     <path d="M 0 3 
C 0.795609 3 1.55874 2.683901 2.12132 2.12132 
C 2.683901 1.55874 3 0.795609 3 0 
C 3 -0.795609 2.683901 -1.55874 2.12132 -2.12132 
C 1.55874 -2.683901 0.795609 -3 0 -3 
C -0.795609 -3 -1.55874 -2.683901 -2.12132 -2.12132 
C -2.683901 -1.55874 -3 -0.795609 -3 0 
C -3 0.795609 -2.683901 1.55874 -2.12132 2.12132 
C -1.55874 2.683901 -0.795609 3 0 3 
z
" id="m7b28b6c730" style="stroke:#000000;"/>
    </defs>
    <g clip-path="url(#p0a99ca71e2)">
     <use style="stroke:#000000;" x="103.827273" xlink:href="#m7b28b6c730" y="135.270343"/>
     <use style="stroke:#000000;" x="154.554545" xlink:href="#m7b28b6c730" y="235.000196"/>
     <use style="stroke:#000000;" x="256.009091" xlink:href="#m7b28b6c730" y="302.706599"/>
     <use style="stroke:#000000;" x="357.463636" xlink:href="#m7b28b6c730" y="330.417113"/>
     <use style="stroke:#000000;" x="458.918182" xlink:href="#m7b28b6c730" y="345.811554"/>
     <use style="stroke:#000000;" x="560.372727" xlink:href="#m7b28b6c730" y="355.600824"/>
    </g>
   </g>
   <g id="patch_3">
    <path d="M 81 378 
L 81 51.84 
" style="fill:none;stroke:#000000;stroke-linecap:square;stroke-linejoin:miter;stroke-width:0.8;"/>
   </g>
   <g id="patch_4">
    <path d="M 583.2 378 
L 583.2 51.84 
" style="fill:none;stroke:#000000;stroke-linecap:square;stroke-linejoin:miter;stroke-width:0.8;"/>
   </g>
   <g id="patch_5">
    <path d="M 81 378 
L 583.2 378 
" style="fill:none;stroke:#000000;stroke-linecap:square;stroke-linejoin:miter;stroke-width:0.8;"/>
   </g>
   <g id="patch_6">
    <path d="M 81 51.84 
L 583.2 51.84 
" style="fill:none;stroke:#000000;stroke-linecap:square;stroke-linejoin:miter;stroke-width:0.8;"/>
   </g>
   <g id="legend_1">
    <g id="patch_7">
     <path d="M 467.970245 160.600142 
L 573.4 160.600142 
Q 576.2 160.600142 576.2 157.800142 
L 576.2 61.64 
Q 576.2 58.84 573.4 58.84 
L 467.970245 58.84 
Q 465.170245 58.84 465.170245 61.64 
L 465.170245 157.800142 
Q 465.170245 160.600142 467.970245 160.600142 
z
" style="fill:#ffffff;opacity:0.8;stroke:#cccccc;stroke-linejoin:miter;"/>
    </g>
    <g id="line2d_16">
     <path d="M 470.770245 69.34 
L 498.770245 69.34 
" style="fill:none;stroke:#1f77b4;stroke-linecap:square;stroke-width:1.5;"/>
    </g>
    <g id="line2d_17">
     <g>
      <use style="fill:#1f77b4;stroke:#1f77b4;" x="484.770245" xlink:href="#m33dca4606f" y="69.34"/>
     </g>
    </g>
    <g id="text_13">
     <!-- 1vR -->
     <defs>
      <path d="M 28.40625 67 
L 26.5 67 
C 21.09375 61.5625 14.796875 60.78125 8.40625 60.78125 
L 8.40625 55 
C 11.296875 55 16 55 20.703125 57.296875 
L 20.703125 5.765625 
L 8.90625 5.765625 
L 8.90625 0 
L 40.203125 0 
L 40.203125 5.765625 
L 28.40625 5.765625 
z
" id="CMSS17-49"/>
      <path d="M 41.796875 43 
L 34 43 
L 27.296875 24.3125 
C 25.203125 18.203125 22.203125 9.796875 21.703125 5.5 
L 21.59375 5.5 
C 21.40625 7.3125 20.59375 9.90625 20.09375 11.703125 
C 19.5 13.90625 18.703125 16.5 18.09375 18.3125 
L 9.296875 43 
L 1.296875 43 
L 17.09375 0 
L 26 0 
z
" id="CMSS17-118"/>
      <path d="M 39.40625 32.953125 
L 39.59375 33.046875 
C 55.203125 38.421875 55.296875 49.171875 55.296875 51.0625 
C 55.296875 60.515625 45.703125 69.578125 31.296875 69.578125 
L 8.90625 69.578125 
L 8.90625 0.5 
L 17.09375 0.5 
L 17.09375 32 
L 31.796875 32 
L 49.5 0.5 
L 57.90625 0.5 
z
M 17.09375 38.078125 
L 17.09375 64 
L 30.203125 64 
C 42.90625 64 47.40625 56.828125 47.40625 51.046875 
C 47.40625 45.65625 43.40625 38.078125 30.203125 38.078125 
z
" id="CMSS17-82"/>
     </defs>
     <g transform="translate(509.970245 74.24)scale(0.14 -0.14)">
      <use transform="scale(0.996264)" xlink:href="#CMSS17-49"/>
      <use transform="translate(46.843624 0)scale(0.996264)" xlink:href="#CMSS17-118"/>
      <use transform="translate(89.843765 0)scale(0.996264)" xlink:href="#CMSS17-82"/>
     </g>
    </g>
    <g id="line2d_18">
     <path d="M 470.770245 88.852028 
L 498.770245 88.852028 
" style="fill:none;stroke:#ff7f0e;stroke-linecap:square;stroke-width:1.5;"/>
    </g>
    <g id="line2d_19">
     <g>
      <use style="fill:#ff7f0e;stroke:#ff7f0e;" x="484.770245" xlink:href="#m35859d1c92" y="88.852028"/>
     </g>
    </g>
    <g id="text_14">
     <!-- 2vR -->
     <defs>
      <path d="M 25.796875 21.203125 
C 28.59375 24.078125 32.796875 27.5625 35.703125 31.046875 
C 38.5 34.4375 42.203125 39.234375 42.203125 46.203125 
C 42.203125 57.140625 34.796875 67 22.203125 67 
C 12.296875 67 6.59375 60.828125 3.90625 51.15625 
L 7.796875 45.765625 
C 10 54.84375 13.09375 60.625 20.90625 60.625 
C 29.5 60.625 34.296875 53.640625 34.296875 45.96875 
C 34.296875 36.796875 27.296875 29.703125 22 24.421875 
C 16.09375 18.546875 10.296875 12.5625 4.703125 6.375 
L 4.703125 0 
L 42.203125 0 
L 42.203125 6.765625 
L 25.203125 6.765625 
C 24 6.765625 22.796875 6.765625 21.59375 6.765625 
L 11.59375 6.765625 
L 11.59375 6.859375 
z
" id="CMSS17-50"/>
     </defs>
     <g transform="translate(509.970245 93.752028)scale(0.14 -0.14)">
      <use transform="scale(0.996264)" xlink:href="#CMSS17-50"/>
      <use transform="translate(46.843624 0)scale(0.996264)" xlink:href="#CMSS17-118"/>
      <use transform="translate(89.843765 0)scale(0.996264)" xlink:href="#CMSS17-82"/>
     </g>
    </g>
    <g id="line2d_20">
     <path d="M 470.770245 108.364057 
L 498.770245 108.364057 
" style="fill:none;stroke:#2ca02c;stroke-linecap:square;stroke-width:1.5;"/>
    </g>
    <g id="line2d_21">
     <g>
      <use style="fill:#2ca02c;stroke:#2ca02c;" x="484.770245" xlink:href="#m6a18007f65" y="108.364057"/>
     </g>
    </g>
    <g id="text_15">
     <!-- 3vR -->
     <defs>
      <path d="M 15.703125 31.640625 
L 22.5 31.640625 
C 31.90625 31.640625 34.59375 23.546875 34.59375 17.90625 
C 34.59375 10.203125 30.203125 4.171875 23 4.171875 
C 17.40625 4.171875 9.5 6.9375 5 14.25 
C 4.296875 10.796875 4.296875 10.59375 3.90625 8.21875 
C 8.59375 1.375 16.203125 -2 23.203125 -2 
C 34.59375 -2 43 7.390625 43 17.78125 
C 43 25.59375 37.5 32.140625 30 34.609375 
C 36 37.875 40.40625 44 40.40625 51.140625 
C 40.40625 59.453125 32.703125 66.078125 23.296875 66.078125 
C 14.703125 66.078125 8 60.8125 5.203125 55.15625 
C 5.90625 54.1875 7.703125 51.3125 8.59375 49.828125 
C 10.796875 55.65625 16.5 60 23.203125 60 
C 28.796875 60 32.5 56.359375 32.5 51.109375 
C 32.5 45.671875 29 39.734375 23.09375 38.359375 
C 22.703125 38.359375 16.5 37.765625 15.703125 37.671875 
z
" id="CMSS17-51"/>
     </defs>
     <g transform="translate(509.970245 113.264057)scale(0.14 -0.14)">
      <use transform="scale(0.996264)" xlink:href="#CMSS17-51"/>
      <use transform="translate(46.843624 0)scale(0.996264)" xlink:href="#CMSS17-118"/>
      <use transform="translate(89.843765 0)scale(0.996264)" xlink:href="#CMSS17-82"/>
     </g>
    </g>
    <g id="line2d_22">
     <path d="M 470.770245 127.876085 
L 498.770245 127.876085 
" style="fill:none;stroke:#d62728;stroke-linecap:square;stroke-width:1.5;"/>
    </g>
    <g id="line2d_23">
     <g>
      <use style="fill:#d62728;stroke:#d62728;" x="484.770245" xlink:href="#m51d0199870" y="127.876085"/>
     </g>
    </g>
    <g id="text_16">
     <!-- 4vR -->
     <defs>
      <path d="M 35.203125 17 
L 44.296875 17 
L 44.296875 23.078125 
L 35.203125 23.078125 
L 35.203125 65.5 
L 26.40625 65.5 
L 2.59375 23.078125 
L 2.59375 17 
L 27.296875 17 
L 27.296875 0 
L 35.203125 0 
z
M 10.296875 23.078125 
C 16.09375 33.234375 27.59375 53.734375 27.59375 60.703125 
L 27.59375 23.078125 
z
" id="CMSS17-52"/>
     </defs>
     <g transform="translate(509.970245 132.776085)scale(0.14 -0.14)">
      <use transform="scale(0.996264)" xlink:href="#CMSS17-52"/>
      <use transform="translate(46.843624 0)scale(0.996264)" xlink:href="#CMSS17-118"/>
      <use transform="translate(89.843765 0)scale(0.996264)" xlink:href="#CMSS17-82"/>
     </g>
    </g>
    <g id="line2d_24">
     <path d="M 470.770245 147.388114 
L 498.770245 147.388114 
" style="fill:none;stroke:#000000;stroke-linecap:square;stroke-width:1.5;"/>
    </g>
    <g id="line2d_25">
     <g>
      <use style="stroke:#000000;" x="484.770245" xlink:href="#m7b28b6c730" y="147.388114"/>
     </g>
    </g>
    <g id="text_17">
     <!-- Exhaustive -->
     <defs>
      <path d="M 30.59375 6.765625 
C 22.59375 6.765625 19 6.765625 17.203125 6.765625 
L 17.203125 32.921875 
L 48.203125 32.921875 
L 48.203125 39 
L 17.203125 39 
L 17.203125 62.640625 
L 30.09375 62.640625 
C 31.296875 62.640625 32.5 62.640625 33.703125 62.640625 
L 50.796875 62.640625 
L 50.796875 69 
L 8.796875 69 
L 8.796875 0 
L 52.09375 0 
L 52.09375 6.765625 
z
" id="CMSS17-69"/>
      <path d="M 24.796875 22.09375 
L 41.5 42.796875 
L 32.796875 42.796875 
L 21.296875 27.765625 
L 9.40625 42.796875 
L 0.5 42.796875 
L 17.796875 22.09375 
L 0 0 
L 8.796875 0 
L 21.296875 17.515625 
L 34.296875 0 
L 43.09375 0 
z
" id="CMSS17-120"/>
      <path d="M 40.90625 29.546875 
C 40.90625 35.8125 39.40625 44.0625 28.09375 44.0625 
C 21.796875 44.0625 17.703125 40.984375 14.796875 37.609375 
L 14.796875 69.5 
L 7.40625 69.5 
L 7.40625 0.5 
L 15 0.5 
L 15 24.578125 
C 15 30.828125 17.40625 38 24.203125 38 
C 33 38 33.296875 32.125 33.296875 28.734375 
L 33.296875 0.5 
L 40.90625 0.5 
z
" id="CMSS17-104"/>
      <path d="M 32.203125 41.046875 
C 26.296875 43.859375 21.703125 43.859375 18.703125 43.859375 
C 11.59375 43.859375 3.09375 41.375 3.09375 31.296875 
C 3.09375 21.234375 14.09375 19.03125 17.09375 18.421875 
C 21.703125 17.53125 26.796875 16.53125 26.796875 11.5625 
C 26.796875 5.265625 19.59375 5.265625 18.296875 5.265625 
C 14.296875 5.265625 8.796875 6.359375 3.796875 9.96875 
L 2.59375 3.28125 
C 8.296875 0 13.796875 -1 18.40625 -1 
C 30.703125 -1 33.796875 6.5 33.796875 12.203125 
C 33.796875 17.09375 31 20.390625 29.09375 21.890625 
C 25.796875 24.5 24.59375 24.796875 16.40625 26.5 
C 15 26.703125 10.09375 27.796875 10.09375 32.28125 
C 10.09375 38 16.40625 38 17.796875 38 
C 24.296875 38 28.296875 35.984375 31 34.5 
z
" id="CMSS17-115"/>
     </defs>
     <g transform="translate(509.970245 152.288114)scale(0.14 -0.14)">
      <use transform="scale(0.996264)" xlink:href="#CMSS17-69"/>
      <use transform="translate(55.892013 0)scale(0.996264)" xlink:href="#CMSS17-120"/>
      <use transform="translate(98.892155 0)scale(0.996264)" xlink:href="#CMSS17-104"/>
      <use transform="translate(147.097098 0)scale(0.996264)" xlink:href="#CMSS17-97"/>
      <use transform="translate(192.019019 0)scale(0.996264)" xlink:href="#CMSS17-117"/>
      <use transform="translate(240.223962 0)scale(0.996264)" xlink:href="#CMSS17-115"/>
      <use transform="translate(276.137504 0)scale(0.996264)" xlink:href="#CMSS17-116"/>
      <use transform="translate(309.96907 0)scale(0.996264)" xlink:href="#CMSS17-105"/>
      <use transform="translate(332.149793 0)scale(0.996264)" xlink:href="#CMSS17-118"/>
      <use transform="translate(375.149935 0)scale(0.996264)" xlink:href="#CMSS17-101"/>
     </g>
    </g>
   </g>
  </g>
 </g>
 <defs>
  <clipPath id="p0a99ca71e2">
   <rect height="326.16" width="502.2" x="81" y="51.84"/>
  </clipPath>
 </defs>
</svg>
